ply
format ascii 1.0
element vertex 72
property float x
property float y
property float z
property uchar red
property uchar green
property uchar blue
end_header
0.030533364042639732 -0.0571795254945755 0.18389999866485596 47 62 57
0.009609219618141651 -0.048704564571380615 0.1882999986410141 92 114 113
0.010112101212143898 -0.048756297677755356 0.18850000202655792 57 79 80
0.018597619608044624 -0.04777340963482857 0.18469999730587006 45 57 47
0.032791297882795334 -0.047572311013936996 0.1858000010251999 120 111 74
0.009126750752329826 -0.04678560048341751 0.18850000202655792 21 38 41
0.030951514840126038 -0.04700898006558418 0.18940000236034393 122 111 75
0.03138012811541557 -0.046909697353839874 0.1889999955892563 123 112 76
0.008624915964901447 -0.046243805438280106 0.1882999986410141 25 47 48
0.008089573122560978 -0.04550867900252342 0.18729999661445618 60 79 81
0.00857453141361475 -0.044505830854177475 0.18719999492168427 21 36 33
0.017669351771473885 -0.044248078018426895 0.19029998779296875 51 54 38
0.005503319203853607 -0.04009336978197098 0.1826999932527542 62 60 39
0.039462119340896606 -0.03918648138642311 0.1875 71 65 39
0.014888837933540344 -0.037293028086423874 0.18069998919963837 54 62 47
0.014864119701087475 -0.03675961121916771 0.18039999902248383 51 53 35
0.0 -0.0 0.0 43 51 38
0.015284617431461811 -0.036167412996292114 0.17979998886585236 29 38 31
0.04458625614643097 -0.034783490002155304 0.18239998817443848 40 55 52
0.015590650029480457 -0.0335361547768116 0.1833999902009964 43 56 53
0.017075112089514732 -0.03362758457660675 0.18389999866485596 46 57 53
0.01317234430462122 -0.033002737909555435 0.18310000002384186 24 48 48
0.03533988445997238 -0.033146932721138 0.18389999866485596 23 45 46
0.03585949167609215 -0.03270180523395538 0.18410000205039978 22 30 27
-0.005530523136258125 -0.03227313607931137 0.18439999222755432 68 70 52
-0.0030885746236890554 -0.03194060176610947 0.1824999898672104 56 64 51
0.012235235422849655 -0.03209811821579933 0.1833999902009964 64 86 87
0.012749244458973408 -0.0321856290102005 0.18389999866485596 12 31 31
-0.0021193840075284243 -0.03123948723077774 0.18119999766349792 56 65 56
0.04222573712468147 -0.030986616387963295 0.1824999898672104 51 63 53
0.01241536159068346 -0.0311114564538002 0.18609999120235443 44 66 67
0.030433742329478264 -0.030643362551927567 0.1832999885082245 77 67 35
0.043369002640247345 -0.030643362551927567 0.1832999885082245 54 63 54
0.03162757307291031 -0.02993389591574669 0.1818999946117401 82 94 84
0.036901842802762985 -0.030361756682395935 0.18449999392032623 70 84 86
0.0007309544016607106 -0.029701391234993935 0.1833999902009964 12 30 28
0.01767863519489765 -0.02983975224196911 0.19039998948574066 47 49 36
-0.0011786629911512136 -0.027602219954133034 0.18219999969005585 42 62 59
0.015515043400228024 -0.02852633409202099 0.1882999986410141 83 103 100
0.03448012098670006 -0.0275567714124918 0.1818999946117401 54 68 59
0.0384732149541378 -0.028041550889611244 0.1850999891757965 43 58 55
0.01599019207060337 -0.02800440602004528 0.18809999525547028 89 107 105
0.017557932063937187 -0.02815328724682331 0.1890999972820282 46 54 43
-0.0011806036345660686 -0.02669368125498295 0.1824999898672104 13 33 30
0.01754864677786827 -0.027644416317343712 0.1889999955892563 55 60 50
0.03290080279111862 -0.02686920203268528 0.18369999527931213 73 69 44
0.011215059086680412 -0.02620232291519642 0.18239998817443848 63 61 38
0.0036935617681592703 -0.025996360927820206 0.18779999017715454 46 40 25
0.03290080279111862 -0.025428814813494682 0.18369999527931213 62 52 24
0.0031976005993783474 -0.02497471310198307 0.1875 40 38 19
0.03363986685872078 -0.024308718740940094 0.1824999898672104 27 36 29
0.028517408296465874 -0.021540775895118713 0.1832999885082245 79 75 50
0.043960507959127426 -0.021348949521780014 0.1858000010251999 54 56 43
0.03279334679245949 -0.02056015096604824 0.18310000002384186 23 34 34
0.04259515926241875 -0.02090824581682682 0.18619999289512634 104 98 62
0.04273476079106331 -0.020257070660591125 0.18469999730587006 56 56 36
0.04831748455762863 -0.0192080270498991 0.18389999866485596 30 43 40
0.04975944012403488 -0.0192080270498991 0.18389999866485596 50 58 55
0.047706764191389084 -0.018676456063985825 0.1833999902009964 76 96 93
0.043819330632686615 -0.016084445640444756 0.18119999766349792 46 58 48
0.03656070679426193 -0.016170842573046684 0.18769998848438263 19 30 26
0.012488747015595436 -0.0136813810095191 0.18719999492168427 80 75 55
-0.019396794959902763 -0.01324848085641861 0.18799999356269836 39 46 38
0.011864859610795975 -0.013044116087257862 0.1850999891757965 81 82 71
0.01328744925558567 -0.01011947076767683 0.18469999730587006 76 98 97
0.01388202328234911 -0.010201653465628624 0.18619999289512634 51 59 48
0.023818213492631912 -0.009798470884561539 0.18779999017715454 127 116 82
0.0242961123585701 -0.009793253615498543 0.18769998848438263 87 76 42
0.023615289479494095 -0.009228327311575413 0.18619999289512634 119 110 75
0.02692776918411255 -0.00045052802306599915 0.17909999191761017 0 22 27
0.02786398120224476 0.0004856846062466502 0.17909999191761017 9 27 34
0.005566576030105352 0.037692464888095856 0.18479999899864197 22 33 31
