ply
format ascii 1.0
element vertex 57
property float x
property float y
property float z
property uchar red
property uchar green
property uchar blue
end_header
-0.014105631038546562 -0.025824323296546936 0.18310000002384186 53 92 100
-0.015079205855727196 -0.025373443961143494 0.1832999885082245 41 89 94
-0.014128741808235645 -0.02490794099867344 0.1833999902009964 69 89 84
-0.0016294399974867702 0.015490991994738579 0.1793999969959259 38 76 76
-0.0020983305294066668 0.01642877236008644 0.1793999969959259 62 124 135
-0.023997100070118904 0.017608562484383583 0.1818999946117401 0 53 56
-0.017970358952879906 0.024159561842679977 0.18850000202655792 69 131 142
-0.01747768372297287 0.02613026089966297 0.18850000202655792 83 131 139
-0.031587786972522736 0.03087240643799305 0.19039998948574066 145 139 99
-0.032309263944625854 0.03159989416599274 0.18879999220371246 131 131 96
-0.03324327617883682 0.03598375618457794 0.18850000202655792 81 112 112
-0.03470958396792412 0.036439575254917145 0.1858000010251999 80 139 143
-0.03453709930181503 0.03677298128604889 0.1875 33 92 97
0.01542440801858902 0.03720342367887497 0.18719999492168427 80 142 153
-0.0384906642138958 0.03731013461947441 0.18529999256134033 113 116 88
-0.03515731543302536 0.03737054020166397 0.18559999763965607 75 145 156
-0.0007124783587642014 0.037692464888095856 0.18479999899864197 43 97 107
0.012155179865658283 0.03716215863823891 0.18219999969005585 22 61 57
-0.01752404309809208 0.03904309123754501 0.1889999955892563 107 128 123
0.010791312903165817 0.03834468498826027 0.1832999885082245 51 67 48
-0.035005778074264526 0.03914147615432739 0.18479999899864197 46 120 129
0.014631960541009903 0.03884494677186012 0.1833999902009964 49 107 120
-0.03719805181026459 0.040348876267671585 0.18369999527931213 139 177 177
-0.03280271962285042 0.041469067335128784 0.18879999220371246 33 91 104
-0.033702027052640915 0.041251301765441895 0.18559999763965607 51 116 126
-0.04122132435441017 0.04247172549366951 0.1867000013589859 62 92 76
-0.039352815598249435 0.042039502412080765 0.18479999899864197 69 94 80
-0.038199856877326965 0.041834764182567596 0.18389999866485596 70 94 86
-0.03711705282330513 0.04169826954603195 0.1832999885082245 57 88 91
-0.0002268664975417778 0.04299432784318924 0.1826999932527542 81 78 48
0.00024941429728642106 0.044208019971847534 0.1817999929189682 51 88 81
-0.018046626821160316 0.04702131822705269 0.18930000066757202 59 97 97
-0.024808870628476143 0.04725005105137825 0.18439999222755432 158 194 188
-0.003583150915801525 0.046993814408779144 0.1833999902009964 94 107 83
-0.027956701815128326 0.04902626574039459 0.18940000236034393 110 107 70
-0.024326911196112633 0.04773201048374176 0.18439999222755432 159 188 178
-0.020360227674245834 0.047473158687353134 0.1833999902009964 69 124 126
0.010240849107503891 0.050412435084581375 0.19089999794960022 78 92 78
0.0007305558538064361 0.04936360567808151 0.1832999885082245 38 92 102
-0.021762607619166374 0.04978831112384796 0.18310000002384186 115 147 142
-0.022301901131868362 0.0504041388630867 0.18359999358654022 92 108 86
0.010090642608702183 0.051639534533023834 0.18809999525547028 61 105 115
-0.030485983937978745 0.05271909758448601 0.1867000013589859 70 84 73
0.0012333967024460435 0.055706530809402466 0.18689998984336853 100 123 108
0.0017154405359178782 0.05549789220094681 0.18619999289512634 99 121 107
0.0026916551869362593 0.05604468658566475 0.18639999628067017 67 70 53
-0.028680087998509407 0.05643785744905472 0.18449999392032623 57 123 135
0.005575612187385559 0.05662139132618904 0.1850999891757965 61 61 26
-0.0007302131853066385 0.06140194088220596 0.18940000236034393 73 94 73
-0.024781962856650352 0.062123317271471024 0.1841999888420105 45 107 115
-0.024260949343442917 0.06250279396772385 0.18389999866485596 86 150 153
-0.0022059371694922447 0.06410019844770432 0.18859998881816864 88 102 88
-0.0012213586596772075 0.06416817754507065 0.18879999220371246 135 172 166
-0.002200088929384947 0.06491352617740631 0.18809999525547028 143 182 182
-0.017693892121315002 0.06453587114810944 0.18559999763965607 134 198 201
-0.0050814189016819 0.0664762482047081 0.18559999763965607 104 104 65
-0.009350561536848545 0.07299765944480896 0.18369999527931213 43 96 99
