ply
format ascii 1.0
element vertex 819
property float x
property float y
property float z
end_header
0.05496873700674081 0.025328650972031883 0.0908845535098444
0.05505680988667044 0.0258917238547539 0.09096514245841723
0.055248449100916766 0.027061263615538653 0.09060183830230638
0.05430406266882225 0.024830347535813712 0.0911008928691125
0.054398800291714906 0.025412086899173878 0.0909558669824461
0.05450745837255544 0.026032814802484303 0.09033960967560577
0.05458660132745328 0.02657087675556864 0.09072249272596804
0.05466999574628327 0.027120846142655825 0.09096145541813867
0.05333939031027229 0.02222621370972975 0.08922468060642103
0.05351677699850907 0.023355834810412784 0.08934384835431104
0.0536058662269118 0.023921754281438477 0.0893900320701761
0.053700458502842115 0.0245030866852733 0.08924992768132164
0.0537874843718236 0.02506322697207136 0.0893659586023553
0.053864539469587434 0.02559544112774618 0.08981951814973924
0.05393542910017577 0.026110387174163068 0.0904817911445903
0.05400552236154286 0.026623102750056707 0.09117102267689517
0.054100114616021475 0.027204435029721967 0.09103091839399731
0.052051772784311806 0.017768380390321963 0.08909470431848755
0.05246099766835768 0.020496528494894525 0.09055177050169697
0.052634570239991324 0.021615467276021674 0.09080005547092058
0.052725531044318444 0.022186628655976058 0.0907828829591597
0.05287187675780474 0.022912911805917088 0.08889082869178187
0.05295527118438334 0.023462881278794208 0.08912979174187054
0.05304623199556201 0.024034042677938405 0.08911261899817234
0.05313828914362036 0.024608274696876088 0.08905833326963697
0.053226182274798625 0.025170844011208407 0.08914500579786687
0.05331609607160338 0.025739072804833736 0.08916327514259814
0.053398088835732695 0.02628511650221217 0.08944968699988405
0.053446258754448604 0.026736429190789286 0.0908810633039953
0.051186187631550376 0.01607456936301524 0.08998820889127128
0.0513956942365619 0.01729415165445524 0.08902005692364684
0.051460927608876376 0.017793255911830796 0.08987380696477229
0.051577007441384944 0.018434770397212773 0.0890063074694074
0.051648735746245095 0.018952065658468326 0.08964019230527207
0.051718064316364415 0.019462639231140662 0.09035530753748643
0.051823541363386925 0.020074457440147273 0.08984673149372552
0.05191263048542819 0.020640376356925266 0.08989291632922887
0.05200171970012782 0.02120629578957133 0.08993910050896854
0.052129004490632444 0.02187919337214916 0.0886922954150911
0.05220162424006845 0.02239898513458381 0.08929600076002522
0.05231063619981678 0.023020703925414585 0.08866776153168517
0.052392335683399294 0.02356592620278177 0.08896410146553957
0.05248832962863045 0.024151184401305092 0.08877654803755057
0.05257741885018162 0.024717103853140972 0.08882273198535293
0.05266444471916311 0.025277244139939033 0.08893876290638658
0.0527545381978354 0.02584597618645059 0.08895094969515456
0.052831593331651085 0.026378190571274728 0.08940450926256263
0.05287616678675244 0.026819430286328785 0.09095763236008035
0.05071822795075942 0.016760017943213735 0.08966945922668804
0.050810285047268706 0.017334249561422238 0.08961517276229246
0.05091738219814454 0.017950605869205733 0.08905175823678656
0.0510052753275287 0.01851317505033781 0.08913842958530578
0.05110620697517718 0.01911226301971405 0.08878372848724286
0.051194100070303596 0.019674832104897056 0.08887040099544864
0.051277494445333124 0.020224801177044997 0.0891093633096771
0.05135948712365563 0.020770844377745176 0.08939577559078936
0.05145577431517584 0.021356923900330678 0.08919829524591841
0.05156765263766001 0.02198667105485304 0.08847302693935026
0.05165655016657859 0.022552053614057804 0.08852570002922093
0.05174860722883013 0.023126285136317235 0.08847141472451191
0.051837504744045616 0.023691667657142375 0.0885240882782572
0.051927418570050676 0.0242598966607272 0.0885423578749499
0.05201631607156307 0.02482527914317271 0.08859503189256981
0.05210319817449588 0.025385016770092344 0.08871592955418603
0.05218659257187417 0.025934986033009963 0.08895489235231326
0.0522724382359611 0.026491820930695034 0.08911087658251048
0.052335273076144016 0.026984207124105392 0.09004581879037767
0.04995696338394863 0.015674783387456395 0.09009356720110173
0.0501289818290431 0.016789369371736872 0.09039446216252063
0.0502578349389078 0.017466659246056615 0.08909456414291955
0.05036080978007526 0.018071469790836066 0.08867069725148166
0.05044989892267119 0.018637388765183508 0.08871688139117308
0.05054100355829914 0.019208953244125127 0.0886948424108152
0.050633144497211215 0.01978341968809412 0.08863771772955317
0.050714843942947764 0.020328641603111753 0.08893405646367275
0.05080493741297439 0.02089737349723326 0.08894624230466736
0.0509116213570564 0.02151257223928119 0.08839681309505121
0.05100376236807218 0.022087039141548803 0.08833968845383745
0.05109590339279106 0.02266150608219604 0.08828256334874907
0.05118700792532089 0.023233069759679304 0.0882605228966708
0.05127293745921681 0.02379013955988412 0.08841366798225231
0.051362026673916435 0.024356058992530183 0.088459852161992
0.05145009957097493 0.024919131923226742 0.08854044053072155
0.05153817241142692 0.025482204567204545 0.08862102957523892
0.05162142146690031 0.026031766756586396 0.08886491245953008
0.051697138369905596 0.02656023302521483 0.08936377355851641
0.05176793375744005 0.027074915115732758 0.09002923685107099
0.04948702632936721 0.016354694252816156 0.08984176017490189
0.04959239321718796 0.016966203927984643 0.08933691321921641
0.04970960444595146 0.017610887227441082 0.08843111391579739
0.04979648667759448 0.01817062559937809 0.08855201094167407
0.049892773783307885 0.018756704625285343 0.08835453102062948
0.04998268768141666 0.01932493408716879 0.08837280065737045
0.05007158511082534 0.01989031611131568 0.0884254746349421
0.050160482567640205 0.020455698212221825 0.0884781476847645
0.05024247524596271 0.021001741412922003 0.08876455996587676
0.05034957232473484 0.021618097262406877 0.08820114540032259
0.05044053312906196 0.02218925864236126 0.08818397288856171
0.05054494520918346 0.02279809434894581 0.0877114503800527
0.05062266322675826 0.02333216508192591 0.08814256765326536
0.05071362403108538 0.023903326461880297 0.08812539514150447
0.05078374868624912 0.024416129965504144 0.08881356393705343
0.05088315340099321 0.025010941045602045 0.08851054979661108
0.050972050880156834 0.02557632333727787 0.08856322333033223
0.05105893296938655 0.026136060925817873 0.08868412145582308
0.05111731014395306 0.026615962091561873 0.0897699637013495
0.0488357991654217 0.015894051909395204 0.08960290024414484
0.048921728778272874 0.016451122187088454 0.08975604513783732
0.049042185345903315 0.01710489503004748 0.08874038524832277
0.04911924040761529 0.017637108956572996 0.08919394477568258
0.049236228104923764 0.018281166701941312 0.08829571737779299
0.049326321574950406 0.01884989859606282 0.08830790321878759
0.049423736603508385 0.019439137220419702 0.08807224603268525
0.04950966608585525 0.019996206619895342 0.08822539038240658
0.049599759555881875 0.020564938514016848 0.08823757622340117
0.04968783236713356 0.021128010948035153 0.0883181650159571
0.04979080712249422 0.021732820996136354 0.08789429854834555
0.049878880012701174 0.022295893907643097 0.08797488714901243
0.04996998460363161 0.02286745800504535 0.08795284720085705
0.05005168401511041 0.023412679824113915 0.08824918709466319
0.050143825080938585 0.023987146879900043 0.08819206059795094
0.0502384173568689 0.024568479283734866 0.08805195620909649
0.05031699934463373 0.025104970080348905 0.08845382901077305
0.0503927162321418 0.025633436177397474 0.0889526893939233
0.050492984856881196 0.026230666768010082 0.08862042909831126
0.050565604558356354 0.026750458396116034 0.08922413606680656
0.05062160208724803 0.02722369465142417 0.09039053361926881
0.04825087701426267 0.015935515273456786 0.09018151338771113
0.04836188288809006 0.016562819130560853 0.08948578152588069
0.048471284372091326 0.017185628900727678 0.08884435619757398
0.04856119812599268 0.017753857446013887 0.08886262575421844
0.04866909165294131 0.01837244424351044 0.08827225245932142
0.04876382919867282 0.01895418326258241 0.08812722794425476
0.048852726751734264 0.019519566145757096 0.08817990269773486
0.048947464318020426 0.020101305222398513 0.08803487748685628
0.049043751471694666 0.020687384382634465 0.08783739594225051
0.04913471219021498 0.021258545265910596 0.08782022385431598
0.04922462600936849 0.02182677425030561 0.087838493682946
0.049315586827398714 0.022397935668639627 0.0878213207073105
0.04940246893212564 0.022957673428759495 0.0879422195486374
0.049493429664349047 0.023528834350415258 0.08792504699682827
0.04957682409777919 0.02407880384248219 0.0881640098149796
0.04966673791693271 0.024647032826877205 0.08818227964360963
0.04974873067421048 0.025193076505065824 0.08846869173283282
0.04983212507158877 0.025743045767983447 0.08870765453096005
0.04991797073388159 0.026299880532468276 0.08886363758144658
0.04998809538904533 0.026812684036092126 0.08955180637699554
0.05005093022922824 0.027305070229502484 0.09048674858486273
0.04761470807841693 0.015517048520593877 0.08943291018212814
0.04769484497363505 0.016057894044887874 0.08978214407536603
0.04780707020047522 0.016688613065310522 0.08904513491026014
0.04790733878231121 0.01728584340758401 0.08871287482656129
0.04800618242013506 0.017879082767369017 0.08842885167304015
0.04810645114617846 0.018476314026239744 0.08809659166943784
0.04819554026821973 0.019042232943017743 0.08814277650494118
0.04829295531733237 0.01963147162494407 0.08790711862302691
0.04838304876680436 0.020200203461496133 0.08791930515983344
0.04847518973312262 0.020774669982224384 0.08786217955082218
0.04856629425194935 0.021346233621328016 0.08784013956261853
0.048666562885334406 0.02194346436433068 0.08750788021477986
0.04874514487309923 0.022479955160944722 0.08790975301645643
0.0488506219579677 0.023091773732300872 0.08740117817243034
0.048926338843681666 0.023620239696149202 0.08790003737586992
0.04900958788724607 0.024169801980351666 0.08814392190374637
0.04909867710879724 0.02473572143218754 0.08819010585154875
0.04918570301383059 0.025295861948134914 0.08830613679260653
0.04926583994510055 0.02583670770157822 0.08865537070586856
0.04934597689007362 0.02637755349340115 0.08900460415525596
0.04941456202962602 0.026886045122457833 0.08974488833668592
0.049500168766502865 0.027442210832930376 0.08990896068476881
0.049566277138779 0.027943765469330018 0.09073308729465314
0.04704949073840451 0.015613701110024955 0.08934447985497158
0.04712863362462442 0.01615176261440558 0.08972736274931693
0.0472372917844202 0.016772490995204437 0.08911110525058756
0.04734669328212457 0.01739530080375089 0.08846967945840624
0.047433575349005525 0.017955038201521216 0.08859057709999832
0.04754223348824666 0.018575766524750632 0.08797432029708087
0.04763319422047008 0.0191469274464064 0.08795714774527172
0.047724155103752455 0.01971808930384922 0.08793997504162179
0.047818892656335515 0.02029982834211101 0.08779495029461781
0.047910949745993255 0.020874059941129695 0.08774066406215955
0.047998842847971214 0.021436629045502514 0.08782733633842801
0.048093580458954885 0.022018368503683293 0.08768231209534692
0.048182477987873465 0.02258375106288806 0.08773498518521759
0.04826832364510885 0.023140585941383313 0.08789096964735213
0.048351718020138386 0.023690555013531255 0.0881299319615806
0.048437563704779966 0.024247389968785768 0.08828591549596587
0.0485234093962731 0.024804224943230098 0.08844189879841385
0.04861969657409021 0.02539030442743597 0.08824441891741752
0.048677226621367774 0.025867832831310396 0.08935893671228194
0.0487661241142345 0.026433215161365847 0.08941160978212849
0.048836248776249785 0.02694601868417951 0.09009977834574014
0.04638596314415295 0.01511860687922486 0.08952203225697672
0.046480555337702234 0.01569993879597634 0.08938192817597997
0.04658479619403076 0.01630829468269514 0.08891519942143461
0.046675900829658716 0.016879859161636757 0.08889316044107674
0.04678491278940705 0.017501577952467533 0.0882649212127367
0.04687950499323366 0.018082909898003735 0.08812481678383398
0.046974097348119234 0.018664242779326996 0.08798471220309048
0.04706419081814587 0.019232974673448505 0.08799689804408509
0.0471587831524768 0.01981430749720232 0.08785679415915351
0.04725092410509197 0.02038877397955094 0.08779966901401687
0.04735516496142049 0.02099712986626974 0.08733294025947153
0.04742778461819814 0.021516921112836325 0.0879366462601693
0.04751888916801929 0.022088485095099693 0.08791460770363778
0.047616304131325116 0.02267772328034777 0.08767895024554988
0.047699553229701916 0.023227285718068744 0.08792283291792787
0.047789646692877 0.023796017593000436 0.08793501899085977
0.04787771958308394 0.02435909050450718 0.08801560759152664
0.047966808763525826 0.02492500984120417 0.08806179293095287
0.048043863890489966 0.025457224206838495 0.08851535273029826
0.04810821829277997 0.02595386626087585 0.08939885377402143
0.048188355237753035 0.026494712052698783 0.08974808722340885
0.048297367269605075 0.02711643130182818 0.08911984803511708
0.04837197076167104 0.027641779129645307 0.0896564001067179
0.0459181516273178 0.01580447179788585 0.0891982514007142
0.04601755626995818 0.01639928241968513 0.08889523722022358
0.04610443845364036 0.016959020657293437 0.08901613586966145
0.046215444179834565 0.017586323588205357 0.08832040404370312
0.04631018173241762 0.018168062626467144 0.08817537929669914
0.04640958651926542 0.018762874164863667 0.08787236519630505
0.04650164360207161 0.019337105744692544 0.0878180791957841
0.04659638131256518 0.019918845737931203 0.08767305406500203
0.04667695297281302 0.020460908951906633 0.08800757037621319
0.04677635760860185 0.021055719554516097 0.0877045564276599
0.046866271355651655 0.021623948080612486 0.08772282621624165
0.04696100898033842 0.022205687577172895 0.08757780150928594
0.047050922813195034 0.022773916599947538 0.08759607087404135
0.04712593476034329 0.023300408428558274 0.0881187960028871
0.04722067231292634 0.02388214746682006 0.08797377125588313
0.04730651801127103 0.024438982460454204 0.08812975432639379
0.04738991244470117 0.024988951952521137 0.08836871714454514
0.0474636582530356 0.02551189758016473 0.08893430336058987
0.047542801175307355 0.026049959313694665 0.08931718627495937
0.04760291075534472 0.026534712471654242 0.0903443822237965
0.0476718854260016 0.027044295099236785 0.0910714800733225
0.045263303694213226 0.015333688918685901 0.08908196601175206
0.045351376539722654 0.01589676144865328 0.08916255364462143
0.04544879141037013 0.016485999118033293 0.08892689684229717
0.045551766237834496 0.017090809624433115 0.08850303041473391
0.04565060991676764 0.017684049099357006 0.08821900586958892
0.04574802482167285 0.01827328686468609 0.08798334790757813
0.04584016590479234 0.018847754225252325 0.08792622330641263
0.04593230689166526 0.019422220803550015 0.08786909700158943
0.0460244479679332 0.019996688144926437 0.08781197263236123
0.04611555247305684 0.02056825174565044 0.08778993310803221
0.04620665699188357 0.021139815384754075 0.08776789311982856
0.04629879793079564 0.021714281828723064 0.08771076843856654
0.04638582383582898 0.022274422344670433 0.0878267993796243
0.04645939846506795 0.02279688853398764 0.08839818031743023
0.04656726051926467 0.023415386926265547 0.08780886995117818
0.04665533332366481 0.02397845934109404 0.08788945897567141
0.04674235924240125 0.024538599895421037 0.08800548945285457
0.04682938514743459 0.02509874041136841 0.08812152039391236
0.046917458023938444 0.025661813284495523 0.08820210945845385
0.04697145841362812 0.026129455825133527 0.0894361125419804
0.04702545876220851 0.026597098250632643 0.09067011701713082
0.04711656332915853 0.02716866228087055 0.09064807788075603
0.04478353092885158 0.015986052097891928 0.0891631028232209
0.044884462432292646 0.016585139150670926 0.08880840164506146
0.04498386720543735 0.017179950650687816 0.088505388008542
0.045074827937660766 0.01775111157234358 0.08848821545673285
0.04517575944110183 0.018350198625122577 0.08813351427857342
0.04527516422794963 0.0189450101635191 0.08783050017817934
0.045358558589276066 0.01949497919728741 0.08806946295628242
0.04545329628606654 0.02007671915214644 0.08792443828937498
0.0455480338523527 0.020658458228787858 0.08777941307849638
0.045642771391232656 0.021240197228670016 0.08763438879536703
0.045733732137159165 0.021811358188705405 0.08761721577968326
0.04581712655688621 0.02236132764239271 0.08785617906170923
0.04591186418157298 0.022943067138953117 0.08771115435475353
0.0459987463274092 0.023502805014211873 0.08783205180445658
0.04609348389369535 0.02408454409085329 0.08768702659357798
0.04616360853515599 0.024597347556097507 0.08837519585300155
0.04624418031546837 0.02513941136270026 0.08870971058069982
0.04632475204781991 0.02568147503497431 0.08904422693195924
0.0463885372645441 0.026176522914358836 0.08994699593580044
0.046500415550976414 0.026806269839731885 0.08922172760920816
0.04421684763145584 0.016078598834604704 0.08912429780298169
0.044321088460378175 0.01668695464456425 0.08865756997618557
0.044418503502639255 0.017276193307300756 0.08842191232620863
0.04451734713361156 0.017869432647895946 0.08813788940462482
0.04460948812733602 0.018443899245383456 0.0880807628678643
0.04470059274926087 0.019015463685945446 0.08805872435138104
0.044796586629239875 0.019600721445359962 0.08787117065140647
0.04488769126486782 0.02017228592430158 0.08784913167104859
0.04498368514484682 0.0207575436837161 0.08766157797107402
0.04507175796295006 0.021320616136924223 0.08774216653169263
0.04516286248177678 0.02189217977602785 0.08772012654348899
0.04525195167592177 0.02245809915110447 0.08776631141904058
0.045344092714343746 0.023032566130131344 0.08770918585007759
0.04542734177161125 0.02358212845271343 0.08795306991407943
0.045519482737929516 0.024156594973441678 0.08789594430506817
0.04560273179519701 0.02470615729602377 0.08813982836907
0.045684431313037274 0.025251379669340025 0.08843616714323786
0.04576014827085494 0.025779846091486976 0.08893502638672568
0.04581810363487642 0.02625856572228859 0.09003514644111432
0.043625179250463275 0.016101166681002043 0.08993129080617998
0.04374916547225582 0.016764825377602585 0.08879614574397195
0.043850097126755846 0.017363913366168635 0.08844144441397174
0.04394638427357855 0.01794999250721477 0.08824396310130328
0.0440411218261616 0.01853173154547656 0.08809893835429931
0.04413585951610052 0.019113471481145776 0.08795391391932918
0.04423059706868358 0.01969521051940756 0.08780888917232521
0.04432265430254874 0.020269443035023493 0.08775460301996348
0.04441471140590958 0.020843674672421812 0.0877003163236306
0.04450462515295939 0.021411903198518205 0.08771858611221235
0.04460091226552433 0.021997982243615266 0.08752110595923045
0.044688805439606 0.02256055180628671 0.08760777827554717
0.044774651137950684 0.023117386799920852 0.08776376134605783
0.044862544298329254 0.023679956324212662 0.08785043412624918
0.04494311598598328 0.02422201961494735 0.0881849495097111
0.04502368772518637 0.024764083306411215 0.08851946562903322
0.045084686809342064 0.025251327915243277 0.08951655149626797
0.045163829788220325 0.025789389935491965 0.08989943373484965
0.04297581806505168 0.01564575108204244 0.08962926909135958
0.04307041026202674 0.01622708300838883 0.08948916489439417
0.04318160535475272 0.016854916316989828 0.08878702266908438
0.043287082511724896 0.017466735346644603 0.08827844786510657
0.043381674722403056 0.018048067311370618 0.08813834320426654
0.04347381568872132 0.01862253383209887 0.08808121759525528
0.0435684080436069 0.019203866713422127 0.08794111301451177
0.043668676591185146 0.019801096959746543 0.08760885409049947
0.043754606210887864 0.02035816725662961 0.08776199875225463
0.0438416320575206 0.020918307352657987 0.08787802918938953
0.04393762592379649 0.021503565073692877 0.08769047595328958
0.04402771935956538 0.022072296871865307 0.08770266295397072
0.04411986042539355 0.02264676392765144 0.08764553645725846
0.04420310949636415 0.023196326288613157 0.0878894200573857
0.04429320300423675 0.02376505854508421 0.08790160709811512
0.04438022883716638 0.02432519860273296 0.08801763799912464
0.04446347792184008 0.024874761002074308 0.08826152113537723
0.044540533055655765 0.025406975386898446 0.08871508070278532
0.04460130846414902 0.02589359352504514 0.08971973839545296
0.044653276174021365 0.02635554293705034 0.0910225513645518
0.042499998492225535 0.016309187041421865 0.08957657540371947
0.042607891854412105 0.016927772864751733 0.08898620272453783
0.04271230402034041 0.017536609068014533 0.08851367979220247
0.042811708669832346 0.018131419709003626 0.08821066537977454
0.04290644621556385 0.0187131587280756 0.08806564086470789
0.04299332843350377 0.01927289706163298 0.08818653835445919
0.043095598133497504 0.019875732134658607 0.08778653680440807
0.04319033585769417 0.020457472166276896 0.08764151120975137
0.043272328549719775 0.021003515405356707 0.08792792302698901
0.043376740564589115 0.021612350672832452 0.08745540024649441
0.04346665431163892 0.02218057919892884 0.08747367003507617
0.04354040009256715 0.022703524749813176 0.08803925717887015
0.043635137744660116 0.023285264323132843 0.0878942315441652
0.043715709483863205 0.023827328014596704 0.08822874766348733
0.043804606906420324 0.024392710019553777 0.08828142187299629
0.04388659965684654 0.02493875367855258 0.08856783419415679
0.043949434517584096 0.025431139929532384 0.08950277570621205
0.044006964590636195 0.025908668533771398 0.09061729386900658
0.041842885129916435 0.015832058638871934 0.08953698472799167
0.041926134145912196 0.01638162058950957 0.08978086770822735
0.04204908032315008 0.017042366329832866 0.08868093003391486
0.04215455748697381 0.017654185378677453 0.08817235499799975
0.042243646643272834 0.018220104391404524 0.08821853867381654
0.04233823884709944 0.018801436336940727 0.08807843424491382
0.04243283118143036 0.019382769160694542 0.08793833035998225
0.04252192031032319 0.019948688096662354 0.08798451496354828
0.04263311552327616 0.020576522254696243 0.08728237363011562
0.04270669006670832 0.0210989879473352 0.0878537549917479
0.04279577921615578 0.021664906940872454 0.087899938899502
0.04289462288823737 0.02225814639660653 0.08761591458629432
0.04297787197291107 0.022807708795947877 0.08785979772254691
0.043078140592593024 0.023404939500570914 0.08752753883858289
0.04315519572640871 0.023937153885395048 0.08798109840599097
0.043243268544511944 0.02450022633860317 0.08806168696660958
0.04331588825969021 0.025020018005088747 0.08866539347123023
0.04337846840039767 0.025511690836333516 0.08960895771667149
0.043440150635356306 0.026000848813598508 0.09058291769453691
0.043527176511189335 0.026560989119586383 0.09069894838363325
0.041368315751167416 0.016498995779711315 0.08944197384814906
0.04147272777631408 0.01710783107597178 0.08896945071974849
0.04158636011258485 0.017742491127795676 0.08818480835728365
0.04167525756939972 0.01830787322870182 0.08823748140710606
0.041765171309597976 0.018876101735608396 0.08825575142762512
0.04185722855716623 0.01945033428960396 0.08820146481138877
0.041959498236605317 0.020053169305060143 0.08780146395714958
0.042057348050747664 0.020643625676667905 0.08755108849320858
0.04214524115272563 0.021206194781040726 0.08763776076947705
0.04223313424100049 0.02176876384703392 0.08772443350962013
0.04231652861603002 0.022318732919181856 0.08796339582384859
0.042412815828104876 0.022904812499336798 0.0877659147831657
0.042493387553604864 0.023446876152421036 0.08810043136636245
0.04258128074138963 0.024009445753472105 0.08818710321880456
0.042656292609582626 0.024535937104594407 0.08870982853953935
0.042722054177909724 0.02503652047675176 0.08954569571011578
0.04278216380770204 0.025521273902240283 0.09057289121510242
0.04285988185969703 0.026055344987975022 0.09100400980401856
0.04071684690073876 0.016037676714640903 0.08921130405359018
0.040808987832799286 0.01661214313942008 0.08915417960426546
0.04091684981489231 0.017230641073399368 0.08856486919796512
0.04101569363803286 0.017823881464920498 0.08828084473291667
0.041106798115750305 0.01839544498888525 0.08825880613633688
0.04119893906836548 0.018969911471233867 0.08820168099120024
0.04129353142325105 0.019551244352557128 0.08806157641045674
0.041390946328156264 0.020140482117886212 0.08782591844844595
0.041486940338639575 0.020725740755518342 0.08763836529244251
0.04157501314303972 0.021288813170346834 0.08771895431693574
0.041663085974846054 0.021851885661934585 0.08779954241367974
0.041753179438021135 0.022420617536866274 0.08781172848661165
0.04184125232822808 0.02298369044837302 0.08789231708727852
0.04192932520473193 0.023546763321500134 0.08797290615182002
0.0420435266681679 0.024183017128057867 0.08716899532531429
0.04209752698069643 0.024650659324407673 0.08840299978044057
0.042156445400212704 0.025132076408740822 0.08947051990620047
0.04221722079842863 0.025618694518102794 0.0904751779467741
0.04231606454603971 0.0262119344417304 0.09019115355764601
0.04024216525827099 0.016704299278460503 0.08912009520693218
0.040341569900911374 0.017299109900259783 0.08881708102644155
0.04045344829549925 0.017928857513080765 0.08809181275992167
0.04052595784788754 0.018448340379327743 0.0886992459931964
0.04062934097252368 0.01905429393154431 0.08826155300665613
0.04071133381560824 0.019600338106411177 0.08854796467205298
0.04081922717779481 0.020218923929741044 0.08795759199287137
0.04091551444141873 0.020805003910625168 0.08776011168804868
0.04100340757080288 0.021367573091757245 0.0878467830365679
0.04109028961027765 0.02192731041276831 0.08796768160590923
0.0411771716908617 0.022487047848918258 0.08808857878362669
0.04126708547575748 0.0230552767373642 0.08810684977194326
0.041344803558584435 0.023589347909453107 0.08853796731714152
0.04143064925692912 0.024146182903087246 0.08869395038765218
0.04150077384684069 0.024658985967602288 0.08938211891121556
0.04156088344237527 0.025143739297141737 0.09040931557588874
0.041635895389523524 0.025670231125752476 0.0909320407047345
0.03958216920690573 0.016219097211935634 0.08917808681902291
0.03968101287213577 0.016812336648479895 0.08889406273775255
0.03978128142656556 0.017409566913994125 0.08856180358180292
0.03988012524970612 0.018002807305515258 0.08827777911675447
0.03997021871973276 0.018571539199636763 0.08828996495774907
0.0400613231974502 0.01914310272360151 0.08826792636116929
0.040158738246562825 0.019732341405527837 0.08803226847925502
0.040250879233435746 0.02030680798382553 0.08797514217443182
0.040334128362806955 0.020856370764706245 0.08821902627848192
0.040434396944642945 0.02145360110697973 0.08788676619478307
0.04052246975589463 0.02201667354099804 0.087967354987339
0.04060105167155574 0.022553163879313453 0.0883692277489673
0.04070132029808925 0.023150394603126304 0.08803696863306594
0.04078145727911416 0.02369124062409855 0.08838620210247748
0.040852346895999404 0.024206186632135803 0.08904847556120317
0.040969334442248914 0.02485024344171706 0.08815024831515438
0.04110191608977125 0.02553797645882535 0.08672413503797435
0.04106957333852269 0.025763789300958472 0.09088101073462854
0.039109438637731544 0.01689118485122445 0.08902082477486563
0.03921037015487572 0.017490271942383076 0.08866612313283155
0.039309774928020416 0.018085083442399966 0.0883631094963121
0.03940451252856432 0.018666822614990454 0.08821808312574696
0.0394879068830392 0.019216791629568953 0.08845704613578736
0.03959129015873431 0.019822746117572575 0.08801935299740632
0.039683347255243605 0.02039697773578108 0.08796506653301074
0.03977022943892578 0.020956715973389387 0.0880859651824486
0.039860143192827144 0.021524944518675593 0.08810423473909304
0.03995110392505055 0.022096105440331356 0.0880870621872839
0.040028821935773805 0.02263017615412164 0.08851817969243388
0.040118735720669575 0.02319840504256758 0.08853645068075044
0.04020561788020889 0.023758142956205968 0.08865734766657887
0.040283335963035856 0.02429221412829487 0.08908846521177713
0.0404014641551312 0.02493946565820022 0.08815162504230525
0.0404112524956208 0.025283279241355434 0.09088228713816571
0.03844869261431749 0.01640388192312214 0.08910420818976483
0.0385432847907379 0.016985213791899084 0.08896410468861136
0.0386462595082526 0.017590023477650738 0.088540237021265
0.03874085182888043 0.01817135626302492 0.08840013360020806
0.03884382653954358 0.01877616592958676 0.08797626616479902
0.03892552597157703 0.019321387806224766 0.08827260536279322
0.03902011830590795 0.019902720629978582 0.08813250147786166
0.03911225925852313 0.020477187112327204 0.088075376332725
0.039200332248239975 0.021040260558891827 0.0881559640456909
0.039283581226552226 0.02158982240398548 0.08839984830158179
0.039382424891782265 0.022183061840529743 0.08811582422031143
0.039468354374129114 0.02274013124000538 0.08826896857003275
0.03954849134145094 0.023280977222597997 0.0886182025033189
0.039636564272767176 0.023844050249243624 0.08869878971236192
0.03971228117577246 0.024372516517872058 0.08919765081134823
0.03977575157573783 0.024866682530458005 0.0901110756910136
0.039862777480771175 0.025426823046405374 0.09022710663207138
0.03797345235707207 0.017068940429295187 0.08903190362269339
0.03807285698600936 0.01766375101271484 0.08872888990607739
0.03817226177285716 0.01825856255111136 0.08842587580568331
0.03825283346736274 0.018800625861035862 0.08876039095720792
0.03835068314414922 0.019391081335236194 0.08851001518123308
0.03844164402058004 0.019962243173489203 0.08849284270952046
0.038542575524021114 0.0205613302262682 0.08813814153136103
0.038633536386748844 0.021132492026141578 0.08812096952352302
0.03872041843992671 0.021692229385532273 0.08824186762898974
0.03881826809615854 0.022282684802163163 0.08799149254882684
0.03889327997805463 0.02280917619166509 0.088514217405687
0.0389831938040597 0.02337740519524992 0.0885324870023797
0.03905820574435641 0.023903897004670847 0.08905521236316277
0.03912396731268351 0.024404480376828196 0.08989107953373922
0.0373088057431013 0.016570713409543726 0.08924732129065807
0.037407649401479795 0.017163952826898175 0.08896329744132501
0.03750791795590959 0.017761183092412404 0.08863103828537539
0.03760005908698992 0.018335650587307337 0.08857391206064873
0.03769465129766808 0.018916982552033355 0.0884338073998087
0.03778924350149469 0.019498314497569558 0.08829370297090598
0.03788138458461418 0.02007278185813579 0.08823657836974048
0.03797597679529234 0.020654113822861808 0.08809647370890046
0.03807056914332636 0.021235446684995253 0.08795636936009427
0.038167984055083135 0.02182468446951415 0.08772071116614616
0.03824812094344969 0.022365529974618333 0.08806994529132137
0.03833514677637932 0.022925670032267077 0.08818597619233089
0.038415283723146496 0.02346651595729025 0.08853521082142897
0.038492338884368385 0.023998730418873647 0.0889887694610878
0.0385649585926951 0.024518522066169408 0.08959247619764578
0.03862931293495282 0.025015163823893103 0.09047597803312542
0.03694670941678361 0.01786906216846695 0.08840691837691446
0.03703255516667735 0.01842589756283027 0.08856290218328533
0.037127292719260414 0.019007636601092056 0.08841787743628136
0.03721825345148382 0.019578797522747823 0.08840070488447221
0.037310310692200525 0.02015303005755357 0.08834641850017318
0.03740816034843236 0.020743485474184458 0.08809604342001026
0.03750444761205628 0.02132956545506858 0.08789856311518758
0.03759436136595764 0.021897794000354787 0.08791683267183203
0.037682254461084044 0.022460363085537793 0.0880035051800378
0.03775355717481344 0.022976465838662436 0.08865179208309064
0.03783695160824359 0.02352643533072937 0.08889075490124199
0.037914669691070546 0.024060506502818275 0.08932187244644023
0.03798043124569454 0.024561089836596 0.0901577400808913
0.036272532572480545 0.017344142884287345 0.0889449515660501
0.036371376251413685 0.01793738235921124 0.08866092702090511
0.036465968585744614 0.01851871518296505 0.08852082313597355
0.03655606202151351 0.019087446981137485 0.0885330101366547
0.03664615549154014 0.019656178875258994 0.0885451959776493
0.036746424224435095 0.020253410153319537 0.08821293574210967
0.03683856517705027 0.02082787663566816 0.08815581059697301
0.03693740898648772 0.021421116988809663 0.08787178659579918
0.037025481797739415 0.021984189422827972 0.0879523753883551
0.0371087308103094 0.0225337513638707 0.08819625848455943
0.03718578587202138 0.02306596529039621 0.08864981801191925
0.037273858755376775 0.02362903818271314 0.08873040684452342
0.037345587001836315 0.024146333024049702 0.08936429117646522
0.03742572396230659 0.024687178987452502 0.0897135253416887
0.037490957200690976 0.025186282357015536 0.09056727495481165
0.03579276065289158 0.017996509112797036 0.08902605195958939
0.035898127678068194 0.018608019685372946 0.08852120531593777
0.035975845695642994 0.019142090418353047 0.08895232258915044
0.03606680642786641 0.01971325134000881 0.08893515003734129
0.03616309369149032 0.020299331320892934 0.08873766973251859
0.03626846060671727 0.020910841072820676 0.08823282184908388
0.03635837449112294 0.021479070496324495 0.08825109194969948
0.03643894615137078 0.022021133710299925 0.08858560826091064
0.03652582823880638 0.022580871165639692 0.0887065052066908
0.036609222600132815 0.023130840199408 0.08894546798479387
0.03670127976874581 0.023705072275915125 0.08889118156044656
0.03677140441020645 0.024217875741159346 0.08957935081987015
0.03686925415909664 0.024808331673658295 0.08932897508394358
0.035220230942599656 0.01807268121914517 0.08918515858237666
0.03532320577006402 0.01867749172554499 0.0887612921548134
0.03541127862927655 0.019240564293892 0.08884187932380816
0.03549830442794844 0.019800704255591675 0.08895791138450422
0.03558839804218249 0.020369437066310427 0.08897009730559535
0.035682990232306006 0.020950768973467 0.08882999334056725
0.03577207953281244 0.021516688902791313 0.08887617709648057
0.03586116864115062 0.022082607781189683 0.08892236239585855
0.035951262111177246 0.022651339675311192 0.08893454823685314
0.03604135558120388 0.023220071569432697 0.08894673407784774
0.03612838148623722 0.023780212085380066 0.08906276501890552
0.036218475028367565 0.024348944437800196 0.08907495089994838
0.03628545593257857 0.02485294292530159 0.08986954134709267
0.03635718411036017 0.02537023731793444 0.09050342552301754
0.03473705085134683 0.018715500993907987 0.08938165228225221
0.034841462873067726 0.019324336280573548 0.08890912926982031
0.03491276557309402 0.019840438995318566 0.08955741663674777
0.03500166314328434 0.02040582192646779 0.0896100908103846
0.03508750875239644 0.020962656413828773 0.08976607442069028
0.035208513917013406 0.021617966279659086 0.08873184849345528
0.035274275365275956 0.022118549059189117 0.08956771724754463
0.03537056251895019 0.02270462821942507 0.08937023570293887
0.035462619615459476 0.02327885983763357 0.08931594923854329
0.0355535804197866 0.023850021217587957 0.08929877672678241
0.03563942607017044 0.0244068560768934 0.08945476142085425
0.0357095507630177 0.024919659686061222 0.090142928940748
0.035795396351575144 0.025476494115852767 0.0902989132468656
0.03587453934758228 0.02601455618407599 0.09068179490560402
0.034261050462721834 0.019378430524486876 0.08933507953620026
0.03434274990845838 0.019923652439504513 0.08963141827031984
0.034430822860491705 0.020486725780525156 0.08971200725894095
0.034519911968829885 0.021052644658923522 0.08975819255831892
0.0346016115656254 0.021597867509728214 0.09005453114059771
0.034704586259159675 0.02220267712831552 0.08963066428503194
0.03479917846298628 0.02278400907385172 0.08949055985612923
0.03489517233611372 0.02336926681407642 0.08930300638809197
0.034984261516555606 0.023935186150773412 0.08934919172751819
0.03507435505868595 0.024503918503193542 0.08936137760856105
0.03515605457652621 0.025049140876509793 0.08965771638272892
0.035244127401480994 0.02561221334890773 0.08973830471141021
0.035334220943611334 0.026180945701327858 0.08975049059245307
0.03542331012405322 0.02674686503802485 0.0897966759318793
0.03551033602908656 0.02730700555397222 0.08991270687293708
0.03558122562019726 0.027821951361644885 0.09057497996373268
0.035673366636270486 0.028396418149902073 0.09051785391087092
0.03602212087768471 0.030638802345279728 0.09095995172840281
0.03611121003643915 0.031204721544129087 0.09100613705578327
0.036202314600566436 0.03177628548334743 0.09098409721061214
0.03629690687090957 0.03235761783948984 0.090843992700783
0.03637704382705702 0.03289846372669761 0.09119322639211978
0.03646029287404719 0.03344802602049498 0.0914371108040276
0.0366381341625475 0.03457892036537252 0.09154088951137748
0.036726207016702594 0.035141993047729955 0.09162147809202023
0.03701326275252387 0.03689517382323334 0.0910901679625094
0.03711210642117968 0.03748841326937251 0.09080614376527038
0.037204247445898564 0.038062880210019745 0.09074901866018201
0.03727996438316159 0.03859134657459726 0.09124787859948176
0.03746018707475899 0.039728910752098084 0.0912710425079757
0.03384691632811583 0.02053103368917516 0.09025623987112301
0.033933798408699894 0.021090771125325113 0.09037713704884048
0.03402475928513072 0.02166193296357812 0.09035996457712786
0.034119496834288006 0.022243671992244998 0.09021493994609255
0.03422176655826215 0.022846507132434978 0.08981493758426083
0.034307612143393826 0.02340334155263161 0.0899709220063471
0.03441099535383678 0.024009295601526426 0.08953322859598047
0.034518888788127054 0.024627881883154915 0.08894285595684713
0.03459803176015377 0.02516594388421378 0.08932573842736613
0.03469008884295996 0.025740175464042656 0.08927145242684519
0.03478482648134982 0.026321914998982694 0.08912642725601486
0.034873723996565305 0.026887297519807833 0.08917910080976015
0.03495956966065224 0.027444132417492904 0.08933508503995735
0.035046451763585056 0.028003870044412536 0.08945598270157357
0.035145856449128834 0.02859868091455094 0.08915296830916979
0.035204233630546894 0.029078582099484752 0.09023881032275889
0.035306503416347425 0.02968141766918863 0.0898388083488814
0.035387075137524586 0.030223481246077842 0.09017332445819146
0.035490458329941604 0.030829435180397997 0.08973563103781278
0.035579355789211904 0.03139481746742643 0.08978830573919884
0.03567141294129907 0.031969049414534365 0.08973401906992982
0.035761326758291176 0.03253727836083187 0.08975228866161651
0.03584921990749537 0.03309984778973884 0.08983896119985847
0.03593506559213695 0.03365668274499335 0.08999494473424377
0.036017058320214415 0.03420272621322247 0.09028135657150553
0.0361149080124981 0.03479318185900267 0.09003098151136675
0.036209645649093854 0.035374921260742466 0.08988595516082575
0.03627977029055449 0.03588772472598668 0.09057412442024933
0.03638686738302972 0.036504080613851186 0.09001070939082054
0.03647892453793962 0.03707831265197868 0.08995642343034785
0.036565806577414386 0.037638049972989744 0.09007732199968918
0.03664637833032057 0.038180113702833245 0.09041183765513668
0.036726950096929854 0.038722177471056364 0.09074635284670955
0.036807521829281396 0.039264241143330415 0.09108086919796898
0.0368954149244078 0.039826810228513414 0.09116754170617475
0.03697740775378928 0.040372854365000654 0.09145395383544623
0.03705655082190012 0.0409109168915225 0.09183683553423291
0.033460756811153805 0.02176198678827612 0.0902304244129776
0.03355085028118045 0.022330718682397624 0.0902426102539722
0.03365111883561024 0.022927948947911853 0.08991035109802259
0.03374571104286262 0.02350928090304296 0.08977024655315122
0.03384170498124223 0.024094539082376472 0.08958269335709952
0.03393769891277028 0.024679797242520167 0.08939514039298516
0.03403654264325248 0.025273037118173233 0.08911111658370037
0.03413681119768227 0.02587026738368746 0.08877885742775075
0.03423140348046414 0.0264515998067121 0.08863875280695899
0.03432739743939839 0.027036858043615053 0.08845119891509537
0.03441953845041417 0.027611324945882663 0.0883940742738816
0.03450761132512391 0.02817439768580954 0.08847466215871241
0.03459463720780849 0.028734538010987225 0.08859069261587145
0.034683726388250374 0.029300457347684217 0.08863687795529768
0.034774830986032366 0.029872021464276286 0.08861483777520499
0.03486593551782759 0.030443585331965 0.0885927992086614
0.034952961425389645 0.031003725790907155 0.08870882944389519
0.03503309836417248 0.031544571616462326 0.08905806359707288
0.035124202911170896 0.03211613550770613 0.08903602433174503
0.03521429644428828 0.032684867802838934 0.08904821020778186
0.03530236930276621 0.033247940561391395 0.08912879926231129
0.035389395207799546 0.033808081077338764 0.08924483020336908
0.03547948871387804 0.034376813200609584 0.08925701606438781
0.03556651458285952 0.034936953487407635 0.08937304698542145
0.035654587430163066 0.03550002615057525 0.0894536357980015
0.03575058138909731 0.036085284387478204 0.0892660819061379
0.03583071834956759 0.03662613035088101 0.08961531607136135
0.035918791246626086 0.037189203281577564 0.08969590444009093
0.03600204024549297 0.037738765184240665 0.08993978800016988
0.03607909537930866 0.038270979569064806 0.09039334756757797
0.036162344470833906 0.03882054198759596 0.09063723047189325
0.03623939960464959 0.039352756372420104 0.09109079003930133
0.03632264861721958 0.039902318313462824 0.09133467313550567
0.03640434817633158 0.040447541058723537 0.09163101299343968
0.03648759732968321 0.0409971039067686 0.09187489628570922
0.03297856176517407 0.02240756768651004 0.09039353644028061
0.03307641142825746 0.022998023122330746 0.0901431611281804
0.03317269853739663 0.0235841021578329 0.08994568109116714
0.03326898576317457 0.024170181776367473 0.08974819958660964
0.03336372338100979 0.024751921253738065 0.08960317511159124
0.03347312495081786 0.025374731520583137 0.0889617493594582
0.03356408568304127 0.025945892442238903 0.08894457680764906
0.03367509147448763 0.026573195812259632 0.08824884525367628
0.03375280952305684 0.027107266888399463 0.08867996395856109
0.033869114035142193 0.027749410912580208 0.08780486113433734
0.03396696374798053 0.02833986661592985 0.08755448537838664
0.03404197565907693 0.028866358215391276 0.08807721048720826
0.03413188947823045 0.02943458719978629 0.08809548031583829
0.034218771596660466 0.02999432499828579 0.08821637869329056
0.034307669093850024 0.030559707404536274 0.08826905223702379
0.034397582867571413 0.03112793619759737 0.088287322983391
0.03445948965063217 0.0316177230119709 0.08925368085595875
0.03456814771494687 0.03223845078588213 0.08863742330419669
0.03465704522114939 0.03280383324941994 0.08869009685293595
0.03474392732840504 0.0333635709525346 0.08881099498843885
0.034829773013046614 0.033920405907789115 0.08896697852282415
0.0349186704716556 0.0344857881418955 0.08901965275235724
0.03500963123993087 0.03505694929270057 0.08900248022057221
0.0350954768885206 0.03561378401880577 0.08915846373493337
0.03518337005575072 0.036176353562287406 0.0892451362831874
0.03526251306203518 0.03671441565929535 0.08962801759401985
0.035348358712419016 0.037271250518600786 0.08978400228809169
0.03543035143870236 0.037817293853629676 0.09007041294564277
0.03550949439702598 0.03835535581630892 0.09045329588003641
0.03559006612937751 0.03889741948858297 0.09078781223129583
0.03567205889350683 0.0394434631859614 0.09107422408858173
0.0357497769008043 0.03997753389015677 0.09150534170970036
0.03240967053483258 0.022493931806642026 0.09042945836676239
0.03250426274208496 0.023075263761773133 0.09028935382189102
0.03259640369127435 0.023649730234526843 0.09023222879272302
0.03269937845348656 0.02425454030181786 0.08980836209317417
0.03279397071228801 0.02483587265767815 0.089668258284163
0.03291095833749278 0.025479929944747837 0.08877003084622515
0.033018820333288894 0.026098427917106756 0.0881807199760502
0.0331176640637711 0.026691667792759825 0.0878966961667654
0.0332136580295569 0.027276926048852592 0.08770914204296448
0.03330965194053031 0.027862184151426845 0.08752158977466203
0.033395581452077466 0.02841925376086198 0.08767473437634479
0.03348467062387369 0.028985172945168915 0.08772091876799765
0.0335706001714727 0.02954224278375336 0.08787406338970455
0.03365867306167965 0.030105315695260104 0.08795465199037142
0.033746745961266866 0.03066838856895145 0.08803523965327699
0.033833771848274276 0.03122852897032416 0.08815127058432272
0.03391235378694546 0.03176501955233131 0.08855314430170275
0.03400449481569316 0.032339486421148804 0.08849601825588072
0.03409042435427921 0.03289655620244592 0.08864916287258158
0.03417745025498973 0.03345669664219827 0.08876519333975266
0.03426069932596032 0.03400625900315998 0.0890090769398799
0.03437944964733325 0.034655253120615334 0.08805117781040382
0.03443544717443082 0.03512848924272323 0.08921757418315539
0.0345224730434123 0.03568862952952129 0.08933360510418904
0.0346057221006798 0.03623819185210338 0.08957748916819089
0.0346889711853535 0.036787754251444725 0.0898213723044435
0.03477067070319376 0.03733297662476098 0.09011771107861134
0.0348539197226153 0.037882538584993526 0.09036159394287838
0.03497179678848034 0.03852908701702713 0.08943325733106326
0.035020614449194944 0.03898221390107565 0.09084270639782495
0.035093234164373203 0.039502005567561234 0.09144641290244562
0.035170289222659405 0.04003421948449183 0.09189997254577409
0.03211299135290909 0.02429189927534074 0.09043658199621665
0.032210841091521954 0.024882355179054974 0.09018620660819605
0.03232447340022408 0.02551701489731404 0.08940156269809044
0.03243987989677337 0.026156643503672406 0.08855685684189782
0.03253928459781436 0.02675145454539068 0.08825384316533008
0.032638689319410004 0.027346265644678396 0.08795082879295042
0.032738094027302544 0.027941076705586484 0.08764781488444538
0.03283283161593746 0.028522815972997582 0.08750279015746555
0.032911974558763865 0.029060877764096955 0.08788567237602311
0.033004031706822215 0.029635109783034637 0.08783138664748774
0.0330898774051669 0.03019194477666878 0.08798736971799839
0.033173271820571115 0.030741914154161058 0.08822633252613768
0.03326216930405757 0.03130729652203191 0.08827900653374553
0.033341312233842194 0.031845358327673705 0.0886618896880307
0.0334302097393834 0.032410740738289465 0.08871456276491696
0.033510781462721975 0.03295280435327619 0.08904907911117035
0.033597663556274526 0.03351254201801122 0.08916997771054788
0.033676806562558975 0.034050604115019166 0.08955285902138034
0.033766720304551356 0.03461883275512598 0.08957113022161009
0.03384046609738857 0.035141778211189696 0.09013671572181875
0.03393252321624661 0.03571601002016788 0.09008242974132194
0.034020416383476734 0.03627857956364951 0.09016910228957598
0.03409813446630369 0.03681265073573842 0.09060021983477422
0.03418703196096453 0.03737803319899411 0.09065289408433144
0.034270426322290964 0.03792800223276242 0.09089185686243453
0.03435382075229534 0.03847797171523445 0.09113081979655455
0.03443581355068239 0.03902401550856195 0.09141723049415387
0.03451353160267738 0.039558086594296694 0.09184834908307003
0.0317395301881912 0.025558417913162594 0.08998090436429214
0.03184377101368776 0.026166773713527228 0.0895141766534647
0.031944039674479 0.026764004533289153 0.08918191637787679
0.03204145465148793 0.02735324275691686 0.08894625845591426
0.0321388695942391 0.02794248088459549 0.08871060169363829
0.03223346183411757 0.028523813059281002 0.0885704972847597
0.03232456638214461 0.02909537690834413 0.0885484575485175
0.0324126392792031 0.029658449839040688 0.08862904591724707
0.03252165130420359 0.030280169068980272 0.08800080696089259
0.03259174454754475 0.03079288453029926 0.0886900384831854
0.03268083375792155 0.03135880388675029 0.0887362221890384
0.03276890661273796 0.03192187662202977 0.08881681124153412
0.0328490435566824 0.032462722456033384 0.08916604516183588
0.032936069466405885 0.03302286295307306 0.08928207563401301
0.03301931851935056 0.03357242519946012 0.08952595922412816
0.03310634444493854 0.034132565772976936 0.08964198946937402
0.033189593479857296 0.03468212790478934 0.08988587304947712
0.03327661936254188 0.035242268229967025 0.09000190350663613
0.03336254886723748 0.03579933782021234 0.09015504834025621
0.0334484784011334 0.03635640762041716 0.09030819342583774
0.03352706040945287 0.036892898474600644 0.09071006553170236
0.033616149589894756 0.03745881781129764 0.0907562508711286
0.033704222435404184 0.03802189034126502 0.09083683850399796
0.0337812775657941 0.038554104716494245 0.0912903981873747
0.0339451984770959 0.039646011132110213 0.09186540930272018
0.03403428758543407 0.04021193001050858 0.09191159460209813
0.03124256078780687 0.026162618806845495 0.09064415499055974
0.03142546617952272 0.027307696945869445 0.09057650713236617
0.031520565065823576 0.027890448263780936 0.0904192530668489
0.03161566395033032 0.02847319944849219 0.09026199782162096
0.03172666970229905 0.0291005025797687 0.08956626636359272
0.03180866246642836 0.02964654627714713 0.08985267822087863
0.03189268013729288 0.030198261332313778 0.09007054332547079
0.03198473728787995 0.030772493294246247 0.09001625689111141
0.0320504988279038 0.031273076523044216 0.09085212439958176
0.03215586579697278 0.031884586605017855 0.09034727642818088
0.03224171143768234 0.032441421354113924 0.0905032606453937
0.032333768583579274 0.03301565333495409 0.09044897467991497
0.03241291153072852 0.033553715202248494 0.09083185737235921
0.03250919876335801 0.034139794839972884 0.09063437563586442
0.03259911253960813 0.03470802357602877 0.09065264567640761
0.03268800999821711 0.03527340581013515 0.09070531990594069
0.032767152930766194 0.0358114675724498 0.09108820247240422
0.03285403508002818 0.03637120545730347 0.09120909980613862
0.03293988073041203 0.03692804031660891 0.09136508450021044
0.033025726421905155 0.03748487529105324 0.09152106780265842
0.03085707835802709 0.02739546829139352 0.09059541890756465
0.03096131929673665 0.028003824665195663 0.09012868984516159
