ply
format ascii 1.0
element vertex 819
property float x
property float y
property float z
end_header
0.05427445597624599 0.02513685115773388 0.09028665230941366
0.05438526592666126 0.025667546847831468 0.09036465037902577
0.05460296439446956 0.02677497796882545 0.09002176912595698
0.053630335226021564 0.02468900055456122 0.09051427957045989
0.053739458267581225 0.025239500853302906 0.09037767692747317
0.053845058089067435 0.025831366787908074 0.08979284815128259
0.05395812820953615 0.026335526636631752 0.09015838255788632
0.05407012225343616 0.02685231992232912 0.09038702267644276
0.052529738486376445 0.022273757975996445 0.08874613742623692
0.052751044289274636 0.02333883706672263 0.08886217437355051
0.05286159700205205 0.02387255289114279 0.08890744695509166
0.05297075683974766 0.024422621179724303 0.08877552547586563
0.053081831780110514 0.024950205718426724 0.0888872352738299
0.05319543028348464 0.025448161234265045 0.0893199959380457
0.053310589328874 0.025927795768952606 0.08995128106504853
0.05342594993340572 0.026405063870450437 0.09060820832344352
0.05353510979737214 0.026955132240483903 0.09047628720226873
0.05111157598508137 0.018091919870975394 0.08863495235128088
0.05167350683476968 0.020652864518387763 0.0900276030390041
0.05189577801071422 0.021706609512378502 0.09026645367865545
0.05200585693114324 0.022245886402316076 0.09025146285748534
0.05210191796373462 0.02294974381677689 0.08845311989728173
0.05221391203208308 0.023466537205321856 0.08868176014205106
0.0523239910466612 0.02400581454944112 0.08866676936205592
0.05243379252739909 0.02454834953849831 0.08861647700173225
0.05254464796295192 0.025078511204001747 0.08870026164029093
0.052654991921314266 0.02561467715893717 0.08871898268397962
0.05276734075350763 0.02612730539313942 0.08899275559312671
0.05288825017488464 0.02653942683746677 0.09035559719982138
0.05025210243715011 0.0165090867892365 0.08950399943191024
0.05046527864575544 0.017669612514280984 0.08858579837548583
0.0505818693107697 0.018132438919325217 0.08939921256940694
0.050685590660494495 0.01874635931333276 0.0885754066912081
0.05080053726667056 0.019228484901094196 0.08917968940895173
0.05091609139830297 0.019703480870706353 0.08986123697127307
0.05102249632102973 0.020285894402039244 0.08937883228536779
0.051133048946947486 0.02081960968669514 0.08942410575308732
0.051243601663369616 0.02135332546832401 0.08946937879830515
0.051344487049072594 0.022000541893003826 0.08828478471064416
0.051459208103242206 0.022485317165070642 0.08886036101496497
0.05156471833944514 0.02307823488817413 0.08826413529801659
0.05167714139991325 0.023589991634976035 0.08854735144626429
0.05178594652448322 0.024144225262199823 0.08837029778692466
0.05189649918836373 0.024677940880924783 0.08841557011604001
0.052007574128726586 0.025205525419627204 0.08852727991400428
0.052117872610151966 0.025742225302876377 0.0885402154320189
0.052231471160600645 0.02624018104580554 0.0889729761168222
0.05235329084783766 0.026641615386995665 0.09045162074049413
0.049824395741674556 0.017183746747623917 0.08922534681367679
0.04993419726401992 0.01772628202795888 0.08917505377842559
0.050040192176305065 0.018313509343999536 0.08864048801714937
0.05015104760274611 0.018843671116481196 0.08872427149651638
0.05025860281894023 0.01941257634801034 0.08838822974733225
0.05036945825449306 0.01994273801351378 0.08847201438589093
0.05048145232101916 0.02045953142345439 0.08870065439882194
0.050593801062708145 0.020972159160683665 0.08897442773047073
0.05070253196447044 0.02152726421112086 0.0887879315275455
0.050807316738287644 0.022128699326427137 0.08809941328743194
0.050917917875367966 0.02266184505902084 0.08815085829165492
0.05102771940682512 0.02320438023237758 0.08810056641559541
0.05113832064169925 0.02373752637636168 0.08815201192467002
0.05124866464531379 0.024273692579783596 0.08817073275710786
0.05135926583858044 0.024806838432489917 0.08822217894111002
0.05147037716413758 0.02533399578575005 0.0883385176232902
0.051582371187233855 0.02585078892580853 0.0885671580793104
0.05169374484665222 0.026374866311825656 0.08871687058546807
0.05181094256453685 0.026830565528077815 0.08960751337483655
0.04907162005136215 0.016179887954308927 0.0896492560617159
0.04929428457866518 0.017229014751878026 0.08993814842658991
0.0493947730038302 0.017880891747053828 0.08870305345788186
0.04950181127422689 0.018455869371837116 0.0883012225627736
0.04961236398882666 0.01898958517486163 0.0883464953761531
0.04972240642991231 0.019529288796059807 0.0883268756295921
0.049832186732724354 0.02007207320728178 0.08827388306875689
0.04994460978590303 0.020583830039666264 0.08855709828965125
0.050054908211142085 0.02112052980280282 0.08857003262788672
0.05016100768666863 0.021706529479541273 0.08804876928665163
0.05027078798948067 0.02224931389076325 0.08799577672581642
0.050380568194498904 0.022792097890594828 0.08794278366012959
0.05049061081477095 0.0233318025271346 0.08792316283672684
0.05060196324736656 0.023856129129621314 0.08807017488994716
0.050712515961966326 0.024389844932645833 0.08811544770332666
0.05082332586075115 0.02492054044914169 0.08819344517275544
0.050934135812077584 0.025451236128541457 0.08827144335828672
0.051046166619464484 0.025967597397511456 0.08850476347111841
0.051160103876964166 0.026461576503123446 0.08898061409272123
0.05127528677428257 0.026940931000915217 0.08961493363578438
0.04864441295528681 0.01684867177502992 0.08943427798278812
0.048750845760997905 0.017430757942300923 0.0889554205393423
0.04885428075271962 0.018048040362335684 0.0880951845123829
0.0489653920764544 0.018575197736991463 0.08821152296272476
0.04907412298186141 0.019130302744637367 0.0880250272234762
0.04918446679900012 0.019666468018300264 0.08804374820540244
0.04929506803751897 0.020199614119493076 0.08809519417815372
0.049405669268748384 0.02073276030626846 0.08814663922355168
0.04951801800861501 0.021245388064893383 0.08842041232336212
0.04962401292090016 0.021832615380934034 0.08788584656208591
0.04973409193365591 0.02237189274644894 0.08787085555025242
0.049840766325387885 0.02295114097983458 0.08742274434982844
0.04995419708407162 0.023451066705354816 0.08783415875168589
0.050064276096827384 0.02399034407086972 0.0878191677398524
0.05017962875587943 0.02446770545737849 0.08847508418310257
0.050287570562475806 0.02503207420976286 0.08818820613320613
0.05039817179734993 0.025565220353746962 0.08823965164228074
0.0505092830812996 0.026092377415729315 0.08835599099938846
0.05062760903907376 0.026534830374384782 0.08939016722093758
0.04799688784344843 0.016440779252557165 0.08922892814449775
0.048108240275132864 0.016965105865741705 0.08937594008179889
0.04821085387100245 0.01759203199820592 0.08841120698207318
0.04832445242145113 0.018089987741135086 0.08884396766687647
0.048427944026537835 0.018706605484071274 0.08799093392966224
0.04853824254592598 0.019243305701389515 0.08800386830907268
0.04864668782167767 0.019801761064689984 0.08778105895339662
0.04875804024880621 0.020326087731363632 0.08792807031110195
0.04886833876819435 0.020862787948681873 0.08794100469051239
0.04897914862354934 0.0213934831952956 0.08801900260303036
0.04908618689759075 0.021968460777287598 0.08761717217159877
0.04919699684527246 0.02249915649947866 0.08769516989345338
0.04930703937321777 0.0230388606604411 0.08767554926071401
0.04941946243550824 0.02355061738584736 0.08795876564080005
0.04952924272556378 0.024093401946838844 0.08790577145709648
0.049638402612156296 0.02464347044111556 0.08777385023029627
0.049751614664529445 0.025145963138766825 0.08815744702514855
0.049865551918384404 0.025639942287170106 0.0886332971830747
0.04997327506027766 0.026206878302963286 0.08831860085124553
0.05008799622135287 0.026691653879442275 0.08889417881960966
0.0502069244683543 0.027127035577520945 0.09000497761119595
0.04746568216601271 0.016498897555909126 0.0898024868413948
0.04757068777587226 0.017097739914895924 0.08914206311859126
0.04767609942252241 0.017691815142378244 0.08853329494766704
0.04778644342613694 0.01822798134580016 0.0885520157801049
0.047892236774723845 0.018817575148519654 0.08799180730784069
0.048001359873381014 0.019368075556676138 0.0878552059605523
0.04811196092906875 0.01990122068531864 0.08790665254646865
0.04822108402408121 0.02045172113626641 0.08777005073550359
0.04832981491673172 0.02100682629368183 0.08758355337338668
0.04843989384262781 0.02154610311943247 0.08756856324773157
0.04855023784624235 0.022082269322854384 0.08758728408016943
0.04866031686082046 0.02262154666697365 0.08757229330017428
0.04877142809951794 0.023148703480469515 0.08768863286853285
0.048881507114096064 0.023687980824588773 0.0876736420885377
0.04899350118426688 0.024204774191738096 0.08790228256514537
0.049103845189703774 0.02474094037376437 0.08792100362942155
0.049216193978467306 0.025253568338084488 0.08819477698165784
0.049328188048638116 0.025770361705233807 0.08842341745826551
0.04943956165187014 0.02629443897113832 0.08857312878464402
0.04955491431092219 0.026771800357647084 0.08922904522789418
0.049672112029717996 0.027227499563201422 0.09011968813318184
0.04681434584083851 0.016135751114540596 0.08911227865344275
0.04692716437753422 0.016642864717599133 0.08944580685041287
0.04703186136929112 0.017245330450413286 0.08874612107357494
0.04713958455825892 0.017812266693297312 0.08843142476233326
0.047247668404576504 0.018374968588323624 0.08816261088064785
0.0473553915935443 0.018941904831207647 0.08784791456940616
0.04746594431361115 0.01947562057004523 0.08789318807830067
0.04757438958389576 0.02003407599753263 0.08767037802710961
0.04768468810692862 0.02057077617205958 0.08768331287019672
0.04779446840609595 0.021113560626072843 0.08763031984568484
0.0479045109322189 0.021653264808430932 0.08761069898110713
0.048012234130298495 0.02222020094433673 0.08729600382905714
0.04812544622974618 0.022722693869078842 0.0876796006444969
0.048231851069258 0.02330510681785618 0.08719719730844665
0.04834578831400118 0.023799086073237684 0.08767304630718113
0.04845781918121913 0.024315447419529013 0.08790636806346866
0.04856837189399654 0.024849163243949177 0.08795164064500982
0.04867944678728486 0.025376747555560752 0.0880633504223866
0.04879226532306938 0.02588386116931711 0.08839687850343754
0.048905083809957 0.026390974577378264 0.08873040633206267
0.04902082612189254 0.02686376118992633 0.08943589398463266
0.049132260254429565 0.027387128582869392 0.08959329981413107
0.049248629411104874 0.027852555247537197 0.09037853694600083
0.046278153315649245 0.016252423459308895 0.08905135806118429
0.04639122343611797 0.016756583308032577 0.089416892467788
0.046496823254870645 0.017348449274731215 0.08883206334383993
0.04660223489787608 0.017942524545004827 0.08822329470923906
0.04671334622525558 0.01846968187686931 0.08833963362325759
0.046818946046741784 0.01906154781147448 0.087754804847067
0.0469290250613199 0.019600825155593738 0.08773981406707186
0.04703910388759983 0.02014010159134963 0.08772482320472677
0.04714822698625701 0.02069060199950611 0.08758822185743839
0.04725802850860237 0.021233137279841073 0.08753792882218718
0.04736888385182847 0.021763298469767184 0.08762171365140924
0.047478006952308 0.022313798856528018 0.08748511253595918
0.04758860818171505 0.022846945064699056 0.08753655734951879
0.047699981752451395 0.023371021932347563 0.0876862705100165
0.04781197581715514 0.02388781536368382 0.08791491029110918
0.04792334947292878 0.024411892792492236 0.08806462233359016
0.048034723125057716 0.024935970264091948 0.0882143339123945
0.048143453983390185 0.02549107504464701 0.08802783815255846
0.048261994339728026 0.025931010827097943 0.08908928992249579
0.0483725955238829 0.026464156786782485 0.08914073494730625
0.048487948181112586 0.026941518194686896 0.08979665115871809
0.04563374160630587 0.015807977601119686 0.0892420918483812
0.0457429014965431 0.01635804605260511 0.08911017108525764
0.04584961929986722 0.016936786165697666 0.08866757072325455
0.045959661927428695 0.017476490716654865 0.08864795082720515
0.04606517216363163 0.018069408439758353 0.08805172511025677
0.04617433204840179 0.01861947695543071 0.08791980365161821
0.04628349193499429 0.01916954544970742 0.08778788242481798
0.04639379045256008 0.019706245688421307 0.0878008165723901
0.04650295015449913 0.02025631323154336 0.08766889572691659
0.04661273045366646 0.02079909768555662 0.08761590270240473
0.046719448256990585 0.021377837798649175 0.08717330234040163
0.046834169320271984 0.021862612963737767 0.08774887980391413
0.04694421195330053 0.022402317450508028 0.08772926060337974
0.04705265741006096 0.022960773807754447 0.08750645040270029
0.04716468817401803 0.023477134806842315 0.08773977095862116
0.047274986691583816 0.024013835045556202 0.08775270510619328
0.04738579664291026 0.02454453072495597 0.08783070329172454
0.04749634936479946 0.02507824644239791 0.08787597703245739
0.04760994786999594 0.025576201936840584 0.08830873792851154
0.04772676097563853 0.02603641674670017 0.08915045077339749
0.0478395794607038 0.026543530176156974 0.08948397837018426
0.04794508969690673 0.027136447899260462 0.08888775265323588
0.048059308760159895 0.02762711842516572 0.089399454291436
0.04520599638166278 0.01648307939525634 0.08895865364762982
0.0453139382353337 0.017047448374731558 0.08867177561832085
0.04542504957000264 0.01757460562101347 0.08878811545969272
0.04553005518077336 0.01817344796930244 0.08812769185280833
0.04563917827943054 0.01872394837745892 0.08799109050551994
0.04574712013310145 0.019288317356934138 0.08770421247621098
0.04585692166091389 0.019830852573082168 0.08765392013647477
0.045966044567628164 0.02038135211566657 0.08751731824315977
0.04607875306398634 0.020889757662637475 0.08783684722997001
0.04618669492130197 0.021454126599321402 0.0875499696643377
0.04629703883076742 0.02199029234856163 0.08756869045560058
0.04640616193124695 0.022540792735322467 0.08743208934015052
0.04651650593486148 0.023076958938744382 0.08745081017258836
0.04663062152161195 0.023568842785392376 0.08794935958081411
0.04673974462026913 0.02411934319354886 0.08781275823352572
0.04685111827239806 0.024643420665148564 0.08796246981233004
0.04696311234256888 0.02516021403229789 0.08819111028893772
0.04707754843799939 0.025648335681914394 0.08873042848913078
0.04719061855937928 0.02615249551994025 0.08909596301165366
0.04730850598620905 0.026600096332463415 0.09007435577916406
0.04742414970768063 0.02707404046008814 0.09076730086183907
0.04455938795333727 0.016064427052626323 0.08886989425912153
0.04467019789555191 0.01659512283900431 0.08894789128546114
0.0447786433632465 0.017153579067876866 0.0887250824758117
0.04488568163728791 0.017728556649868867 0.08832325204438013
0.04499376547084898 0.01829125869466469 0.08805443653982635
0.04510221092943178 0.018849715030515465 0.08783162657098524
0.04521199123224382 0.01939249944173744 0.08777863401015003
0.045321771524121715 0.01993528398133328 0.08772564005828482
0.045431551638635576 0.020478067484191884 0.08767264741509967
0.04554159426619705 0.021017772035149075 0.08765302751905027
0.04565163688829145 0.021557476650293204 0.08763340692748586
0.04576141709513205 0.022100260628729135 0.08758041409363736
0.045872492035494906 0.022627845167431555 0.08769212389160162
0.04598697150455481 0.023115458362685914 0.08823695406881976
0.046092772706294645 0.023704958404817143 0.08767775660236375
0.04620358265762108 0.02423565408421691 0.08775575478789503
0.046314657594339226 0.02476323866571062 0.08786746412218262
0.046425732534702085 0.025290823204413043 0.08797917392014688
0.04653654243713162 0.02582151867811761 0.08805717185325235
0.04665597615513923 0.02625096582343165 0.08923227610776252
0.04677540983245055 0.026680412666770088 0.09040738115311939
0.0468854524609232 0.02722011720702946 0.09038776137298915
0.04413467018971016 0.01670398451895324 0.08897160630385242
0.04424222559420246 0.01727289065884576 0.08863556463701824
0.0443501674515181 0.01783725959552969 0.08834868707138595
0.04446024646609621 0.018376536939648948 0.0883336962913908
0.04456780186876616 0.01894544310093711 0.0879976543927183
0.04467574372243707 0.019509812080412324 0.08771077636340932
0.04478773779260789 0.020026605447561647 0.08793941684001699
0.04489686070296688 0.020577104947354756 0.08780281541037867
0.045005983797979335 0.021127605398302527 0.0876662135994136
0.045115106898458865 0.021678105785063365 0.08752961248396354
0.04522518581888789 0.022217382675000938 0.08751462166279343
0.04533717988723635 0.022734176063545906 0.08774326190756278
0.045446302987715875 0.023284676450306747 0.08760666079211273
0.045557414219123925 0.023811833349385192 0.08772299943311794
0.04566653731231403 0.02436233382172861 0.08758639739031454
0.04578188997683315 0.02483969514405044 0.08824231452907971
0.04589459846043482 0.025348100840790862 0.0885618418930216
0.046007306909718444 0.025856506160670926 0.08888137085924436
0.046124264078206065 0.02631502958062922 0.08974141122010353
0.04622904880677108 0.026916464447449003 0.08905289319124081
0.04359884847036069 0.016816300735775627 0.08895788823473849
0.04370556628279661 0.017395040741889963 0.08851528903192708
0.0438140117413794 0.01795349707774074 0.08829247906308596
0.04392209558769698 0.018516198972767052 0.08802366518140055
0.04403187587957488 0.019058983512362893 0.08797067122953532
0.044141918510781065 0.019598688020528797 0.0879510517971626
0.04425072362988396 0.020152921711939515 0.08777399744230796
0.04436076606914725 0.020692625354533336 0.08775437746390863
0.04446957119189487 0.021246859003152766 0.08757732357273065
0.04458038113957659 0.02177755472534382 0.08765532129458527
0.0446904236675219 0.022317258886306264 0.0876357006618459
0.0448009763894111 0.0228509746037482 0.08768097440257873
0.04491075668311135 0.0233937591219484 0.08762798068255184
0.04502278745435785 0.02391012003545369 0.08786130216582608
0.04513256774805811 0.024452904553653884 0.08780830844579919
0.0452445986134537 0.02496926592134086 0.08804162997024838
0.04535702166663238 0.025481022753725345 0.08832484519114274
0.04547095886430101 0.025975001782016005 0.08880069416928973
0.04558939157214583 0.026416201426595627 0.08984845101688314
0.04306935032662085 0.016854371501896875 0.08974867748181094
0.04317107056173185 0.017491786260800165 0.08867029201343156
0.04327862596622415 0.01806069240069268 0.08833425034659738
0.043387356860697016 0.018615797536712456 0.0881477532163188
0.043496479959354184 0.01916629794486894 0.08801115186903041
0.04360560305801135 0.01971679835302542 0.08787455052174202
0.04371472615849088 0.020267298739786256 0.08773794940629197
0.04382452749253806 0.02080983311175785 0.08768765628869082
0.043934329016705784 0.02135236837069717 0.08763736348527795
0.04404467302578739 0.02188853450993215 0.0876560850132308
0.044153403831578245 0.022443639127583306 0.08746958853729227
0.04426425926895343 0.0229738007716911 0.08755337340768929
0.04437563291926 0.023497878264686453 0.08770308475465528
0.0444864882624861 0.02402803945461256 0.08778686958387732
0.044599196749732485 0.02453644510856169 0.08810639741149588
0.04471190524609066 0.025044850655532597 0.08842592639830613
0.04482956759594491 0.025495094795418092 0.08937567915348947
0.044942637664783194 0.025999254470540037 0.08974121295990989
0.04242135308483207 0.016452023402042354 0.08948324928592472
0.04253051297233575 0.017002091885621243 0.08935132817504367
0.04263547065509839 0.0176014969393661 0.08868480721992335
0.042741875586936935 0.018183910363720773 0.08820240369320974
0.04285103547170709 0.01873397887939313 0.08807048223457117
0.04296081576722971 0.019276763376197683 0.08801748874638263
0.04306997565199985 0.01982683189187004 0.08788556728774408
0.04317769885007945 0.02039376802777584 0.08757087213569408
0.04328905109255452 0.020918093743294827 0.08771788387472612
0.043400126029272665 0.021445678324788536 0.0878295932090137
0.04350893115202028 0.021999911973407966 0.08765253931783575
0.04361922958637112 0.022536611629566296 0.0876654748152629
0.04372900987642666 0.023079396190557783 0.08761248063155934
0.04384104073817753 0.02359575760103605 0.08784580169233186
0.04395133916888365 0.02413245729998567 0.08785873672608234
0.04406241411106887 0.024660041817292446 0.08797044675588495
0.04417444496735267 0.025176403291957646 0.08820376712114246
0.04428804351780134 0.025674359034886813 0.08863652780594575
0.04440576243394606 0.026123938270582885 0.08959348283028679
0.04452571062085111 0.026547345222136542 0.09083403724950469
0.041995634705582624 0.017103328735477773 0.08945766411673858
0.04210142805781424 0.017692922495405983 0.08889745610815104
0.04220810254005059 0.0182721712257646 0.08844934448522535
0.04231604439372151 0.018836540205239817 0.08816246645591638
0.042425167492378686 0.019387040613396297 0.08802586510862799
0.042536278819758175 0.019914197945260784 0.08814220402264651
0.04264349552631126 0.02048708061549225 0.08776307357820448
0.04275261842755846 0.021037580222263583 0.08762647098937447
0.04286496725975182 0.021550208456465835 0.08790024389852155
0.04297164174563289 0.022129457144033155 0.08745213273927252
0.04308198565509833 0.022665622893273382 0.0874708535305354
0.04319642180671518 0.023153744663002507 0.08801017291050761
0.043305544898082915 0.02370424515674157 0.08787357063586587
0.043418253300292 0.02421265024953079 0.08819309958150114
0.04352885453881084 0.024745796350723603 0.08824454555425243
0.04364120337464892 0.02525842454213456 0.08851831892707618
0.04375840108888883 0.02571412380117801 0.08940896125276801
0.043876941399974494 0.026154059335142456 0.0904704132339562
0.041349599646067874 0.016677944018867893 0.08944185532830905
0.04146163050235167 0.017194305493533093 0.08967517569356656
0.0415636139761245 0.01782862966225578 0.08863027915689847
0.04167001890614069 0.018411043108006096 0.08814787539834652
0.04178057161891811 0.018944758932426257 0.08819314797988767
0.041889731503688264 0.019494827448098613 0.08806122652124912
0.041998891393925486 0.020044895899584032 0.08792930575812556
0.04210944411399233 0.020578611638421614 0.08797457926702007
0.04221440161027913 0.021178015762407455 0.08730805846138814
0.04232888108480612 0.021665628893474877 0.0878528893341213
0.04243943379758353 0.022199344717895034 0.08789816191566245
0.04254751754246259 0.02276204624432224 0.08762934706544873
0.042659548396924034 0.023278407740383082 0.0878626671988679
0.04276727159500362 0.023845343876288887 0.08754797204681791
0.042880870051303206 0.024343299165036365 0.08798073269044623
0.04299168000080728 0.024873994865831778 0.08805873064413917
0.04310640115823777 0.025358770485102055 0.08863430814882664
0.04322366334020448 0.025813712851818226 0.08953315198749164
0.043341152737683485 0.026265986783383002 0.09046090790077095
0.043452227676223976 0.02679357134348107 0.09057261746689688
0.04092356496534641 0.017332964002369586 0.08937601884842951
0.04103023944758276 0.0179122127327282 0.08892790722550381
0.04113458029688114 0.018518859805690298 0.08818291339858698
0.041245181528110554 0.019052005992465686 0.08823435844398493
0.04135552553719216 0.019588172131700665 0.08825307997193778
0.041465327059537524 0.02013070741203563 0.08820278693668658
0.04157254377155768 0.02070359001808016 0.08782365718775956
0.041680879000593585 0.02126333740017776 0.08758684781048946
0.041791734437968776 0.021793499044285552 0.08767063268088647
0.04190258987169925 0.022323660731184636 0.08775441708760683
0.04201458384407626 0.02284045368694356 0.08798305705936287
0.04212331474219384 0.02339555878017205 0.08779656039276096
0.04223602323855201 0.02390396432714296 0.08811608937957119
0.04234687857631104 0.024434125581256 0.08819987351327824
0.042460994260855325 0.02492600983929439 0.08869842342635562
0.0425774512194835 0.02539040604279103 0.08949482764156681
0.04269533869065428 0.025838007114498508 0.09047322008190721
0.04280876940955291 0.02633793252734532 0.09088463539053053
0.04027610116766351 0.016924352516687932 0.08917845935572545
0.04038588147229791 0.01746713690651426 0.08912546702672859
0.040491682768186835 0.018056637402827178 0.08856626960144753
0.04059976660174791 0.018619339447623007 0.08829745409689377
0.04070980923477646 0.019159043934393268 0.08827783489635938
0.04081958953394379 0.01970182838840653 0.08822484187184751
0.04092874941871394 0.020251896904078887 0.08809292041320894
0.041037194877296734 0.02081035323992966 0.08787011044436784
0.04114599981174617 0.021364585980185716 0.08769305647083993
0.04125680976307261 0.021895281659585483 0.0877710546563712
0.04136761970893198 0.022425977403172183 0.08784905214638747
0.04147791813234867 0.022962677187704384 0.0878619862527846
0.04158872808367511 0.02349337286710415 0.08793998443831588
0.04169953803317918 0.024024068567899563 0.08801798239200882
0.0418037347273058 0.024632406555185622 0.08725466123978215
0.041923168450780486 0.025061853636312727 0.08842976618980734
0.042041357416457585 0.025505914969768017 0.0894465144281268
0.042159076381499204 0.02595549441115929 0.09040346970489366
0.04226716017071927 0.026518196196770805 0.0901346545275099
0.03985009493436537 0.017579038755846287 0.08911623920555731
0.03995803678803629 0.018143407735321505 0.08882936117624833
0.04006282156185351 0.01874484285062778 0.08814084293613478
0.04017757058495593 0.01922929130909479 0.08871996548081751
0.040284505482110815 0.01980548260182428 0.08830498355610153
0.04039685431430417 0.02031811083602653 0.08857875646524861
0.040502647664713426 0.020907704617350382 0.08801854822482275
0.040611378379999896 0.021462808738028562 0.0878320521713859
0.040722233806440945 0.021992970510510225 0.08791583565075291
0.040833345141109874 0.02252012775679213 0.08803217549212476
0.04094445637069557 0.02304728467726622 0.08814851390129165
0.04105480038706661 0.023583450730918623 0.08816723635659784
0.04116823114392799 0.024083376477834505 0.08857865052661697
0.04127960470190782 0.024607453495252524 0.08872836206424632
0.04139495736095987 0.02508481488176129 0.08938427850749649
0.04151284484033126 0.025532415857188365 0.0903626719911094
0.04162696052305319 0.026024300136622405 0.09086122167234843
0.03920478941425112 0.017145088122691794 0.08919324886708392
0.03931287325327927 0.017707790103300685 0.08892443405804516
0.03942059645135886 0.01827472623920649 0.08860973890599516
0.03952868028491994 0.018837428284002318 0.0883409234014414
0.039638978804308084 0.01937412850132056 0.08835385778085184
0.03974902143733663 0.019913832988090817 0.08833423858031744
0.03985746689591942 0.02047228932394159 0.08811142861147632
0.03996724718597496 0.021015073884933077 0.08805843442777277
0.04007927786125001 0.021531434365652323 0.08829175563803368
0.04018700105204018 0.022098370587140703 0.08797705955863033
0.040297811001544254 0.022629066287936116 0.08805505751232329
0.04041102300866522 0.02313155873710089 0.0884386545184264
0.04051874620674482 0.023698494873006692 0.08812395936637642
0.04063156473888462 0.024205608529554338 0.08845748698375068
0.04074672369285843 0.024685242577966747 0.08908877241733607
0.040850215299767505 0.02530186029950729 0.08823573891196017
0.04094976004796605 0.025964816665570437 0.08688059040222322
0.04109104728752236 0.026137689496757276 0.09083587552270736
0.03877828943419528 0.017805572579605935 0.08906820029297868
0.038885844835042864 0.01837447876228974 0.08873215816246785
0.0389937866923585 0.018938847698973672 0.08844528059683554
0.039102909780081525 0.019489348235504023 0.08830867785851713
0.03921490384842999 0.020006141624048988 0.08853731810328648
0.03932183874558487 0.020582332916778478 0.08812233617857049
0.039431640269752585 0.021124868175717796 0.08807204337515763
0.03954275141612334 0.021652024513636334 0.08818838313417954
0.039653095419737876 0.022188190717058246 0.08820710396661739
0.03976317443431599 0.022727468061177508 0.08819211318662225
0.039876605097028284 0.0232273933539117 0.08860352731546639
0.03998694911522168 0.023763559386168455 0.08862225000261093
0.040098060437134105 0.02429071678221988 0.08873858822111444
0.04021149110166875 0.02479064205355843 0.08915000258179692
0.04031469401066744 0.025410649273134002 0.08826024124723711
0.04044531783790828 0.025708717382116244 0.0908589388347053
0.03813317364783406 0.01736939303572883 0.089169362179883
0.038242333541715995 0.01791946144442296 0.08903744188043612
0.03834937180664561 0.01849443913339319 0.08863561028981286
0.03845853170052756 0.019044507542087325 0.08850368999036598
0.03856556996727953 0.0196194852096619 0.08810185863158106
0.03867799302410293 0.020131241999255096 0.08838507431615208
0.03878715291434015 0.02068131045074052 0.08825315355302853
0.03889693321350748 0.02122409490475378 0.08820016052851666
0.03900774296560159 0.021754789804164044 0.08827815724066797
0.03911977383099718 0.02227115117185102 0.08851147876511717
0.03922785766820297 0.022833853173855556 0.08824266372424007
0.039339210001182415 0.02335817938634752 0.08838967504077042
0.039452028538789305 0.02386529297870823 0.08872320335365969
0.03956283847553688 0.024395988829273157 0.08880119968448429
0.03967677563888747 0.024889967480703462 0.08927705026491214
0.03979381247903235 0.025347555504470657 0.09014722636598145
0.03990488741939521 0.025875140043173078 0.09025893616394572
0.03770730887243066 0.018022419783931404 0.08912512363983915
0.03781525072974629 0.018586788720615335 0.08883824607420686
0.03792319258341721 0.019151157700090557 0.08855136804489788
0.0380359010706636 0.019659563354039684 0.08887089587251644
0.038144236489820044 0.02021931162310501 0.08863408680943462
0.03825431550439815 0.02075858896722427 0.08861909602943947
0.038361870908890455 0.021327495107116783 0.0882830543626053
0.038471949738815105 0.021866771500081383 0.08826806396393688
0.038583061069839324 0.02239392878915458 0.08838440334163208
0.038691396490818125 0.02295367703682426 0.08814759451038859
0.038805512077568605 0.023445560883472254 0.08864614391861433
0.0389158560830055 0.023981727065498525 0.0886648649828905
0.03902997176754978 0.024473611323536915 0.08916341489596788
0.039146428633851225 0.024938007051456226 0.08995981930184246
0.037063180270915354 0.017574650058847317 0.0893518740921244
0.03717126410903232 0.01813735205015403 0.08908305916716647
0.03727898730711191 0.018704288186059834 0.08876836401511648
0.03738876759898981 0.01924707272565568 0.08871537006325125
0.03749792748375997 0.019797141241328035 0.0885834486046127
0.03760708736853013 0.02034720975700039 0.08845152714597414
0.037716867671342164 0.02088999416822236 0.08839853458513894
0.037826027557934676 0.021440062662499076 0.08826661335833871
0.03793518725440665 0.02199013026980806 0.08813469181735022
0.03804363271298945 0.022548586605658835 0.0879118818485091
0.03815645124877398 0.02305570021941519 0.08824540992956004
0.03826752609498775 0.02358328430393592 0.08835711968634934
0.03838034463623935 0.024090397853505342 0.08869064846291529
0.03849394317939858 0.02458835368201709 0.08912340822036524
0.0386086642463247 0.025073128804314393 0.08969898614755441
0.03872547735834554 0.025533343539289224 0.09054069980387452
0.036741780040074286 0.018832871618533798 0.08857837809997501
0.036853153695847934 0.01935694904734222 0.08872809014245601
0.0369622767945051 0.019907449455498702 0.08859148879516762
0.03707235580908322 0.02044672679961796 0.08857649801517248
0.037182157333250934 0.02098926205855728 0.08852620521175962
0.0372904927560521 0.021549010284831315 0.08828939661235446
0.03739922346951621 0.02210411442690514 0.08810290032707929
0.037509567473130744 0.022640280630327053 0.08812162115951713
0.03762042290868358 0.02317044229583049 0.08820540579807581
0.0377354772903042 0.02365130409052332 0.08882338765242839
0.03784747135865266 0.024168097479068285 0.08905202789719772
0.037960902117336395 0.024668023204588524 0.08946344229905519
0.03807735898637138 0.025132418900414365 0.09025984705268726
0.03610006354677637 0.018356782200895882 0.08911199429459397
0.0362081473821598 0.018919484224296065 0.08884317902187853
0.036317307270574674 0.019469552697177137 0.08871125802691665
0.0364276057990746 0.020006252807517153 0.08872419356551878
0.03653790431664039 0.02054295304623104 0.08873712771309088
0.03664562750743054 0.02110988926771942 0.08842243163368754
0.036755407806597876 0.02165267372173268 0.08836943860917566
0.03686349145550548 0.022215374815373844 0.08810062348594862
0.03697430140683192 0.02274607049477361 0.0881786216714799
0.03708633226129337 0.023262431990834453 0.08841194180489907
0.037199930719415304 0.02376038725818629 0.08884470268036573
0.03731074066891939 0.024291082958981698 0.08892270063405867
0.03742568745792656 0.024773209519293446 0.08952698273863724
0.037538505901384356 0.02528032265747247 0.08986051101035156
0.037655096564576274 0.02574314908391235 0.09067392497243434
0.03567534550979561 0.018996342876569507 0.08921367156357446
0.035781778316417885 0.01957842903314269 0.0887348142360478
0.03589520907327926 0.02007835478005857 0.08914622840606691
0.036005288087857384 0.020617632124177828 0.08913123762607178
0.03611401898961967 0.021172737174615024 0.08894474142314654
0.03622045178713015 0.021754823438166426 0.08846588293642821
0.03633079560791358 0.022290988669038034 0.08848460438203111
0.03644350410427176 0.02279939421600894 0.08880413336884134
0.036554615426184184 0.02332655161206036 0.08892047158734485
0.03666660940220591 0.023843344525028 0.08914911202277757
0.03677641092455128 0.024385879805362963 0.08909881898752636
0.03689176358907039 0.024863241127684798 0.08975473612629155
0.037000098912255384 0.025422988963964083 0.08951792679019642
0.035141003295033606 0.019091286133347526 0.08938820344730913
0.03524804156907501 0.019666263715339527 0.08898637301587754
0.035358851507644944 0.020196959544508807 0.08906436957854047
0.035469926455297236 0.020724543997628648 0.08917608030385808
0.03558022497468537 0.02126124421494689 0.08918901468326852
0.035689384864922596 0.02181131266643231 0.08905709392014496
0.03579993738757947 0.022345027603884744 0.08910236618749785
0.035910490111291035 0.022878743299931035 0.08914764016006901
0.036020788630679174 0.023415443517249276 0.08916057453947945
0.03613108705591823 0.02395214328038583 0.08917350887771493
0.03624216199628108 0.024479727819088252 0.08928521867567919
0.03635246051566922 0.025016428036406496 0.08929815305508963
0.03646860876660155 0.0254844471060597 0.09005529575468733
0.03658355555651991 0.02596657365567362 0.09065957797518508
0.03471714847654381 0.019720717332729037 0.08959964039115666
0.03482382295878016 0.02029996606308765 0.08915152876823096
0.034938877437283404 0.020780828279868695 0.089769511011516
0.03504947867580224 0.021313974381061505 0.0898209569842673
0.03516085233157589 0.02183805180986992 0.08997066902674829
0.03526332692651486 0.02246660678301965 0.08898827625494533
0.03537978389789955 0.022931002836746775 0.0897846820930249
0.035488514792372416 0.02348610797276655 0.08959818496274632
0.035598316220568686 0.024028642798919832 0.08954789188632016
0.0357083952351468 0.02456792014303909 0.08953290110632502
0.03581976890003223 0.025091997464869287 0.08968261430799769
0.0359351214558234 0.02556935850417459 0.0903385295508812
0.036046495117975294 0.02609343585809825 0.09048824240479639
0.03615956522842105 0.02659759582449797 0.09085377553628926
0.03429147586307503 0.02037148534664102 0.08957987749402084
0.03440389891534253 0.020883242189723324 0.08986309259899602
0.03451470886575778 0.021413937879820915 0.08994109066860813
0.034625261589469346 0.021947653575867206 0.0899863646411793
0.034737684452527486 0.02245940952128396 0.09026957954788538
0.03484472272474653 0.023034387124671606 0.08986774888461546
0.034953882609516686 0.023584455640343963 0.0897358274259769
0.03506268763993757 0.024138688813386062 0.08955877372546231
0.03517324036364913 0.024672404509432352 0.08960404769803348
0.035283538883037265 0.025209104726750597 0.08961698207744392
0.03539596184206685 0.025720861104953394 0.0899001972571633
0.03550677178792622 0.026251556848540095 0.08997819474717958
0.03561707030731436 0.026788257065858335 0.08999112912659002
0.03572762303102592 0.02732197276190463 0.0900364030991612
0.03583869792431423 0.027849557073516207 0.09014811287653798
0.03595385696879241 0.02832919161890159 0.09077939788762165
0.03606363721450694 0.028871975920708764 0.09072640403108811
0.03650777224788353 0.030984247308653155 0.09115229266745134
0.036618324943644566 0.031517962869864254 0.0911975666277987
0.03672836754661493 0.03205766739275273 0.09117794602787062
0.036837527408758994 0.03260773578418184 0.09104602467485749
0.03695034591918389 0.03311484930578842 0.09137955251377634
0.03706237678549067 0.03363121066277758 0.09161287415414471
0.03728356743421789 0.034697640177537806 0.09171427325142703
0.03739437738281078 0.035228335889031036 0.09179227108920081
0.03772102709927406 0.036888284657184536 0.09129092890552822
0.03782911084233076 0.03745098620500738 0.09102211382347615
0.037938891141498086 0.03799377065902065 0.09096912079896428
0.03805282839079716 0.038487749860913044 0.0914449703772946
0.03827341630473065 0.0395612558674852 0.09146969022006661
0.03398324613291999 0.021475074177930976 0.09048194706126783
0.034094357457565956 0.022002231541888927 0.09059828562752885
0.03420443628384589 0.022541507977644815 0.09058329476518376
0.03431355938250306 0.023092008385801298 0.09044669341789537
0.034420776083589066 0.023664891120219696 0.09006756227793834
0.0345321496506807 0.024188968030659494 0.09021727497475937
0.03463908454510205 0.02476515935548245 0.08980229270228589
0.03474487789733366 0.02535475311541066 0.08924208469369836
0.034857947919097396 0.025858912563441763 0.08960761847953128
0.03496774944690983 0.026401447779589794 0.08955732613979508
0.03507687254192229 0.026951948230537565 0.08942072432883001
0.035187473776796416 0.027485094374521665 0.08947216983790464
0.035298847389140235 0.028009171533447952 0.08962188232347483
0.03540995871651973 0.028536328865312436 0.08973822123749335
0.035517900523116104 0.029100697617696812 0.08945134318759689
0.035636226477245556 0.02954315061914357 0.09048551894546934
0.03574344318015392 0.03011603333216633 0.09010638803735065
0.03585615165297482 0.030624438765591813 0.09042591701386715
0.03596308652112536 0.031200630008962813 0.09001093438334241
0.03607368773716076 0.0317337759111335 0.0900623810393849
0.036183489240382095 0.032276311099212814 0.09001208799577001
0.03629383322228172 0.03281247716769366 0.09003080904975246
0.03640468863429727 0.03334263871965167 0.09011459367801739
0.03651606229007092 0.033866716148460096 0.09026430572049839
0.036628411075189736 0.034379344155571506 0.09053807860905799
0.03673674644909399 0.03493909217615034 0.09030126975722702
0.03684586953681701 0.03548959271268069 0.09016466701890861
0.03696122215243923 0.03596695382930732 0.09082058390524797
0.03706721705925731 0.036554181209534915 0.09028601744845675
0.037177018587069746 0.03709671642568295 0.09023572510872056
0.03728812982758958 0.03762387321778316 0.09035206490891745
0.03740083832030305 0.03813227880754536 0.09067159343205103
0.03751354680754943 0.03864068446149449 0.09099112125966957
0.0376262553039076 0.0391490900084654 0.09131065024647982
0.03773711064622252 0.03967925120908933 0.09139443495978268
0.03784945947932706 0.04019187943259376 0.09166820798484894
0.03796252977807099 0.04069604030735686 0.09203374119869176
0.03366793593466166 0.022661789112253763 0.09048327117219596
0.0337782344540498 0.023198489329572004 0.0904962055516064
0.03388595765212939 0.023765425465477805 0.0901815103995564
0.03399511744275046 0.024315493526968476 0.09004958889974288
0.034103922566409255 0.024869727164890082 0.08987253512448408
0.03421272769280158 0.025423960770718224 0.0896954816969828
0.034320811437680634 0.02598666229714543 0.08942666684676906
0.03442853463576023 0.02655359843305123 0.08911197169471907
0.03453769452053039 0.027103666948723588 0.08898005023608051
0.03464649963963329 0.02765790064013431 0.08880299588122588
0.034756279895370785 0.02820068482426544 0.0887500032998032
0.03486708983758543 0.02873138061064343 0.0888280003261428
0.034978164727229026 0.029258964965046295 0.0889397096398429
0.03508871745094058 0.029792680661092585 0.08898498361241407
0.03519876007121263 0.030332385297632363 0.08896536278901133
0.035308802680703896 0.030872089670857198 0.0889457435781832
0.03541987759388477 0.03139967413880549 0.08905745290217705
0.03553269610171878 0.031906787617726654 0.08939098097100417
0.03564273871197858 0.03244649205503255 0.08937136129842944
0.035753037206007095 0.032983192180201015 0.0893842954357078
0.035863847133796256 0.033513887746055356 0.08946229361094533
0.035974922074159116 0.03404147228475778 0.0895740034089096
0.03608522054647271 0.03457817227498518 0.08958693776773256
0.03619629543976102 0.03510575658659676 0.08969864754510934
0.0363071053892651 0.03563645228739217 0.08977664549880228
0.03641591046129345 0.03619068575171204 0.08959959112336016
0.036528728998900334 0.03669779934407276 0.08993311943624945
0.0366395389447597 0.03722849508765946 0.09001111692626572
0.03675156971053913 0.037744856065351676 0.09024443771402493
0.036865168260987805 0.03824281180828085 0.09067719839882823
0.03697719911727161 0.03875917328294604 0.09091051876408573
0.03709079766772028 0.03925712902587521 0.09134327944888904
0.03720282842985499 0.039773490046358724 0.09157659977297157
0.037315251490323095 0.040285246793160624 0.09185981592121926
0.037427282536727446 0.040801609154793556 0.09209313660066507
0.03324383107731792 0.023294150666977792 0.09066295647710933
0.03335216649738554 0.023853898925345295 0.09042614752994668
0.0334608973068211 0.02440900350020516 0.09023965151768482
0.033569628200382784 0.02496410864692276 0.09005315427148708
0.03367875129995113 0.025514609044381423 0.08991655304011785
0.033784162846985114 0.026108683881868995 0.08930778413250368
0.033894241861563236 0.026647961225988254 0.08929279335250853
0.033999247475978676 0.027246803531485935 0.08863237020930081
0.03411267824195185 0.027746729171423592 0.08904378553851161
0.0342163426979753 0.02836131675408139 0.08821274767467313
0.03432467811713173 0.028921065023146713 0.08797593861159131
0.0344387937491344 0.029412949118281198 0.08847448780856618
0.03454913775639365 0.02994911527891182 0.0884932091046807
0.03466024908924023 0.030476272546589377 0.08860954871421423
0.03477085030057708 0.03100941857702805 0.08866099421299511
0.03488119428976614 0.03154558455992632 0.08867971619433089
0.03499862686703181 0.03199852591390527 0.08960024107827505
0.035104226667571625 0.032590391777650426 0.08901541206188247
0.03521482787890849 0.033123537808089104 0.08906685756066335
0.03532593918639543 0.03365069498361688 0.0891831969280648
0.035437312842169076 0.0341747724124253 0.0893329089705458
0.035547914033613376 0.034707918286527265 0.0893843549227096
0.035657993001116946 0.035247195403555684 0.08936936412212698
0.03576936665689059 0.0357712728323641 0.08951907616460797
0.03588022204536888 0.03630143427077669 0.08960286078257917
0.03599329215399227 0.03680559425857207 0.08996839368223372
0.03610466581705535 0.037329671601797905 0.09011810665206806
0.03621701454598783 0.03784229948879669 0.0903918783608485
0.03633008466736773 0.03834645932682255 0.09075741288337139
0.0364427931637259 0.03885486487379346 0.09107694187018162
0.036555141995919256 0.039367493107995706 0.0913507147793287
0.0366685726604539 0.03986741837933425 0.09176212914001118
0.03270856784296299 0.02339990728259247 0.09072031726584619
0.03281772772773315 0.023949975798264828 0.09058839580720764
0.03292750793548492 0.024492759766002938 0.0905354030892783
0.03303454620770397 0.025067737369390584 0.09013357242600838
0.03314370609611884 0.025617805842271652 0.09000165143104649
0.03324719760887882 0.026234423109630513 0.08914861788449563
0.03335299890112303 0.026823923648734715 0.0885894199955379
0.033461082740151186 0.027386625629343606 0.08832060518649915
0.03356988785743173 0.027940859342149973 0.08814355059980618
0.033678692942216586 0.028495092656700336 0.08796649784723243
0.033790045369345115 0.029019419323373985 0.08811350920493774
0.033900598040515054 0.029553134856516367 0.08815878246140642
0.03401195047128831 0.030077461480398728 0.0883057942827884
0.03412276041532532 0.030608157245381074 0.08838379154096633
0.03423357033582505 0.031138852896817996 0.08846178878885053
0.03434464525265064 0.031666437321974994 0.08857349857652105
0.03445785733325961 0.032168930004903694 0.08895709653892868
0.03456763760601347 0.03271171445224388 0.08890410257869978
0.03467899001324945 0.033236040962580815 0.08905111438978804
0.03479006492643032 0.033763625430529104 0.08916282371378187
0.03490209578635884 0.03427998686240302 0.08939614454271605
0.035005141194753404 0.03490184245998637 0.08848635212350286
0.035124069387390856 0.03533722401655678 0.0895971499671483
0.03523514432775371 0.0358648085552592 0.08970885976511257
0.035347175144252396 0.03638116971725097 0.08994218103713596
0.0354592060005362 0.036897531191916175 0.09017550140239347
0.03557162905371488 0.03740928802430066 0.09045871662328782
0.035683659815849596 0.03792564904478417 0.09069203694737037
0.03578692630326451 0.038544909813107084 0.08981036398867577
0.03590767177987374 0.038958956073819516 0.09115234872315182
0.036022392939126575 0.03944373167169415 0.09172792645967762
0.036135991395426156 0.03994168696044163 0.09216068710330594
0.03250371142471253 0.02512150113485067 0.09075431590431399
0.03261204684478015 0.025681249393218177 0.09051750695715134
0.03271638758990647 0.02628789612967463 0.0897725118139487
0.03282027936288075 0.026899815645780138 0.08897038699325283
0.03292822122019638 0.027464184582464066 0.08868350942762053
0.0330361630738673 0.028028553561939288 0.08839663139831155
0.03314410487864132 0.028592922335719306 0.08810975311657676
0.03325322797912084 0.02914342272248014 0.08797315200112671
0.033366298047959125 0.02964758239760209 0.0883386858075471
0.03347609957577156 0.030190117613750116 0.08828839346781091
0.033587473226078135 0.030714195106745473 0.0884381048147769
0.033699467272711676 0.031230988360349373 0.08866674528109084
0.03381006848951561 0.031764134326601114 0.08871819147538673
0.033923138581122635 0.032268294051187425 0.08908372575384746
0.03403373979322802 0.03280144014570716 0.08913517079088175
0.03414644826604892 0.03330984557913265 0.08945469976739824
0.034257559577180574 0.03383700271186913 0.08957103959847636
0.03437062968580397 0.0343411626996645 0.08993657249813089
0.03448097365692283 0.03487732850483041 0.08995529516468795
0.03459540974870862 0.03536545019723821 0.09049461290120432
0.034705211274698694 0.03590798543478189 0.09044432032962979
0.03481606666499934 0.03643814685179883 0.09052810517943934
0.034929497421860724 0.03693807259871472 0.09093951934945844
0.03504009866037957 0.03747121869990753 0.09099096532220974
0.035152092635490115 0.03798801162357298 0.09121960564172328
0.03526408670566093 0.03850480499072231 0.09144824611833097
0.035376435528742506 0.03901743333190279 0.09172201786828636
0.03548986629471567 0.039517358971840444 0.09213343319749716
0.03218518735767562 0.026345950502840196 0.09034676324379362
0.03229190516920036 0.02692469051965235 0.08990416392506305
0.03239962835999052 0.02749162674114073 0.08958946784565971
0.032508073818573326 0.028050083076991507 0.08936665787681859
0.03261651923737101 0.028608539100168858 0.08914384881474335
0.03272567912214116 0.029158607615841214 0.08901192735610479
0.03283572169898337 0.029698311982498855 0.08899230697579123
0.0329465316466651 0.03022900770468991 0.08907030469764583
0.03305204188104567 0.030821925449189047 0.08847407874885913
0.03316740246568482 0.03129919339435016 0.08913100646063704
0.03327795515310261 0.03183290912662055 0.08917627880004612
0.03338876507465618 0.03236360469258077 0.08925427674151525
0.033501583593139025 0.032870718192685826 0.08958780504604084
0.0336126585063199 0.033398302660634115 0.0896995143700347
0.033724689342711146 0.033914663978962596 0.08993283518867513
0.03383576427942929 0.034442248560456315 0.09004454452296273
0.03394779509228326 0.03495860976523937 0.09027786533130944
0.03405886998192686 0.035486194119642246 0.09038957464500955
0.0341702224127001 0.03601052074352461 0.09053658646639152
0.034281574798221165 0.03653484711892047 0.09068359849902437
0.034394786895846505 0.03703734006505823 0.0910671950826258
0.03450533961955807 0.037571055761104526 0.09111246905519697
0.034616149467623626 0.03810175109330082 0.0911904660403616
0.0347297480180723 0.03859970683622999 0.09162322672516489
0.034954462037208395 0.03962477128942104 0.0921728531766052
0.035065014666770866 0.04015848653128565 0.0922181271080014
0.031764821900016935 0.026934409114631103 0.09100217084506321
0.03198473093314812 0.028015887175388995 0.09094051228587638
0.032093762547932024 0.02856746088292798 0.09079227842949336
0.032202794201589856 0.02911903491383821 0.09064404355042531
0.03230779976893075 0.029717876992245047 0.0899836203866301
0.03242014860112412 0.030230505226447296 0.09025739329577719
0.03253198492801048 0.03074915060060276 0.09046596584602355
0.032641786426818566 0.0312916857673923 0.09041567280047862
0.03275824336737655 0.03175608179315659 0.0912120777009111
0.0328646761378477 0.03233816791117498 0.0907332193178881
0.03297604977814203 0.032862245204936455 0.09088293181568209
0.03308585128241719 0.03340478030753906 0.09083263946565216
0.03319892137752628 0.03390894006411296 0.0911981736301238
0.03330765226926561 0.03446404523222621 0.09101167615208772
0.03341799623036149 0.03500021115506816 0.09103039754353393
0.03352859742271697 0.03553335701847231 0.09108184361161689
0.03364166754136333 0.036037516888591636 0.09144737778638229
0.03375277881893475 0.03656467402545874 0.09156371633205583
0.033864152482909006 0.03708875135798676 0.09171342941780934
0.03397552613686029 0.03761282880819082 0.091863141228452
0.03144934051827011 0.02812313697165237 0.09098169330898442
0.03155605827360851 0.028701876868351905 0.09053909281047469
