ply
format ascii 1.0
element vertex 453
property float x
property float y
property float z
property uchar red
property uchar green
property uchar blue
end_header
-5.944812362030916 -2.2472406181015447 -2.0947689580573954 0 255 0
-5.444812362030916 -4.247240618101545 -0.3145509580573953 100 129 203
-5.444812362030916 -3.7472406181015447 0.9030300419426047 35 90 240
-5.444812362030916 -3.2472406181015447 1.3470540419426045 174 158 148
-5.444812362030916 -2.7472406181015447 -1.0333639580573952 174 158 148
-5.444812362030916 -2.2472406181015447 1.124813041942605 0 255 0
-5.444812362030916 -1.7472406181015447 -1.5989999580573953 0 255 0
-5.444812362030916 1.2527593818984553 -1.8316649580573952 0 255 0
-4.944812362030916 -3.2472406181015447 1.4198040419426046 17 77 248
-4.944812362030916 -2.7472406181015447 1.1735650419426045 0 255 0
-4.944812362030916 -2.2472406181015447 -0.14926895805739537 115 136 194
-4.944812362030916 -1.7472406181015447 1.2731470419426052 115 136 194
-4.944812362030916 -1.2472406181015447 0.7005320419426044 23 81 246
-4.944812362030916 -0.7472406181015447 -0.8709119580573952 196 216 0
-4.944812362030916 -0.24724061810154474 -2.207984958057395 254 178 0
-4.444812362030916 -3.7472406181015447 -0.03057095805739518 0 255 0
-4.444812362030916 -3.2472406181015447 1.0232450419426047 109 133 197
-4.444812362030916 -2.7472406181015447 0.1909620419426048 111 134 196
-4.444812362030916 -2.2472406181015447 0.9908490419426044 250 177 35
-4.444812362030916 -1.7472406181015447 0.7889320419426045 250 177 35
-4.444812362030916 -1.2472406181015447 1.1000580419426051 29 86 243
-4.444812362030916 -0.7472406181015447 0.8332410419426046 11 72 250
-4.444812362030916 -0.24724061810154474 0.8238570419426048 0 255 0
-4.444812362030916 0.25275938189845526 -2.1089319580573953 0 255 0
-4.444812362030916 0.7527593818984553 0.9808550419426045 0 255 0
-3.944812362030916 -5.747240618101545 -1.0969309580573952 49 100 233
-3.944812362030916 -4.747240618101545 -0.1828179580573952 0 255 0
-3.944812362030916 -4.247240618101545 -1.6948809580573951 0 255 0
-3.944812362030916 -3.7472406181015447 1.1994890419426052 0 255 0
-3.944812362030916 -3.2472406181015447 1.3646750419426046 42 95 237
-3.944812362030916 -2.7472406181015447 1.183634041942605 42 95 237
-3.944812362030916 -2.2472406181015447 -0.20692495805739508 205 167 117
-3.944812362030916 -1.7472406181015447 1.3403950419426045 205 167 117
-3.944812362030916 -1.2472406181015447 0.8440620419426046 167 156 154
-3.944812362030916 -0.7472406181015447 -0.5124829580573951 223 201 0
-3.944812362030916 -0.24724061810154474 1.2282640419426047 223 201 0
-3.944812362030916 0.25275938189845526 0.8164860419426048 0 255 0
-3.944812362030916 0.7527593818984553 0.209953041942605 0 255 0
-3.944812362030916 1.2527593818984553 0.37513904194260483 0 255 0
-3.944812362030916 1.7527593818984553 1.0690140419426046 0 255 0
-3.944812362030916 2.2527593818984553 -2.198968958057395 0 255 0
-3.944812362030916 2.7527593818984553 1.7774910419426049 0 255 0
-3.444812362030916 -6.247240618101545 -1.3099469580573952 106 131 200
-3.444812362030916 -5.747240618101545 -0.6807439580573953 233 174 78
-3.444812362030916 -5.247240618101545 -1.8262739580573952 0 255 0
-3.444812362030916 -4.747240618101545 1.3692680419426044 0 255 0
-3.444812362030916 -4.247240618101545 -0.2194379580573953 129 240 0
-3.444812362030916 -3.7472406181015447 1.1497990419426052 238 191 0
-3.444812362030916 -3.2472406181015447 0.7146190419426044 247 184 0
-3.444812362030916 -2.7472406181015447 1.158642041942605 89 123 210
-3.444812362030916 -2.2472406181015447 0.723462041942605 71 113 221
-3.444812362030916 -1.7472406181015447 0.5215460419426048 252 180 0
-3.444812362030916 -1.2472406181015447 0.7677840419426052 252 180 0
-3.444812362030916 -0.7472406181015447 0.41825504194260477 233 174 79
-3.444812362030916 -0.24724061810154474 1.0247880419426045 0 255 0
-3.444812362030916 0.25275938189845526 -0.9140489580573954 0 255 0
-3.444812362030916 0.7527593818984553 0.442495041942605 142 147 174
-3.444812362030916 1.2527593818984553 1.0685360419426044 70 113 222
-3.444812362030916 1.7527593818984553 -0.07699395805739506 196 164 128
-3.444812362030916 2.2527593818984553 1.0982790419426052 196 164 128
-3.444812362030916 2.7527593818984553 1.704812041942605 27 84 244
-3.444812362030916 3.2527593818984553 1.8858530419426045 0 255 0
-2.944812362030916 -6.247240618101545 -0.891567958057395 74 115 219
-2.944812362030916 -5.747240618101545 -1.6914559580573951 182 222 0
-2.944812362030916 -5.247240618101545 -0.13058595805739515 184 161 140
-2.944812362030916 -4.747240618101545 -1.4351369580573952 0 255 0
-2.944812362030916 -4.247240618101545 1.478399041942605 0 255 0
-2.944812362030916 -3.7472406181015447 1.0063090419426044 46 98 234
-2.944812362030916 -3.2472406181015447 1.4712540419426046 218 170 101
-2.944812362030916 -2.7472406181015447 0.8647210419426048 218 170 101
-2.944812362030916 -2.2472406181015447 0.3683880419426049 167 156 155
-2.944812362030916 -1.7472406181015447 1.0347920419426049 59 252 0
-2.944812362030916 -1.2472406181015447 0.3776200419426048 176 158 147
-2.944812362030916 -0.7472406181015447 -0.47039895805739507 59 252 0
-2.944812362030916 -0.24724061810154474 1.1366740419426047 176 158 147
-2.944812362030916 0.25275938189845526 0.5870050419426049 0 255 0
-2.944812362030916 0.7527593818984553 0.9365340419426045 111 134 196
-2.944812362030916 1.2527593818984553 0.3355240419426049 0 255 0
-2.944812362030916 1.7527593818984553 1.282130041942605 0 255 0
-2.944812362030916 2.2527593818984553 0.686919041942605 210 168 112
-2.944812362030916 2.7527593818984553 1.2399120419426048 229 197 0
-2.944812362030916 3.2527593818984553 2.1289350419426047 0 255 0
-2.944812362030916 3.7527593818984553 1.280917041942605 0 255 0
-2.444812362030916 -5.247240618101545 -2.3175599580573953 0 255 0
-2.444812362030916 -4.747240618101545 -1.5585079580573953 0 255 0
-2.444812362030916 -4.247240618101545 1.260875041942605 0 255 0
-2.444812362030916 -3.7472406181015447 1.1920820419426046 211 208 0
-2.444812362030916 -3.2472406181015447 -1.7407069580573953 199 214 0
-2.444812362030916 -2.7472406181015447 1.2515440419426045 199 214 0
-2.444812362030916 -2.2472406181015447 0.502726041942605 125 140 187
-2.444812362030916 -1.7472406181015447 0.17941704194260488 0 255 0
-2.444812362030916 -1.2472406181015447 0.8144790419426049 0 255 0
-2.444812362030916 -0.7472406181015447 -0.33104995805739534 0 255 0
-2.444812362030916 -0.24724061810154474 0.516969041942605 0 255 0
-2.444812362030916 0.25275938189845526 1.1121790419426048 0 255 0
-2.444812362030916 0.7527593818984553 1.1647070419426044 0 255 0
-2.444812362030916 1.2527593818984553 0.6117140419426046 96 127 206
-2.444812362030916 1.7527593818984553 1.246776041942605 135 144 179
-2.444812362030916 2.2527593818984553 0.9508880419426045 208 168 114
-2.444812362030916 2.7527593818984553 1.595082041942605 208 168 114
-2.444812362030916 3.2527593818984553 2.006860041942605 74 115 219
-2.444812362030916 3.7527593818984553 2.123097041942605 0 255 0
-2.444812362030916 4.252759381898455 -1.6134079580573952 0 255 0
-2.444812362030916 4.752759381898455 -1.7384079580573952 0 255 0
-2.444812362030916 5.252759381898455 -1.5573669580573952 0 255 0
-1.9448123620309161 -6.247240618101545 -0.492275958057395 0 255 0
-1.9448123620309161 -5.747240618101545 -1.9355159580573953 94 125 207
-1.9448123620309161 -5.247240618101545 0.958854041942605 0 255 0
-1.9448123620309161 -4.747240618101545 1.625258041942605 43 95 236
-1.9448123620309161 -4.247240618101545 1.0755890419426044 17 77 248
-1.9448123620309161 -3.7472406181015447 0.3165370419426048 0 255 0
-1.9448123620309161 -3.2472406181015447 1.1772010419426047 63 108 226
-1.9448123620309161 -2.7472406181015447 1.3022010419426047 0 255 0
-1.9448123620309161 -2.2472406181015447 1.1859650419426049 86 122 212
-1.9448123620309161 -1.7472406181015447 0.5794320419426051 86 122 212
-1.9448123620309161 -1.2472406181015447 -0.027100958057395097 207 210 0
-1.9448123620309161 -0.7472406181015447 0.6942230419426045 82 119 215
-1.9448123620309161 -0.24724061810154474 0.9901110419426051 207 210 0
-1.9448123620309161 0.25275938189845526 0.3719380419426046 0 255 0
-1.9448123620309161 0.7527593818984553 1.9434720419426044 136 144 179
-1.9448123620309161 1.2527593818984553 1.3708570419426045 0 255 0
-1.9448123620309161 1.7527593818984553 1.4396500419426048 201 166 122
-1.9448123620309161 2.2527593818984553 0.10257804194260478 95 126 207
-1.9448123620309161 2.7527593818984553 1.709820041942605 201 166 122
-1.9448123620309161 3.2527593818984553 2.1150190419426047 228 172 87
-1.9448123620309161 3.7527593818984553 2.2400190419426047 58 105 228
-1.9448123620309161 4.252759381898455 0.192695041942605 0 255 0
-1.9448123620309161 4.752759381898455 0.8315340419426049 220 203 0
-1.9448123620309161 5.252759381898455 -0.6117049580573952 0 255 0
-1.9448123620309161 5.752759381898455 -2.0185969580573953 0 255 0
-1.4448123620309161 -5.747240618101545 -2.0010829580573954 0 255 0
-1.4448123620309161 -5.247240618101545 -1.3750429580573953 0 255 0
-1.4448123620309161 -4.747240618101545 -0.7004699580573952 0 255 0
-1.4448123620309161 -4.247240618101545 0.4748030419426046 46 253 0
-1.4448123620309161 -3.7472406181015447 1.1040060419426045 34 89 241
-1.4448123620309161 -3.2472406181015447 1.4151320419426052 33 88 241
-1.4448123620309161 -2.7472406181015447 0.26960204194260484 13 73 250
-1.4448123620309161 -2.2472406181015447 0.8648130419426052 151 150 167
-1.4448123620309161 -1.7472406181015447 -0.6825079580573954 222 201 0
-1.4448123620309161 -1.2472406181015447 -0.0564669580573951 222 201 0
-1.4448123620309161 -0.7472406181015447 0.5249010419426048 138 145 178
-1.4448123620309161 -0.24724061810154474 0.9689240419426048 0 255 0
-1.4448123620309161 0.25275938189845526 0.5337440419426049 0 255 0
-1.4448123620309161 0.7527593818984553 1.1458800419426045 142 147 174
-1.4448123620309161 1.2527593818984553 -0.04137795805739497 0 255 0
-1.4448123620309161 1.7527593818984553 0.5312370419426049 0 255 0
-1.4448123620309161 2.2527593818984553 1.2282070419426048 248 183 0
-1.4448123620309161 2.7527593818984553 1.7629750419426045 116 136 193
-1.4448123620309161 3.2527593818984553 2.325142041942605 17 77 248
-1.4448123620309161 3.7527593818984553 1.217985041942605 11 72 250
-1.4448123620309161 4.252759381898455 1.2086010419426052 7 70 252
-1.4448123620309161 4.752759381898455 0.4597830419426048 7 70 252
-1.4448123620309161 5.252759381898455 0.1364740419426047 10 72 251
-1.4448123620309161 5.752759381898455 0.7656770419426047 87 122 212
-1.4448123620309161 6.252759381898455 -0.8195519580573953 0 255 0
-1.4448123620309161 6.752759381898455 -2.3887489580573953 0 255 0
-0.9448123620309161 -5.747240618101545 1.4801830419426047 187 162 137
-0.9448123620309161 -5.247240618101545 1.008093041942605 0 255 0
-0.9448123620309161 -4.747240618101545 1.2749100419426047 187 162 137
-0.9448123620309161 -4.247240618101545 1.7100900419426046 0 255 0
-0.9448123620309161 -3.7472406181015447 1.238000041942605 0 255 0
-0.9448123620309161 -3.2472406181015447 -0.18633795805739517 146 148 172
-0.9448123620309161 -2.7472406181015447 1.382858041942605 146 148 172
-0.9448123620309161 -2.2472406181015447 1.1366200419426051 0 255 0
-0.9448123620309161 -1.7472406181015447 -0.5629479580573951 0 255 0
-0.9448123620309161 -1.2472406181015447 0.9845740419426048 0 255 0
-0.9448123620309161 -0.7472406181015447 0.8035330419426052 0 255 0
-0.9448123620309161 -0.24724061810154474 0.17749304194260462 0 255 0
-0.9448123620309161 0.25275938189845526 1.094974041942605 0 255 0
-0.9448123620309161 0.7527593818984553 1.5894730419426044 56 104 229
-0.9448123620309161 1.2527593818984553 1.072366041942605 0 255 0
-0.9448123620309161 1.7527593818984553 0.27247804194260494 0 255 0
-0.9448123620309161 2.2527593818984553 1.694894041942605 0 255 0
-0.9448123620309161 2.7527593818984553 1.106113041942605 0 255 0
-0.9448123620309161 3.2527593818984553 -0.1984379580573954 0 255 0
-0.9448123620309161 3.7527593818984553 -0.8244779580573951 0 255 0
-0.9448123620309161 4.252759381898455 1.7842100419426052 246 185 0
-0.9448123620309161 4.752759381898455 1.202842041942605 0 255 0
-0.9448123620309161 5.252759381898455 0.3548230419426046 0 255 0
-0.9448123620309161 5.752759381898455 -0.17994495805739508 0 255 0
-0.9448123620309161 6.252759381898455 0.5688730419426045 0 255 0
-0.9448123620309161 6.752759381898455 -1.530250958057395 0 255 0
-0.4448123620309161 -6.747240618101545 -0.4366509580573954 216 170 104
-0.4448123620309161 -6.247240618101545 -0.9896439580573952 254 178 0
-0.4448123620309161 -5.747240618101545 1.0024470419426046 254 178 0
-0.4448123620309161 -5.247240618101545 1.4745370419426052 36 91 240
-0.4448123620309161 -4.747240618101545 0.9800370419426048 36 91 240
-0.4448123620309161 -4.247240618101545 1.5526520419426046 12 73 250
-0.4448123620309161 -3.7472406181015447 -0.18809395805739504 168 156 154
-0.4448123620309161 -3.2472406181015447 -1.048758958057395 236 192 0
-0.4448123620309161 -2.7472406181015447 1.1094180419426052 236 192 0
-0.4448123620309161 -2.2472406181015447 0.9442320419426049 52 102 231
-0.4448123620309161 -1.7472406181015447 -0.4471499580573952 208 168 114
-0.4448123620309161 -1.2472406181015447 0.8055570419426048 208 168 114
-0.4448123620309161 -0.7472406181015447 0.7367640419426045 162 154 159
-0.4448123620309161 -0.24724061810154474 1.2330970419426044 151 150 167
-0.4448123620309161 0.25275938189845526 0.12594004194260489 0 255 0
-0.4448123620309161 0.7527593818984553 0.800513041942605 0 255 0
-0.4448123620309161 1.2527593818984553 -0.6219029580573951 0 255 0
-0.4448123620309161 1.7527593818984553 1.3074740419426045 0 255 0
-0.4448123620309161 2.2527593818984553 -0.2617219580573953 158 231 0
-0.4448123620309161 2.7527593818984553 -0.7855699580573954 0 255 0
-0.4448123620309161 3.2527593818984553 -1.396263958057395 0 255 0
-0.4448123620309161 3.7527593818984553 -1.0851389580573954 0 255 0
-0.4448123620309161 4.252759381898455 0.09013504194260502 204 212 0
-0.4448123620309161 4.752759381898455 0.2063710419426048 204 212 0
-0.4448123620309161 5.252759381898455 0.32260804194260473 81 119 215
-0.4448123620309161 5.752759381898455 0.19760804194260473 81 119 215
-0.4448123620309161 6.252759381898455 0.1288140419426047 32 88 242
-0.4448123620309161 6.752759381898455 -0.10682895805739534 0 255 0
0.05518763796908388 -6.747240618101545 1.123961041942605 113 135 195
0.05518763796908388 -6.247240618101545 1.1927540419426044 108 133 198
0.05518763796908388 -5.747240618101545 1.3579400419426046 17 77 248
0.05518763796908388 -5.247240618101545 0.5580530419426046 0 255 0
0.05518763796908388 -4.747240618101545 0.14627504194260466 0 255 0
0.05518763796908388 -4.247240618101545 1.7535160419426048 151 150 167
0.05518763796908388 -3.7472406181015447 1.109322041942605 0 255 0
0.05518763796908388 -3.2472406181015447 -0.6409999580573951 197 165 127
0.05518763796908388 -2.7472406181015447 1.4233000419426047 197 165 127
0.05518763796908388 -2.2472406181015447 0.888532041942605 125 140 187
0.05518763796908388 -1.7472406181015447 1.1241760419426048 57 105 229
0.05518763796908388 -1.2472406181015447 1.0079390419426049 125 140 187
0.05518763796908388 -0.7472406181015447 0.37287704194260485 86 121 212
0.05518763796908388 -0.24724061810154474 1.0392810419426044 86 121 212
0.05518763796908388 0.25275938189845526 1.048664041942605 197 165 126
0.05518763796908388 0.7527593818984553 -0.3146819580573954 201 214 0
0.05518763796908388 1.2527593818984553 1.2545140419426049 197 165 126
0.05518763796908388 1.7527593818984553 0.9433890419426052 0 255 0
0.05518763796908388 2.2527593818984553 -0.2741929580573954 0 255 0
0.05518763796908388 2.7527593818984553 1.273330041942605 0 255 0
0.05518763796908388 3.2527593818984553 -1.2617589580573951 0 255 0
0.05518763796908388 3.7527593818984553 -1.1367589580573951 0 255 0
0.05518763796908388 4.252759381898455 0.254623041942605 233 195 0
0.05518763796908388 4.752759381898455 0.6041520419426045 162 230 0
0.05518763796908388 5.252759381898455 0.42311104194260496 236 174 73
0.05518763796908388 5.752759381898455 0.6899280419426046 121 138 189
0.05518763796908388 6.252759381898455 0.8918450419426045 236 174 73
0.05518763796908388 6.752759381898455 0.3192300419426046 192 218 0
0.05518763796908388 7.252759381898455 -2.2486509580573952 0 255 0
0.5551876379690839 -6.247240618101545 -0.3949119580573952 0 255 0
0.5551876379690839 -5.747240618101545 -1.5821699580573951 0 255 0
0.5551876379690839 -5.247240618101545 -0.19161095805739503 0 255 0
0.5551876379690839 -4.747240618101545 1.2516280419426047 149 149 169
0.5551876379690839 -4.247240618101545 1.768736041942605 23 81 246
0.5551876379690839 -3.7472406181015447 0.2078660419426046 52 101 232
0.5551876379690839 -3.2472406181015447 -0.0880219580573951 179 159 144
0.5551876379690839 -2.7472406181015447 0.8936830419426047 113 244 0
0.5551876379690839 -2.2472406181015447 0.25484304194260465 113 244 0
0.5551876379690839 -1.7472406181015447 0.8990380419426045 250 177 35
0.5551876379690839 -1.2472406181015447 0.122608041942605 40 93 238
0.5551876379690839 -0.7472406181015447 0.7518110419426045 97 127 205
0.5551876379690839 -0.24724061810154474 0.3466110419426047 0 255 0
0.5551876379690839 0.25275938189845526 0.46284804194260465 0 255 0
0.5551876379690839 0.7527593818984553 1.063857041942605 130 142 183
0.5551876379690839 1.2527593818984553 0.8282140419426045 49 100 233
0.5551876379690839 1.7527593818984553 0.36326804194260465 208 168 114
0.5551876379690839 2.2527593818984553 0.958479041942605 208 168 114
0.5551876379690839 2.7527593818984553 0.49353404194260486 222 202 0
0.5551876379690839 3.2527593818984553 -1.0537859580573952 222 202 0
0.5551876379690839 3.7527593818984553 -0.409591958057395 0 255 0
0.5551876379690839 4.252759381898455 0.2346020419426047 0 255 0
0.5551876379690839 4.752759381898455 0.5457280419426049 219 204 0
0.5551876379690839 5.252759381898455 0.7919660419426049 47 98 234
0.5551876379690839 5.752759381898455 0.6267800419426046 21 80 246
0.5551876379690839 6.252759381898455 0.13228004194260468 21 80 246
0.5551876379690839 6.752759381898455 0.6043700419426048 5 68 252
0.5551876379690839 7.252759381898455 -1.8034059580573951 84 121 213
1.0551876379690839 -6.747240618101545 1.3094430419426044 31 87 242
1.0551876379690839 -6.247240618101545 -0.1337959580573953 30 86 242
1.0551876379690839 -5.747240618101545 1.392834041942605 31 87 242
1.0551876379690839 -5.247240618101545 1.4022170419426048 171 157 151
1.0551876379690839 -4.747240618101545 -1.076894958057395 171 157 151
1.0551876379690839 -4.247240618101545 1.308030041942605 24 82 245
1.0551876379690839 -3.7472406181015447 0.6788270419426046 15 75 249
1.0551876379690839 -3.2472406181015447 -0.6026079580573951 12 73 250
1.0551876379690839 -2.7472406181015447 0.8755540419426047 65 110 224
1.0551876379690839 -2.2472406181015447 1.4574950419426052 65 110 224
1.0551876379690839 -1.7472406181015447 1.2764540419426047 13 74 250
1.0551876379690839 -1.2472406181015447 0.7142870419426051 13 74 250
1.0551876379690839 -0.7472406181015447 1.037595041942605 0 255 0
1.0551876379690839 -0.24724061810154474 0.625817041942605 231 173 82
1.0551876379690839 0.25275938189845526 0.5732890419426044 0 255 0
1.0551876379690839 0.7527593818984553 0.9784890419426051 0 255 0
1.0551876379690839 1.2527593818984553 0.7322510419426052 104 245 0
1.0551876379690839 1.7527593818984553 0.8010440419426046 191 218 0
1.0551876379690839 2.2527593818984553 1.150573041942605 104 245 0
1.0551876379690839 2.7527593818984553 0.5617910419426049 244 176 55
1.0551876379690839 3.2527593818984553 -0.010823958057395 244 176 55
1.0551876379690839 3.7527593818984553 0.22482004194260474 189 219 0
1.0551876379690839 4.252759381898455 -0.381712958057395 189 219 0
1.0551876379690839 4.752759381898455 0.8477920419426046 0 255 0
1.0551876379690839 5.252759381898455 0.2981220419426047 0 255 0
1.0551876379690839 5.752759381898455 1.0469410419426048 34 89 241
1.0551876379690839 6.252759381898455 0.5121730419426047 127 141 185
1.0551876379690839 6.752759381898455 -0.6631009580573952 127 141 185
1.0551876379690839 7.252759381898455 -1.292302958057395 109 133 197
1.5551876379690839 -5.247240618101545 -2.047532958057395 0 255 0
1.5551876379690839 -4.747240618101545 -2.314349958057395 0 255 0
1.5551876379690839 -4.247240618101545 0.505033041942605 0 255 0
1.5551876379690839 -3.7472406181015447 1.1115660419426052 0 255 0
1.5551876379690839 -3.2472406181015447 0.7882570419426052 28 85 244
1.5551876379690839 -2.7472406181015447 1.2845910419426052 23 81 246
1.5551876379690839 -2.2472406181015447 -0.3226509580573951 23 81 246
1.5551876379690839 -1.7472406181015447 -0.5894679580573952 0 255 0
1.5551876379690839 -1.2472406181015447 -0.9946679580573954 0 255 0
1.5551876379690839 -0.7472406181015447 -0.878430958057395 230 196 0
1.5551876379690839 -0.24724061810154474 -0.3287619580573953 181 160 142
1.5551876379690839 0.25275938189845526 0.652943041942605 230 173 84
1.5551876379690839 0.7527593818984553 1.1700510419426045 230 173 84
1.5551876379690839 1.2527593818984553 0.9032340419426048 86 122 212
1.5551876379690839 1.7527593818984553 1.3753240419426045 86 122 212
1.5551876379690839 2.2527593818984553 0.06155604194260489 79 118 216
1.5551876379690839 2.7527593818984553 0.3726820419426047 0 255 0
1.5551876379690839 3.2527593818984553 -0.4596009580573952 0 255 0
1.5551876379690839 3.7527593818984553 0.7931060419426044 0 255 0
1.5551876379690839 4.252759381898455 0.09923104194260501 0 255 0
1.5551876379690839 4.752759381898455 0.7057640419426048 104 130 201
1.5551876379690839 5.252759381898455 -0.015559958057395296 75 115 219
1.5551876379690839 5.752759381898455 0.5909730419426045 32 88 241
1.5551876379690839 6.252759381898455 -0.4484149580573953 23 81 246
1.5551876379690839 6.752759381898455 -1.4558319580573953 23 81 246
1.5551876379690839 7.252759381898455 -1.5808319580573953 11 72 250
2.055187637969084 -6.247240618101545 -2.4217589580573953 0 255 0
2.055187637969084 -5.747240618101545 -1.7278829580573951 0 255 0
2.055187637969084 -5.247240618101545 0.012863041942604792 0 255 0
2.055187637969084 -4.747240618101545 -0.6163399580573952 0 255 0
2.055187637969084 -4.247240618101545 -1.2909129580573953 0 255 0
2.055187637969084 -3.7472406181015447 -1.897444958057395 0 255 0
2.055187637969084 -3.2472406181015447 -2.1436839580573954 0 255 0
2.055187637969084 -2.7472406181015447 -1.5906909580573951 0 255 0
2.055187637969084 -2.2472406181015447 -2.208863958057395 0 255 0
2.055187637969084 -1.7472406181015447 0.4876640419426046 27 254 0
2.055187637969084 -1.2472406181015447 -0.729916958057395 0 255 0
2.055187637969084 -0.7472406181015447 1.0108290419426047 215 169 106
2.055187637969084 -0.24724061810154474 0.5990510419426047 0 255 0
2.055187637969084 0.25275938189845526 -0.16000095805739534 0 255 0
2.055187637969084 0.7527593818984553 0.947156041942605 0 255 0
2.055187637969084 1.2527593818984553 0.30296104194260476 97 127 205
2.055187637969084 1.7527593818984553 1.4484910419426051 76 250 0
2.055187637969084 2.2527593818984553 1.0367130419426052 58 106 228
2.055187637969084 2.7527593818984553 -0.5347309580573953 200 165 124
2.055187637969084 3.2527593818984553 -1.1789259580573952 200 165 124
2.055187637969084 3.7527593818984553 0.4433130419426048 158 153 162
2.055187637969084 4.252759381898455 -0.02877695805739533 172 226 0
2.055187637969084 4.752759381898455 -0.828664958057395 142 236 0
2.055187637969084 5.252759381898455 0.003618041942604844 142 236 0
2.055187637969084 5.752759381898455 0.20553504194260475 196 216 0
2.055187637969084 6.252759381898455 -1.2013569580573953 196 216 0
2.055187637969084 6.752759381898455 -1.7965669580573953 147 149 171
2.555187637969084 -6.247240618101545 -2.0674519580573953 48 99 234
2.555187637969084 -5.747240618101545 -1.4382489580573954 91 124 209
2.555187637969084 -5.247240618101545 -0.22066795805739536 0 255 0
2.555187637969084 -4.747240618101545 0.275665041942605 0 255 0
2.555187637969084 -4.247240618101545 -0.04764295805739538 193 164 131
2.555187637969084 -3.7472406181015447 -0.24955995805739528 34 89 240
2.555187637969084 -3.2472406181015447 -0.5728689580573953 26 83 245
2.555187637969084 -2.7472406181015447 -0.7380549580573952 5 68 252
2.555187637969084 -2.2472406181015447 -1.5422829580573951 20 79 247
2.555187637969084 -1.2472406181015447 -1.7525299580573952 0 255 0
2.555187637969084 -0.7472406181015447 -0.4998229580573952 148 235 0
2.555187637969084 -0.24724061810154474 0.2592290419426049 215 206 0
2.555187637969084 0.25275938189845526 0.8088990419426048 173 226 0
2.555187637969084 0.7527593818984553 -0.4629249580573953 173 226 0
2.555187637969084 1.2527593818984553 -0.01890195805739525 179 223 0
2.555187637969084 1.7527593818984553 0.6556710419426044 207 210 0
2.555187637969084 2.2527593818984553 -0.6580959580573951 44 96 235
2.555187637969084 2.7527593818984553 -0.860012958057395 248 184 0
2.555187637969084 3.2527593818984553 -1.5264169580573952 0 255 0
2.555187637969084 3.7527593818984553 -0.16307095805739502 0 255 0
2.555187637969084 4.252759381898455 -0.829474958057395 133 239 0
2.555187637969084 4.752759381898455 -0.2034349580573953 220 171 98
2.555187637969084 5.252759381898455 -1.5948169580573952 27 84 244
2.555187637969084 5.752759381898455 -1.183038958057395 9 71 251
2.555187637969084 6.252759381898455 -1.6182189580573951 5 68 252
2.555187637969084 6.752759381898455 -1.1461289580573952 5 68 252
3.055187637969084 -5.247240618101545 -1.9669779580573952 9 71 251
3.055187637969084 -4.747240618101545 -0.3782799580573952 49 100 233
3.055187637969084 -4.247240618101545 -1.6309869580573952 16 76 249
3.055187637969084 -3.7472406181015447 -0.04575795805739524 120 138 190
3.055187637969084 -3.2472406181015447 -0.595426958057395 51 101 232
3.055187637969084 -2.7472406181015447 -1.505556958057395 248 183 0
3.055187637969084 -2.2472406181015447 -0.9817099580573951 120 138 190
3.055187637969084 -1.7472406181015447 -0.7148929580573951 0 255 0
3.055187637969084 -1.2472406181015447 -1.3214249580573951 0 255 0
3.055187637969084 -0.7472406181015447 0.352106041942605 0 255 0
3.055187637969084 -0.24724061810154474 -0.22050895805739534 0 255 0
3.055187637969084 0.25275938189845526 0.30333904194260475 0 255 0
3.055187637969084 0.7527593818984553 -0.6067909580573954 164 155 157
3.055187637969084 1.2527593818984553 0.7845910419426052 0 255 0
3.055187637969084 1.7527593818984553 -1.6945209580573952 21 79 247
3.055187637969084 2.2527593818984553 -1.344991958057395 21 79 247
3.055187637969084 2.7527593818984553 -0.2724059580573952 200 165 124
3.055187637969084 3.2527593818984553 -1.0722929580573952 200 165 124
3.055187637969084 3.7527593818984553 -0.32347495805739523 86 121 212
3.055187637969084 4.252759381898455 -1.6463089580573953 4 67 253
3.055187637969084 4.752759381898455 -0.19502395805739514 86 121 212
3.055187637969084 5.252759381898455 -1.3702969580573954 4 67 253
3.055187637969084 5.752759381898455 -1.8874049580573953 15 75 249
3.055187637969084 6.252759381898455 -1.6205879580573952 96 127 206
3.055187637969084 6.752759381898455 -2.232723958057395 15 75 249
3.555187637969084 -4.747240618101545 -2.1549619580573953 196 216 0
3.555187637969084 -4.247240618101545 -2.390604958057395 196 216 0
3.555187637969084 -3.7472406181015447 -1.2153319580573951 143 236 0
3.555187637969084 -3.2472406181015447 -0.743241958057395 143 236 0
3.555187637969084 -2.7472406181015447 -1.1784219580573954 0 255 0
3.555187637969084 -2.2472406181015447 -0.597053958057395 0 255 0
3.555187637969084 -1.7472406181015447 -1.3183769580573954 183 161 141
3.555187637969084 -1.2472406181015447 -0.822043958057395 107 132 199
3.555187637969084 -0.7472406181015447 -1.5159189580573953 204 212 0
3.555187637969084 -0.24724061810154474 -0.9988119580573951 204 212 0
3.555187637969084 0.25275938189845526 -0.9462839580573954 56 104 229
3.555187637969084 0.7527593818984553 -1.4992779580573952 228 173 86
3.555187637969084 1.2527593818984553 -1.4467499580573953 228 173 86
3.555187637969084 1.7527593818984553 -0.7721769580573952 0 255 0
3.555187637969084 2.2527593818984553 -0.1995619580573953 0 255 0
3.555187637969084 2.7527593818984553 -0.6940619580573952 178 159 145
3.555187637969084 3.2527593818984553 -0.8592479580573951 17 77 248
3.555187637969084 3.7527593818984553 -1.1551359580573952 3 67 253
3.555187637969084 4.252759381898455 -0.5541269580573953 17 77 248
3.555187637969084 4.752759381898455 -2.111319958057395 17 77 248
3.555187637969084 5.252759381898455 -1.5299519580573953 66 110 224
3.555187637969084 5.752759381898455 -2.362234958057395 66 110 224
4.055187637969084 -3.7472406181015447 -1.9986239580573952 24 81 245
4.055187637969084 -3.2472406181015447 -0.926036958057395 17 76 248
4.055187637969084 -2.7472406181015447 -1.5552399580573952 17 76 248
4.055187637969084 -2.2472406181015447 -1.120059958057395 39 93 238
4.055187637969084 -1.7472406181015447 -0.9181429580573952 21 80 246
4.055187637969084 -1.2472406181015447 -1.490757958057395 54 103 231
4.055187637969084 -0.7472406181015447 -1.4813749580573952 0 255 0
4.055187637969084 -0.24724061810154474 -0.7600509580573953 0 255 0
4.055187637969084 0.25275938189845526 -1.2563839580573952 235 193 0
4.055187637969084 0.7527593818984553 -0.33890295805739523 0 255 0
4.055187637969084 1.2527593818984553 -0.9830969580573954 135 144 180
4.055187637969084 1.7527593818984553 -1.035624958057395 235 193 0
4.055187637969084 2.2527593818984553 -0.8337079580573952 46 98 235
4.055187637969084 2.7527593818984553 -0.9499449580573951 21 79 247
4.055187637969084 3.2527593818984553 -1.196182958057395 113 135 195
4.055187637969084 3.7527593818984553 -1.7849649580573952 113 135 195
4.555187637969084 -3.2472406181015447 -2.106673958057395 9 71 251
4.555187637969084 -2.7472406181015447 -1.9256329580573952 9 71 251
4.555187637969084 -2.2472406181015447 -1.7445919580573952 10 72 251
4.555187637969084 -1.7472406181015447 -1.6920639580573953 115 136 194
4.555187637969084 -1.2472406181015447 -1.8572499580573951 0 255 0
4.555187637969084 -0.7472406181015447 -1.2758819580573952 0 255 0
4.555187637969084 -0.24724061810154474 -1.6254109580573952 0 255 0
4.555187637969084 0.25275938189845526 -1.181386958057395 121 138 189
4.555187637969084 0.7527593818984553 -1.448203958057395 104 131 200
4.555187637969084 1.2527593818984553 -0.8755899580573954 148 234 0
4.555187637969084 1.7527593818984553 -1.280788958057395 148 234 0
4.555187637969084 2.2527593818984553 -1.1645529580573952 254 178 0
4.555187637969084 2.7527593818984553 -1.366468958057395 254 178 0
4.555187637969084 3.2527593818984553 -0.954690958057395 13 74 249
4.555187637969084 3.7527593818984553 -2.3460739580573953 4 67 253
