ply
format ascii 1.0
element vertex 961
property float64 x
property float64 y
property float64 z
property uchar red
property uchar green
property uchar blue
element face 900
property list uchar int vertex_indices
end_header
150.0 2.0 0.246238
10 72 251
150.0 2.5 0.010595
32 87 242
150.0 3.0 0.191636
32 87 242
150.0 3.5 -0.044008
1 65 254
150.0 4.0 0.137034
13 73 250
150.0 4.5 -0.028152
13 73 250
150.0 5.0 0.088084
2 66 253
150.0 5.5 -0.036916
2 66 253
150.0 6.0 0.015612
4 67 253
150.0 6.5 0.006228
4 67 253
150.0 7.0 0.058756
4 67 253
150.0 7.5 -0.066244
19 78 248
150.0 8.0 -0.135037
19 78 248
150.0 8.5 -0.08251
9 71 251
150.0 9.0 0.228616
3 66 253
150.0 9.5 -0.067273
1 65 254
150.0 10.0 0.467495
5 68 252
150.0 10.5 -0.027004
5 68 252
150.0 11.0 0.154037
2 65 254
150.0 11.5 -0.081607
2 65 254
150.0 12.0 0.229519
4 68 253
150.0 12.5 -0.006125
4 68 253
150.0 13.0 0.174916
10 71 251
150.0 13.5 0.106123
10 71 251
150.0 14.0 0.03733
5 68 252
150.0 14.5 0.509419
182 222 0
150.0 15.0 0.07424
182 222 0
150.0 15.5 -0.05076
174 158 149
150.0 16.0 -0.286404
131 142 183
150.0 16.5 0.157619
97 127 206
150.0 17.0 -0.138269
11 72 250
150.5 2.0 0.054062
11 72 250
150.5 2.5 0.179062
9 71 251
150.5 3.0 0.247855
9 71 251
150.5 3.5 0.001617
6 69 252
150.5 4.0 0.203534
9 71 251
150.5 4.5 0.022492
4 68 253
150.5 5.0 -0.030035
4 68 253
150.5 5.5 0.094965
4 68 253
150.5 6.0 -0.021272
4 68 253
150.5 6.5 0.245545
24 82 245
150.5 7.0 -0.06558
0 63 255
150.5 7.5 0.136337
24 82 245
150.5 8.0 -0.044705
13 73 250
150.5 8.5 0.278604
13 73 250
150.5 9.0 -0.238503
7 70 252
150.5 9.5 -0.036587
2 66 253
150.5 10.0 0.032207
7 70 252
150.5 10.5 -0.08403
9 71 251
150.5 11.0 0.117887
9 71 251
150.5 11.5 -0.063154
14 75 249
150.5 12.0 0.061846
4 67 253
150.5 12.5 -0.054391
14 75 249
150.5 13.0 0.268918
113 135 195
150.5 13.5 -0.227415
13 74 250
150.5 14.0 0.383279
35 90 240
150.5 14.5 -0.060744
113 135 195
150.5 15.0 0.064256
139 146 177
150.5 15.5 0.011729
43 96 236
150.5 16.0 0.021112
139 146 177
150.5 16.5 -0.031416
21 80 246
150.5 17.0 -0.022032
11 72 250
151.0 2.0 0.3003
11 72 250
151.0 2.5 0.004412
3 67 253
151.0 3.0 0.25065
3 67 253
151.0 3.5 0.085464
4 67 253
151.0 4.0 0.529487
4 67 253
151.0 4.5 0.00564
38 92 239
151.0 5.0 -0.063154
99 128 204
151.0 5.5 0.053083
99 128 204
151.0 6.0 -0.015711
66 110 224
151.0 6.5 0.295415
52 102 231
151.0 7.0 -0.109785
57 105 229
151.0 7.5 0.407323
57 105 229
151.0 8.0 -0.231517
19 78 248
151.0 8.5 0.180262
16 76 248
151.0 9.0 -0.115627
16 76 248
151.0 9.5 0.130612
5 69 252
151.0 10.0 0.719393
23 81 246
151.0 10.5 -0.029425
23 81 246
151.0 11.0 0.086812
4 67 253
151.0 11.5 -0.078374
0 63 255
151.0 12.0 0.471295
5 68 252
151.0 12.5 -0.023204
5 68 252
151.0 13.0 0.093032
80 118 216
151.0 13.5 -0.142611
80 118 216
151.0 14.0 0.353722
34 89 241
151.0 14.5 -0.081458
25 82 245
151.0 15.0 0.507324
25 82 245
151.0 15.5 -0.131515
102 130 202
151.0 16.0 -0.078988
102 130 202
151.0 16.5 -0.088371
11 72 250
151.0 17.0 -0.38426
5 68 252
151.5 2.0 0.201709
4 68 253
151.5 2.5 0.149182
4 68 253
151.5 3.0 0.158565
2 66 253
151.5 3.5 0.042329
2 66 253
151.5 4.0 0.338217
30 86 242
151.5 4.5 0.027091
30 86 242
151.5 5.0 0.293908
4 67 253
151.5 5.5 -0.017217
26 84 244
151.5 6.0 0.147969
8 70 251
151.5 6.5 -0.033072
8 70 251
151.5 7.0 0.168845
10 72 251
151.5 7.5 -0.077394
10 72 251
151.5 8.0 0.189423
6 69 252
151.5 8.5 -0.056815
6 69 252
151.5 9.0 0.011978
21 80 247
151.5 9.5 -0.104258
4 67 253
151.5 10.0 0.097659
21 80 247
151.5 10.5 -0.14858
6 69 252
151.5 11.0 0.572744
3 67 253
151.5 11.5 -0.101829
13 74 250
151.5 12.0 0.100088
13 74 250
151.5 12.5 -0.080953
12 73 250
151.5 13.0 0.15469
8 70 251
151.5 13.5 -0.156435
15 75 249
151.5 14.0 -0.087642
15 75 249
151.5 14.5 0.208246
24 81 245
151.5 15.0 -0.102879
1 65 254
151.5 15.5 0.099038
45 97 235
151.5 16.0 -0.450632
45 97 235
151.5 16.5 -0.183815
11 72 250
151.5 17.0 0.112073
5 68 252
152.0 2.0 0.192326
4 68 253
152.0 2.5 0.182943
3 66 253
152.0 3.0 0.057943
3 66 253
152.0 3.5 0.592711
4 68 253
152.0 4.0 0.098211
10 72 251
152.0 4.5 0.150739
10 72 251
152.0 5.0 -0.014447
59 106 228
152.0 5.5 0.101789
59 106 228
152.0 6.0 -0.787234
16 76 248
152.0 6.5 -0.161193
0 63 255
152.0 7.0 0.085045
5 69 252
152.0 7.5 -0.080141
8 70 251
152.0 8.0 -0.027614
10 72 251
152.0 8.5 -0.096407
10 72 251
152.0 9.0 0.01983
30 86 243
152.0 9.5 -0.10517
50 100 232
152.0 10.0 0.141068
50 100 232
152.0 10.5 -0.094576
27 84 244
152.0 11.0 0.151663
21 80 246
152.0 11.5 0.20419
6 69 252
152.0 12.0 -0.145338
2 65 254
152.0 12.5 0.165787
29 85 243
152.0 13.0 -0.069856
62 108 226
152.0 13.5 0.341922
62 108 226
152.0 14.0 -0.093258
13 74 250
152.0 14.5 -0.162052
13 74 250
152.0 15.0 0.084187
9 71 251
152.0 15.5 -0.080999
50 100 233
152.0 16.0 -0.028472
50 100 233
152.0 16.5 -0.193658
19 78 247
152.0 17.0 -0.012617
21 79 247
152.5 2.0 0.128451
4 68 253
152.5 2.5 0.395268
7 69 252
152.5 3.0 0.084143
10 72 251
152.5 3.5 0.249329
10 72 251
152.5 4.0 0.068288
2 65 254
152.5 4.5 0.233474
4 67 253
152.5 5.0 0.052433
9 71 251
152.5 5.5 0.217619
9 71 251
152.5 6.0 -0.02862
3 66 253
152.5 6.5 0.37658
5 68 252
152.5 7.0 -0.119753
3 67 253
152.5 7.5 0.115891
5 68 252
152.5 8.0 -0.195235
1 65 254
152.5 8.5 -0.185852
6 69 252
152.5 9.0 -0.060852
7 70 252
152.5 9.5 -0.177088
8 71 251
152.5 10.0 0.1188
10 72 251
152.5 10.5 -0.398307
56 104 230
152.5 11.0 0.183633
70 113 221
152.5 11.5 -0.333474
98 128 204
152.5 12.0 -0.066657
25 82 245
152.5 12.5 0.168986
98 128 204
152.5 13.0 -0.242792
15 75 249
152.5 13.5 0.106737
4 68 253
152.5 14.0 -0.074304
11 73 250
152.5 14.5 0.161339
8 71 251
152.5 15.0 -0.084899
8 71 251
152.5 15.5 0.468094
2 66 254
152.5 16.0 -0.081575
0 63 255
152.5 16.5 0.043425
23 81 246
152.5 17.0 -0.137617
23 81 246
153.0 2.0 0.37469
7 69 252
153.0 2.5 0.139046
13 73 250
153.0 3.0 0.255283
13 73 250
153.0 3.5 0.130283
8 70 251
153.0 4.0 -0.165605
8 70 251
153.0 4.5 0.351502
5 68 252
153.0 5.0 -0.083678
6 69 252
153.0 5.5 0.162561
6 69 252
153.0 6.0 -0.073083
5 68 252
153.0 6.5 0.173155
174 158 148
153.0 7.0 -0.122733
0 255 0
153.0 7.5 -0.070205
0 255 0
153.0 8.0 -0.138999
0 255 0
153.0 8.5 -0.022762
248 184 0
153.0 9.0 -0.091556
32 87 242
153.0 9.5 -0.039028
41 94 237
153.0 10.0 -0.048411
48 99 234
153.0 10.5 0.262714
48 99 234
153.0 11.0 -0.086815
27 84 244
153.0 11.5 0.094226
38 92 239
153.0 12.0 0.146754
79 118 216
153.0 12.5 -0.08889
79 118 216
153.0 13.0 0.092152
7 70 252
153.0 13.5 0.023358
112 134 195
153.0 14.0 0.075886
112 134 195
153.0 14.5 -0.0893
97 127 206
153.0 15.0 0.221825
65 109 225
153.0 15.5 -0.101483
4 67 253
153.0 16.0 0.014753
50 100 232
153.0 16.5 -0.187164
50 100 232
153.0 17.0 0.059075
15 75 249
153.5 2.0 0.350182
21 80 246
153.5 2.5 0.103943
13 74 250
153.5 3.0 0.339587
20 79 247
153.5 3.5 0.158546
21 80 246
153.5 4.0 0.283546
22 80 246
153.5 4.5 0.167309
12 73 250
153.5 5.0 0.051072
20 79 247
153.5 5.5 0.176072
22 80 246
153.5 6.0 -0.070166
247 184 0
153.5 6.5 0.196651
0 255 0
153.5 7.0 -0.114475
0 255 0
153.5 7.5 -0.649243
0 255 0
153.5 8.0 -1.198912
0 255 0
153.5 8.5 -0.281431
0 255 0
153.5 9.0 -0.045788
0 255 0
153.5 9.5 -0.162024
0 255 0
153.5 10.0 -0.093231
0 255 0
153.5 10.5 -0.145759
21 80 246
153.5 11.0 0.056158
39 92 238
153.5 11.5 -0.060078
21 80 246
153.5 12.0 0.064922
72 114 220
153.5 12.5 0.012394
72 114 220
153.5 13.0 0.021777
31 87 242
153.5 13.5 -0.03075
20 79 247
153.5 14.0 0.318779
20 79 247
153.5 14.5 -0.177554
20 79 247
153.5 15.0 -0.230082
20 79 247
153.5 15.5 -0.105082
75 115 219
153.5 16.0 0.359863
31 87 242
153.5 16.5 -0.174905
75 115 219
153.5 17.0 -0.106111
31 87 242
154.0 2.0 0.899851
5 68 252
154.0 2.5 0.178528
6 69 252
154.0 3.0 0.359569
13 74 250
154.0 3.5 0.157652
13 74 250
154.0 4.0 0.210179
16 76 248
154.0 4.5 -0.19502
40 93 238
154.0 5.0 0.301313
0 255 0
154.0 5.5 -0.133867
0 255 0
154.0 6.0 -1.722573
0 255 0
154.0 6.5 -1.09337
0 255 0
154.0 7.0 -0.512002
0 255 0
154.0 7.5 -1.233326
0 255 0
154.0 8.0 -0.736993
0 255 0
154.0 8.5 -1.003809
0 255 0
154.0 9.0 -0.469041
0 255 0
154.0 9.5 0.065727
0 255 0
154.0 10.0 -0.20109
160 153 160
154.0 10.5 0.242933
97 127 205
154.0 11.0 -0.080376
97 127 205
154.0 11.5 0.165863
95 126 206
154.0 12.0 0.000677
95 126 206
154.0 12.5 -0.26614
75 115 219
154.0 13.0 0.250967
94 126 207
154.0 13.5 -0.330974
0 255 0
154.0 14.0 0.218696
0 255 0
154.0 14.5 0.05351
85 121 213
154.0 15.0 -0.015284
85 121 213
154.0 15.5 -0.2172
65 110 224
154.0 16.0 0.371581
65 110 224
154.0 16.5 -0.122918
34 89 241
154.0 17.0 -0.006682
51 101 232
154.5 2.0 0.983418
23 81 246
154.5 2.5 0.539394
22 80 246
154.5 3.0 0.127616
14 74 249
154.5 3.5 0.709557
48 99 234
154.5 4.0 0.174789
48 99 234
154.5 4.5 0.299789
52 101 232
154.5 5.0 -0.272826
0 255 0
154.5 5.5 0.050483
93 125 208
154.5 6.0 0.771806
0 255 0
154.5 6.5 1.353747
0 255 0
154.5 7.0 -0.18643
0 255 0
154.5 7.5 -0.767798
0 255 0
154.5 8.0 -0.41827
0 255 0
154.5 8.5 -0.980436
0 255 0
154.5 9.0 -0.855436
0 255 0
154.5 9.5 -0.360937
0 255 0
154.5 10.0 -0.235937
0 255 0
154.5 10.5 -0.167143
0 255 0
154.5 11.0 0.034774
0 255 0
154.5 11.5 -0.081463
78 117 217
154.5 12.0 0.268066
44 96 235
154.5 12.5 -0.04306
78 117 217
154.5 13.0 0.158857
52 102 231
154.5 13.5 -0.022184
109 133 198
154.5 14.0 0.244633
109 133 198
154.5 14.5 -0.001605
85 121 213
154.5 15.0 0.719718
87 122 212
154.5 15.5 0.084656
87 122 212
154.5 16.0 -0.096386
16 76 249
154.5 16.5 0.139258
16 76 249
154.5 17.0 -0.171868
51 101 232
155.0 2.0 0.17919
23 81 246
155.0 2.5 0.490315
20 79 247
155.0 3.0 0.223498
3 67 253
155.0 3.5 0.276026
3 67 253
155.0 4.0 0.074109
100 129 203
155.0 4.5 3.133965
100 129 203
155.0 5.0 4.351546
35 90 240
155.0 5.5 4.79557
174 158 148
155.0 6.0 2.415152
174 158 148
155.0 6.5 4.573329
0 255 0
155.0 7.0 1.849516
0 255 0
155.0 7.5 -0.692637
0 255 0
155.0 8.0 -1.58166
0 255 0
155.0 8.5 0.269059
0 255 0
155.0 9.0 -1.338183
0 255 0
155.0 9.5 -0.70898
0 255 0
155.0 10.0 1.616851
0 255 0
155.0 10.5 -0.554597
0 255 0
155.0 11.0 0.040614
0 255 0
155.0 11.5 -0.02818
0 255 0
155.0 12.0 -0.193366
0 255 0
155.0 12.5 0.302967
0 255 0
155.0 13.0 -0.020342
0 255 0
155.0 13.5 0.225897
0 255 0
155.0 14.0 -0.239048
0 255 0
155.0 14.5 0.233042
87 122 212
155.0 15.0 -0.002602
136 144 179
155.0 15.5 -0.555595
136 144 179
155.0 16.0 0.039615
75 116 219
155.0 16.5 -0.162301
116 136 193
155.0 17.0 0.372467
136 144 179
155.5 2.0 0.301704
11 72 250
155.5 2.5 0.426704
23 81 246
155.5 3.0 0.310467
23 81 246
155.5 3.5 0.475654
57 105 229
155.5 4.0 -0.041454
0 255 0
155.5 4.5 -1.023159
0 255 0
155.5 5.0 0.717588
0 255 0
155.5 5.5 4.86832
17 77 248
155.5 6.0 4.622081
0 255 0
155.5 6.5 3.299247
115 136 194
155.5 7.0 4.721663
115 136 194
155.5 7.5 4.149048
23 81 246
155.5 8.0 2.577604
196 216 0
155.5 8.5 1.240531
254 178 0
155.5 9.0 0.768441
196 216 0
155.5 9.5 0.195826
0 255 0
155.5 10.0 -0.439236
0 255 0
155.5 10.5 -0.851015
0 255 0
155.5 11.0 -0.212175
0 255 0
155.5 11.5 -0.087175
0 255 0
155.5 12.0 0.179642
0 255 0
155.5 12.5 -0.001399
0 255 0
155.5 13.0 0.123601
0 255 0
155.5 13.5 0.007364
0 255 0
155.5 14.0 0.243007
0 255 0
155.5 14.5 -0.068118
0 255 0
155.5 15.0 0.097068
0 255 0
155.5 15.5 -0.019169
0 255 0
155.5 16.0 0.049625
107 132 199
155.5 16.5 0.059008
107 132 199
155.5 17.0 -0.122033
136 144 179
156.0 2.0 0.547942
8 71 251
156.0 2.5 0.281125
16 76 248
156.0 3.0 0.397362
0 255 0
156.0 3.5 -0.007837
0 255 0
156.0 4.0 0.7171
0 255 0
156.0 4.5 -0.470157
0 255 0
156.0 5.0 3.417945
0 255 0
156.0 5.5 4.471761
109 133 197
156.0 6.0 3.639478
111 134 196
156.0 6.5 4.439365
250 177 35
156.0 7.0 4.237448
250 177 35
156.0 7.5 4.548574
29 86 243
156.0 8.0 4.281757
11 72 250
156.0 8.5 4.272373
0 255 0
156.0 9.0 1.339584
0 255 0
156.0 9.5 4.429371
0 255 0
156.0 10.0 0.943781
0 255 0
156.0 10.5 -0.095606
0 255 0
156.0 11.0 -0.362423
0 255 0
156.0 11.5 -0.797603
0 255 0
156.0 12.0 -0.262835
0 255 0
156.0 12.5 0.271933
0 255 0
156.0 13.0 0.070016
0 255 0
156.0 13.5 0.566349
0 255 0
156.0 14.0 0.042502
0 255 0
156.0 14.5 0.095029
0 255 0
156.0 15.0 0.026236
0 255 0
156.0 15.5 0.078763
116 136 193
156.0 16.0 -0.046237
252 180 0
156.0 16.5 -0.05562
252 180 0
156.0 17.0 -0.065003
126 140 186
156.5 2.0 0.528984
13 74 250
156.5 2.5 0.412748
127 141 186
156.5 3.0 2.351585
49 100 233
156.5 3.5 -0.559963
0 255 0
156.5 4.0 3.265698
0 255 0
156.5 4.5 1.753635
0 255 0
156.5 5.0 4.648005
0 255 0
156.5 5.5 4.813191
42 95 237
156.5 6.0 4.63215
42 95 237
156.5 6.5 3.241591
205 167 117
156.5 7.0 4.788911
205 167 117
156.5 7.5 4.292578
167 156 154
156.5 8.0 2.936033
223 201 0
156.5 8.5 4.67678
223 201 0
156.5 9.0 4.265002
0 255 0
156.5 9.5 3.658469
0 255 0
156.5 10.0 3.823655
0 255 0
156.5 10.5 4.51753
0 255 0
156.5 11.0 1.249547
0 255 0
156.5 11.5 5.226007
0 255 0
156.5 12.0 -0.079507
0 255 0
156.5 12.5 -0.325746
0 255 0
156.5 13.0 -0.002437
0 255 0
156.5 13.5 0.122563
0 255 0
156.5 14.0 0.191356
0 255 0
156.5 14.5 0.07512
0 255 0
156.5 15.0 0.277037
0 255 0
156.5 15.5 -0.240071
0 255 0
156.5 16.0 -0.038154
205 167 117
156.5 16.5 -0.656327
205 167 117
156.5 17.0 -0.074387
115 136 193
157.0 2.0 0.775223
106 131 200
157.0 2.5 2.138569
106 131 200
157.0 3.0 2.767772
233 174 78
157.0 3.5 1.622242
0 255 0
157.0 4.0 4.817784
0 255 0
157.0 4.5 3.229078
129 240 0
157.0 5.0 4.598315
238 191 0
157.0 5.5 4.163135
247 184 0
157.0 6.0 4.607158
89 123 210
157.0 6.5 4.171978
71 113 221
157.0 7.0 3.970062
252 180 0
157.0 7.5 4.2163
252 180 0
157.0 8.0 3.866771
233 174 79
157.0 8.5 4.473304
0 255 0
157.0 9.0 2.534467
0 255 0
157.0 9.5 3.891011
142 147 174
157.0 10.0 4.517052
70 113 222
157.0 10.5 3.371522
196 164 128
157.0 11.0 4.546795
196 164 128
157.0 11.5 5.153328
27 84 244
157.0 12.0 5.334369
0 255 0
157.0 12.5 -0.20864
0 255 0
157.0 13.0 0.037598
0 255 0
157.0 13.5 -0.087402
0 255 0
157.0 14.0 0.408931
0 255 0
157.0 14.5 0.085622
0 255 0
157.0 15.0 0.201859
0 255 0
157.0 15.5 0.036673
0 255 0
157.0 16.0 0.089201
0 255 0
157.0 16.5 0.141728
215 169 106
157.0 17.0 -0.15416
107 132 199
157.5 2.0 0.149171
90 123 210
157.5 2.5 2.556948
74 115 219
157.5 3.0 1.75706
182 222 0
157.5 3.5 3.31793
184 161 140
157.5 4.0 2.013379
0 255 0
157.5 4.5 4.926915
0 255 0
157.5 5.0 4.454825
46 98 234
157.5 5.5 4.91977
218 170 101
157.5 6.0 4.313237
218 170 101
157.5 6.5 3.816904
167 156 155
157.5 7.0 4.483308
59 252 0
157.5 7.5 3.826136
176 158 147
157.5 8.0 2.978117
59 252 0
157.5 8.5 4.58519
176 158 147
157.5 9.0 4.035521
0 255 0
157.5 9.5 4.38505
111 134 196
157.5 10.0 3.78404
0 255 0
157.5 10.5 4.730646
0 255 0
157.5 11.0 4.135435
210 168 112
157.5 11.5 4.688428
229 197 0
157.5 12.0 5.577451
0 255 0
157.5 12.5 4.729433
0 255 0
157.5 13.0 -0.367538
0 255 0
157.5 13.5 0.353786
0 255 0
157.5 14.0 -0.195884
0 255 0
157.5 14.5 0.693139
0 255 0
157.5 15.0 0.281361
0 255 0
157.5 15.5 0.035123
0 255 0
157.5 16.0 0.237039
0 255 0
157.5 16.5 -0.009199
0 255 0
157.5 17.0 0.257618
0 255 0
158.0 2.0 -0.146717
0 255 0
158.0 2.5 0.388051
0 255 0
158.0 3.0 -0.619367
0 255 0
158.0 3.5 1.130956
0 255 0
158.0 4.0 1.890008
0 255 0
158.0 4.5 4.709391
0 255 0
158.0 5.0 4.640598
211 208 0
158.0 5.5 1.707809
199 214 0
158.0 6.0 4.70006
199 214 0
158.0 6.5 3.951242
125 140 187
158.0 7.0 3.627933
0 255 0
158.0 7.5 4.262995
0 255 0
158.0 8.0 3.117466
0 255 0
158.0 8.5 3.965485
0 255 0
158.0 9.0 4.560695
0 255 0
158.0 9.5 4.613223
0 255 0
158.0 10.0 4.06023
96 127 206
158.0 10.5 4.695292
135 144 179
158.0 11.0 4.399404
208 168 114
158.0 11.5 5.043598
208 168 114
158.0 12.0 5.455376
74 115 219
158.0 12.5 5.571613
0 255 0
158.0 13.0 1.835108
0 255 0
158.0 13.5 1.710108
0 255 0
158.0 14.0 1.891149
0 255 0
158.0 14.5 0.283908
0 255 0
158.0 15.0 0.048264
0 255 0
158.0 15.5 0.229305
0 255 0
158.0 16.0 0.027388
0 255 0
158.0 16.5 0.544496
0 255 0
158.0 17.0 -0.601034
0 255 0
158.5 2.0 0.023451
0 255 0
158.5 2.5 2.95624
0 255 0
158.5 3.0 1.513
94 125 207
158.5 3.5 4.40737
0 255 0
158.5 4.0 5.073774
43 95 236
158.5 4.5 4.524105
17 77 248
158.5 5.0 3.765053
0 255 0
158.5 5.5 4.625717
63 108 226
158.5 6.0 4.750717
0 255 0
158.5 6.5 4.634481
86 122 212
158.5 7.0 4.027948
86 122 212
158.5 7.5 3.421415
207 210 0
158.5 8.0 4.142739
82 119 215
158.5 8.5 4.438627
207 210 0
158.5 9.0 3.820454
0 255 0
158.5 9.5 5.391988
136 144 179
158.5 10.0 4.819373
0 255 0
158.5 10.5 4.888166
201 166 122
158.5 11.0 3.551094
95 126 207
158.5 11.5 5.158336
201 166 122
158.5 12.0 5.563535
228 172 87
158.5 12.5 5.688535
58 105 228
158.5 13.0 3.641211
0 255 0
158.5 13.5 4.28005
220 203 0
158.5 14.0 2.836811
0 255 0
158.5 14.5 1.429919
0 255 0
158.5 15.0 0.125369
0 255 0
158.5 15.5 0.250369
0 255 0
158.5 16.0 0.069328
0 255 0
158.5 16.5 0.271245
0 255 0
158.5 17.0 0.025006
0 255 0
159.0 2.0 -0.178466
0 255 0
159.0 2.5 0.803239
0 255 0
159.0 3.0 1.447433
0 255 0
159.0 3.5 2.073473
0 255 0
159.0 4.0 2.748046
0 255 0
159.0 4.5 3.923319
46 253 0
159.0 5.0 4.552522
34 89 241
159.0 5.5 4.863648
33 88 241
159.0 6.0 3.718118
13 73 250
159.0 6.5 4.313329
151 150 167
159.0 7.0 2.766008
222 201 0
159.0 7.5 3.392049
222 201 0
159.0 8.0 3.973417
138 145 178
159.0 8.5 4.41744
0 255 0
159.0 9.0 3.98226
0 255 0
159.0 9.5 4.594396
142 147 174
159.0 10.0 3.407138
0 255 0
159.0 10.5 3.979753
0 255 0
159.0 11.0 4.676723
248 183 0
159.0 11.5 5.211491
116 136 193
159.0 12.0 5.773658
17 77 248
159.0 12.5 4.666501
11 72 250
159.0 13.0 4.657117
7 70 252
159.0 13.5 3.908299
7 70 252
159.0 14.0 3.58499
10 72 251
159.0 14.5 4.214193
87 122 212
159.0 15.0 2.628964
0 255 0
159.0 15.5 1.059767
0 255 0
159.0 16.0 0.170744
0 255 0
159.0 16.5 0.161361
0 255 0
159.0 17.0 0.573139
0 255 0
159.5 2.0 0.853688
0 255 0
159.5 2.5 0.922481
0 255 0
159.5 3.0 4.928699
187 162 137
159.5 3.5 4.456609
0 255 0
159.5 4.0 4.723426
187 162 137
159.5 4.5 5.158606
0 255 0
159.5 5.0 4.686516
0 255 0
159.5 5.5 3.262178
146 148 172
159.5 6.0 4.831374
146 148 172
159.5 6.5 4.585136
0 255 0
159.5 7.0 2.885568
0 255 0
159.5 7.5 4.43309
0 255 0
159.5 8.0 4.252049
0 255 0
159.5 8.5 3.626009
0 255 0
159.5 9.0 4.54349
0 255 0
159.5 9.5 5.037989
56 104 229
159.5 10.0 4.520882
0 255 0
159.5 10.5 3.720994
0 255 0
159.5 11.0 5.14341
0 255 0
159.5 11.5 4.554629
0 255 0
159.5 12.0 3.250078
0 255 0
159.5 12.5 2.624038
0 255 0
159.5 13.0 5.232726
246 185 0
159.5 13.5 4.651358
0 255 0
159.5 14.0 3.803339
0 255 0
159.5 14.5 3.268571
0 255 0
159.5 15.0 4.017389
0 255 0
159.5 15.5 1.918265
0 255 0
159.5 16.0 0.665558
0 255 0
159.5 16.5 0.354432
0 255 0
159.5 17.0 0.108194
0 255 0
160.0 2.0 3.011865
216 170 104
160.0 2.5 2.458872
254 178 0
160.0 3.0 4.450963
254 178 0
160.0 3.5 4.923053
36 91 240
160.0 4.0 4.428553
36 91 240
160.0 4.5 5.001168
12 73 250
160.0 5.0 3.260422
168 156 154
160.0 5.5 2.399757
236 192 0
160.0 6.0 4.557934
236 192 0
160.0 6.5 4.392748
52 102 231
160.0 7.0 3.001366
208 168 114
160.0 7.5 4.254073
208 168 114
160.0 8.0 4.18528
162 154 159
160.0 8.5 4.681613
151 150 167
160.0 9.0 3.574456
0 255 0
160.0 9.5 4.249029
0 255 0
160.0 10.0 2.826613
0 255 0
160.0 10.5 4.75599
0 255 0
160.0 11.0 3.186794
158 231 0
160.0 11.5 2.662946
0 255 0
160.0 12.0 2.052252
0 255 0
160.0 12.5 2.363377
0 255 0
160.0 13.0 3.538651
204 212 0
160.0 13.5 3.654887
204 212 0
160.0 14.0 3.771124
81 119 215
160.0 14.5 3.646124
81 119 215
160.0 15.0 3.57733
32 88 242
160.0 15.5 3.341687
0 255 0
160.0 16.0 0.539903
0 255 0
160.0 16.5 0.216594
0 255 0
160.0 17.0 0.332831
0 255 0
160.5 2.0 4.572477
113 135 195
160.5 2.5 4.64127
108 133 198
160.5 3.0 4.806456
17 77 248
160.5 3.5 4.006569
0 255 0
160.5 4.0 3.594791
0 255 0
160.5 4.5 5.202032
151 150 167
160.5 5.0 4.557838
0 255 0
160.5 5.5 2.807516
197 165 127
160.5 6.0 4.871816
197 165 127
160.5 6.5 4.337048
125 140 187
160.5 7.0 4.572692
57 105 229
160.5 7.5 4.456455
125 140 187
160.5 8.0 3.821393
86 121 212
160.5 8.5 4.487797
86 121 212
160.5 9.0 4.49718
197 165 126
160.5 9.5 3.133834
201 214 0
160.5 10.0 4.70303
197 165 126
160.5 10.5 4.391905
0 255 0
160.5 11.0 3.174323
0 255 0
160.5 11.5 4.721846
0 255 0
160.5 12.0 2.186757
0 255 0
160.5 12.5 2.311757
0 255 0
160.5 13.0 3.703139
233 195 0
160.5 13.5 4.052668
162 230 0
160.5 14.0 3.871627
236 174 73
160.5 14.5 4.138444
121 138 189
160.5 15.0 4.340361
236 174 73
160.5 15.5 3.767746
192 218 0
160.5 16.0 1.199865
0 255 0
160.5 16.5 0.542692
0 255 0
160.5 17.0 0.130914
0 255 0
161.0 2.0 0.761074
216 205 0
161.0 2.5 3.053604
0 255 0
161.0 3.0 1.866346
0 255 0
161.0 3.5 3.256905
0 255 0
161.0 4.0 4.700144
149 149 169
161.0 4.5 5.217252
23 81 246
161.0 5.0 3.656382
52 101 232
161.0 5.5 3.360494
179 159 144
161.0 6.0 4.342199
113 244 0
161.0 6.5 3.703359
113 244 0
161.0 7.0 4.347554
250 177 35
161.0 7.5 3.571124
40 93 238
161.0 8.0 4.200327
97 127 205
161.0 8.5 3.795127
0 255 0
161.0 9.0 3.911364
0 255 0
161.0 9.5 4.512373
130 142 183
161.0 10.0 4.27673
49 100 233
161.0 10.5 3.811784
208 168 114
161.0 11.0 4.406995
208 168 114
161.0 11.5 3.94205
222 202 0
161.0 12.0 2.39473
222 202 0
161.0 12.5 3.038924
0 255 0
161.0 13.0 3.683118
0 255 0
161.0 13.5 3.994244
219 204 0
161.0 14.0 4.240482
47 98 234
161.0 14.5 4.075296
21 80 246
161.0 15.0 3.580796
21 80 246
161.0 15.5 4.052886
5 68 252
161.0 16.0 1.64511
84 121 213
161.0 16.5 0.457852
158 153 162
161.0 17.0 0.389059
158 153 162
161.5 2.0 4.757959
31 87 242
161.5 2.5 3.31472
30 86 242
161.5 3.0 4.84135
31 87 242
161.5 3.5 4.850733
171 157 151
161.5 4.0 2.371621
171 157 151
161.5 4.5 4.756546
24 82 245
161.5 5.0 4.127343
15 75 249
161.5 5.5 2.845908
12 73 250
161.5 6.0 4.32407
65 110 224
161.5 6.5 4.906011
65 110 224
161.5 7.0 4.72497
13 74 250
161.5 7.5 4.162803
13 74 250
161.5 8.0 4.486111
0 255 0
161.5 8.5 4.074333
231 173 82
161.5 9.0 4.021805
0 255 0
161.5 9.5 4.427005
0 255 0
161.5 10.0 4.180767
104 245 0
161.5 10.5 4.24956
191 218 0
161.5 11.0 4.599089
104 245 0
161.5 11.5 4.010307
244 176 55
161.5 12.0 3.437692
244 176 55
161.5 12.5 3.673336
189 219 0
161.5 13.0 3.066803
189 219 0
161.5 13.5 4.296308
0 255 0
161.5 14.0 3.746638
0 255 0
161.5 14.5 4.495457
34 89 241
161.5 15.0 3.960689
127 141 185
161.5 15.5 2.785415
127 141 185
161.5 16.0 2.156213
109 133 197
161.5 16.5 0.938631
24 81 245
161.5 17.0 0.264059
109 133 197
162.0 2.0 0.507364
48 99 234
162.0 2.5 0.27172
48 99 234
162.0 3.0 0.928893
0 255 0
162.0 3.5 1.400983
0 255 0
162.0 4.0 1.134166
0 255 0
162.0 4.5 3.953549
0 255 0
162.0 5.0 4.560082
0 255 0
162.0 5.5 4.236773
28 85 244
162.0 6.0 4.733107
23 81 246
162.0 6.5 3.125865
23 81 246
162.0 7.0 2.859048
0 255 0
162.0 7.5 2.453848
0 255 0
162.0 8.0 2.570085
230 196 0
162.0 8.5 3.119754
181 160 142
162.0 9.0 4.101459
230 173 84
162.0 9.5 4.618567
230 173 84
162.0 10.0 4.35175
86 122 212
162.0 10.5 4.82384
86 122 212
162.0 11.0 3.510072
79 118 216
162.0 11.5 3.821198
0 255 0
162.0 12.0 2.988915
0 255 0
162.0 12.5 4.241622
0 255 0
162.0 13.0 3.547747
0 255 0
162.0 13.5 4.15428
104 130 201
162.0 14.0 3.432956
75 115 219
162.0 14.5 4.039489
32 88 241
162.0 15.0 3.000101
23 81 246
162.0 15.5 1.992684
23 81 246
162.0 16.0 1.867684
11 72 250
162.0 16.5 0.319119
11 72 250
162.0 17.0 0.309736
66 110 224
162.5 2.0 0.387918
85 121 213
162.5 2.5 1.026757
0 255 0
162.5 3.0 1.720633
0 255 0
162.5 3.5 3.461379
0 255 0
162.5 4.0 2.832176
0 255 0
162.5 4.5 2.157603
0 255 0
162.5 5.0 1.551071
0 255 0
162.5 5.5 1.304832
0 255 0
162.5 6.0 1.857825
0 255 0
162.5 6.5 1.239652
0 255 0
162.5 7.0 3.93618
27 254 0
162.5 7.5 2.718599
0 255 0
162.5 8.0 4.459345
215 169 106
162.5 8.5 4.047567
0 255 0
162.5 9.0 3.288515
0 255 0
162.5 9.5 4.395672
0 255 0
162.5 10.0 3.751477
97 127 205
162.5 10.5 4.897007
76 250 0
162.5 11.0 4.485229
58 106 228
162.5 11.5 2.913785
200 165 124
162.5 12.0 2.26959
200 165 124
162.5 12.5 3.891829
158 153 162
162.5 13.0 3.419739
172 226 0
162.5 13.5 2.619851
142 236 0
162.5 14.0 3.452134
142 236 0
162.5 14.5 3.654051
196 216 0
162.5 15.0 2.247159
196 216 0
162.5 15.5 1.651949
147 149 171
162.5 16.0 0.994776
147 149 171
162.5 16.5 0.194889
106 132 200
162.5 17.0 0.490777
85 121 213
163.0 2.0 0.799696
24 82 245
163.0 2.5 1.381064
48 99 234
163.0 3.0 2.010267
91 124 209
163.0 3.5 3.227848
0 255 0
163.0 4.0 3.724181
0 255 0
163.0 4.5 3.400873
193 164 131
163.0 5.0 3.198956
34 89 240
163.0 5.5 2.875647
26 83 245
163.0 6.0 2.710461
5 68 252
163.0 6.5 1.906233
20 79 247
163.0 7.0 0.358913
0 255 0
163.0 7.5 1.695986
0 255 0
163.0 8.0 2.948693
148 235 0
163.0 8.5 3.707745
215 206 0
163.0 9.0 4.257415
173 226 0
163.0 9.5 2.985591
173 226 0
163.0 10.0 3.429614
179 223 0
163.0 10.5 4.104187
207 210 0
163.0 11.0 2.79042
44 96 235
163.0 11.5 2.588503
248 184 0
163.0 12.0 1.922099
0 255 0
163.0 12.5 3.285445
0 255 0
163.0 13.0 2.619041
133 239 0
163.0 13.5 3.245081
220 171 98
163.0 14.0 1.853699
27 84 244
163.0 14.5 2.265477
9 71 251
163.0 15.0 1.830297
5 68 252
163.0 15.5 2.302387
5 68 252
163.0 16.0 0.758836
4 67 253
163.0 16.5 0.323656
0 63 255
163.0 17.0 0.376184
0 63 255
163.5 2.0 0.580973
3 66 253
163.5 2.5 0.590357
3 66 253
163.5 3.0 0.47412
16 76 249
163.5 3.5 1.481538
9 71 251
163.5 4.0 3.070236
49 100 233
163.5 4.5 1.817529
16 76 249
163.5 5.0 3.402758
120 138 190
163.5 5.5 2.853089
51 101 232
163.5 6.0 1.942959
248 183 0
163.5 6.5 2.466806
120 138 190
163.5 7.0 2.733623
0 255 0
163.5 7.5 2.127091
0 255 0
163.5 8.0 3.800622
0 255 0
163.5 8.5 3.228007
0 255 0
163.5 9.0 3.751855
0 255 0
163.5 9.5 2.841725
164 155 157
163.5 10.0 4.233107
0 255 0
163.5 10.5 1.753995
21 79 247
163.5 11.0 2.103524
21 79 247
163.5 11.5 3.17611
200 165 124
163.5 12.0 2.376223
200 165 124
163.5 12.5 3.125041
86 121 212
163.5 13.0 1.802207
4 67 253
163.5 13.5 3.253492
86 121 212
163.5 14.0 2.078219
4 67 253
163.5 14.5 1.561111
15 75 249
163.5 15.0 1.827928
96 127 206
163.5 15.5 1.215792
15 75 249
163.5 16.0 0.620582
96 127 206
163.5 16.5 0.070912
11 73 250
163.5 17.0 0.366801
80 119 215
164.0 2.0 0.455973
9 71 251
164.0 2.5 0.57221
20 79 247
164.0 3.0 0.370293
20 79 247
164.0 3.5 0.681419
13 74 249
164.0 4.0 1.293554
196 216 0
164.0 4.5 1.057911
196 216 0
164.0 5.0 2.233184
143 236 0
164.0 5.5 2.705274
143 236 0
164.0 6.0 2.270094
0 255 0
164.0 6.5 2.851462
0 255 0
164.0 7.0 2.130139
183 161 141
164.0 7.5 2.626472
107 132 199
164.0 8.0 1.932597
204 212 0
164.0 8.5 2.449704
204 212 0
164.0 9.0 2.502232
56 104 229
164.0 9.5 1.949238
228 173 86
164.0 10.0 2.001766
228 173 86
164.0 10.5 2.676339
0 255 0
164.0 11.0 3.248954
0 255 0
164.0 11.5 2.754454
178 159 145
164.0 12.0 2.589268
17 77 248
164.0 12.5 2.29338
3 67 253
164.0 13.0 2.894389
17 77 248
164.0 13.5 1.337196
17 77 248
164.0 14.0 1.918564
66 110 224
164.0 14.5 1.086281
66 110 224
164.0 15.0 0.419877
34 89 241
164.0 15.5 0.472405
72 114 221
164.0 16.0 0.307219
72 114 221
164.0 16.5 0.48826
31 87 242
164.0 17.0 0.36326
114 135 194
164.5 2.0 0.607956
4 67 253
164.5 2.5 0.426915
5 68 252
164.5 3.0 0.628832
5 68 252
164.5 3.5 0.44779
24 82 245
164.5 4.0 0.395263
24 82 245
164.5 4.5 0.342735
15 75 249
164.5 5.0 1.449892
24 81 245
164.5 5.5 2.522479
17 76 248
164.5 6.0 1.893276
17 76 248
164.5 6.5 2.328456
39 93 238
164.5 7.0 2.530373
21 80 246
164.5 7.5 1.957758
54 103 231
164.5 8.0 1.967141
0 255 0
164.5 8.5 2.688465
0 255 0
164.5 9.0 2.192132
235 193 0
164.5 9.5 3.109613
0 255 0
164.5 10.0 2.465419
135 144 180
164.5 10.5 2.412891
235 193 0
164.5 11.0 2.614808
46 98 235
164.5 11.5 2.498571
21 79 247
164.5 12.0 2.252333
113 135 195
164.5 12.5 1.663551
113 135 195
164.5 13.0 0.815532
190 163 134
164.5 13.5 0.280764
190 163 134
164.5 14.0 0.547581
253 179 0
164.5 14.5 0.301343
253 179 0
164.5 15.0 0.50326
61 107 226
164.5 15.5 0.257021
49 100 233
164.5 16.0 0.60655
178 159 145
164.5 16.5 0.194772
178 159 145
164.5 17.0 0.544301
114 135 194
165.0 2.0 0.372312
63 109 225
165.0 2.5 0.488549
63 109 225
165.0 3.0 0.363549
16 76 249
165.0 3.5 0.479786
16 76 249
165.0 4.0 -0.269033
0 63 255
165.0 4.5 0.326178
1 65 254
165.0 5.0 0.124261
1 65 254
165.0 5.5 1.341842
9 71 251
165.0 6.0 1.522883
9 71 251
165.0 6.5 1.703924
10 72 251
165.0 7.0 1.756452
115 136 194
165.0 7.5 1.591266
0 255 0
165.0 8.0 2.172634
0 255 0
165.0 8.5 1.823105
0 255 0
165.0 9.0 2.267129
121 138 189
165.0 9.5 2.000312
104 131 200
165.0 10.0 2.572926
148 234 0
165.0 10.5 2.167727
148 234 0
165.0 11.0 2.283963
254 178 0
165.0 11.5 2.082047
254 178 0
165.0 12.0 2.493825
13 74 249
165.0 12.5 1.102442
4 67 253
165.0 13.0 0.298214
6 69 252
165.0 13.5 0.414451
6 69 252
165.0 14.0 0.249265
7 70 252
165.0 14.5 0.495503
20 78 247
165.0 15.0 0.293587
20 78 247
165.0 15.5 -0.029722
122 139 189
165.0 16.0 0.487385
122 139 189
165.0 16.5 0.251742
96 126 206
165.0 17.0 0.30427
38 92 239
4 31 32 1 0
4 32 33 2 1
4 33 34 3 2
4 34 35 4 3
4 35 36 5 4
4 36 37 6 5
4 37 38 7 6
4 38 39 8 7
4 39 40 9 8
4 40 41 10 9
4 41 42 11 10
4 42 43 12 11
4 43 44 13 12
4 44 45 14 13
4 45 46 15 14
4 46 47 16 15
4 47 48 17 16
4 48 49 18 17
4 49 50 19 18
4 50 51 20 19
4 51 52 21 20
4 52 53 22 21
4 53 54 23 22
4 54 55 24 23
4 55 56 25 24
4 56 57 26 25
4 57 58 27 26
4 58 59 28 27
4 59 60 29 28
4 60 61 30 29
4 62 63 32 31
4 63 64 33 32
4 64 65 34 33
4 65 66 35 34
4 66 67 36 35
4 67 68 37 36
4 68 69 38 37
4 69 70 39 38
4 70 71 40 39
4 71 72 41 40
4 72 73 42 41
4 73 74 43 42
4 74 75 44 43
4 75 76 45 44
4 76 77 46 45
4 77 78 47 46
4 78 79 48 47
4 79 80 49 48
4 80 81 50 49
4 81 82 51 50
4 82 83 52 51
4 83 84 53 52
4 84 85 54 53
4 85 86 55 54
4 86 87 56 55
4 87 88 57 56
4 88 89 58 57
4 89 90 59 58
4 90 91 60 59
4 91 92 61 60
4 93 94 63 62
4 94 95 64 63
4 95 96 65 64
4 96 97 66 65
4 97 98 67 66
4 98 99 68 67
4 99 100 69 68
4 100 101 70 69
4 101 102 71 70
4 102 103 72 71
4 103 104 73 72
4 104 105 74 73
4 105 106 75 74
4 106 107 76 75
4 107 108 77 76
4 108 109 78 77
4 109 110 79 78
4 110 111 80 79
4 111 112 81 80
4 112 113 82 81
4 113 114 83 82
4 114 115 84 83
4 115 116 85 84
4 116 117 86 85
4 117 118 87 86
4 118 119 88 87
4 119 120 89 88
4 120 121 90 89
4 121 122 91 90
4 122 123 92 91
4 124 125 94 93
4 125 126 95 94
4 126 127 96 95
4 127 128 97 96
4 128 129 98 97
4 129 130 99 98
4 130 131 100 99
4 131 132 101 100
4 132 133 102 101
4 133 134 103 102
4 134 135 104 103
4 135 136 105 104
4 136 137 106 105
4 137 138 107 106
4 138 139 108 107
4 139 140 109 108
4 140 141 110 109
4 141 142 111 110
4 142 143 112 111
4 143 144 113 112
4 144 145 114 113
4 145 146 115 114
4 146 147 116 115
4 147 148 117 116
4 148 149 118 117
4 149 150 119 118
4 150 151 120 119
4 151 152 121 120
4 152 153 122 121
4 153 154 123 122
4 155 156 125 124
4 156 157 126 125
4 157 158 127 126
4 158 159 128 127
4 159 160 129 128
4 160 161 130 129
4 161 162 131 130
4 162 163 132 131
4 163 164 133 132
4 164 165 134 133
4 165 166 135 134
4 166 167 136 135
4 167 168 137 136
4 168 169 138 137
4 169 170 139 138
4 170 171 140 139
4 171 172 141 140
4 172 173 142 141
4 173 174 143 142
4 174 175 144 143
4 175 176 145 144
4 176 177 146 145
4 177 178 147 146
4 178 179 148 147
4 179 180 149 148
4 180 181 150 149
4 181 182 151 150
4 182 183 152 151
4 183 184 153 152
4 184 185 154 153
4 186 187 156 155
4 187 188 157 156
4 188 189 158 157
4 189 190 159 158
4 190 191 160 159
4 191 192 161 160
4 192 193 162 161
4 193 194 163 162
4 194 195 164 163
4 195 196 165 164
4 196 197 166 165
4 197 198 167 166
4 198 199 168 167
4 199 200 169 168
4 200 201 170 169
4 201 202 171 170
4 202 203 172 171
4 203 204 173 172
4 204 205 174 173
4 205 206 175 174
4 206 207 176 175
4 207 208 177 176
4 208 209 178 177
4 209 210 179 178
4 210 211 180 179
4 211 212 181 180
4 212 213 182 181
4 213 214 183 182
4 214 215 184 183
4 215 216 185 184
4 217 218 187 186
4 218 219 188 187
4 219 220 189 188
4 220 221 190 189
4 221 222 191 190
4 222 223 192 191
4 223 224 193 192
4 224 225 194 193
4 225 226 195 194
4 226 227 196 195
4 227 228 197 196
4 228 229 198 197
4 229 230 199 198
4 230 231 200 199
4 231 232 201 200
4 232 233 202 201
4 233 234 203 202
4 234 235 204 203
4 235 236 205 204
4 236 237 206 205
4 237 238 207 206
4 238 239 208 207
4 239 240 209 208
4 240 241 210 209
4 241 242 211 210
4 242 243 212 211
4 243 244 213 212
4 244 245 214 213
4 245 246 215 214
4 246 247 216 215
4 248 249 218 217
4 249 250 219 218
4 250 251 220 219
4 251 252 221 220
4 252 253 222 221
4 253 254 223 222
4 254 255 224 223
4 255 256 225 224
4 256 257 226 225
4 257 258 227 226
4 258 259 228 227
4 259 260 229 228
4 260 261 230 229
4 261 262 231 230
4 262 263 232 231
4 263 264 233 232
4 264 265 234 233
4 265 266 235 234
4 266 267 236 235
4 267 268 237 236
4 268 269 238 237
4 269 270 239 238
4 270 271 240 239
4 271 272 241 240
4 272 273 242 241
4 273 274 243 242
4 274 275 244 243
4 275 276 245 244
4 276 277 246 245
4 277 278 247 246
4 279 280 249 248
4 280 281 250 249
4 281 282 251 250
4 282 283 252 251
4 283 284 253 252
4 284 285 254 253
4 285 286 255 254
4 286 287 256 255
4 287 288 257 256
4 288 289 258 257
4 289 290 259 258
4 290 291 260 259
4 291 292 261 260
4 292 293 262 261
4 293 294 263 262
4 294 295 264 263
4 295 296 265 264
4 296 297 266 265
4 297 298 267 266
4 298 299 268 267
4 299 300 269 268
4 300 301 270 269
4 301 302 271 270
4 302 303 272 271
4 303 304 273 272
4 304 305 274 273
4 305 306 275 274
4 306 307 276 275
4 307 308 277 276
4 308 309 278 277
4 310 311 280 279
4 311 312 281 280
4 312 313 282 281
4 313 314 283 282
4 314 315 284 283
4 315 316 285 284
4 316 317 286 285
4 317 318 287 286
4 318 319 288 287
4 319 320 289 288
4 320 321 290 289
4 321 322 291 290
4 322 323 292 291
4 323 324 293 292
4 324 325 294 293
4 325 326 295 294
4 326 327 296 295
4 327 328 297 296
4 328 329 298 297
4 329 330 299 298
4 330 331 300 299
4 331 332 301 300
4 332 333 302 301
4 333 334 303 302
4 334 335 304 303
4 335 336 305 304
4 336 337 306 305
4 337 338 307 306
4 338 339 308 307
4 339 340 309 308
4 341 342 311 310
4 342 343 312 311
4 343 344 313 312
4 344 345 314 313
4 345 346 315 314
4 346 347 316 315
4 347 348 317 316
4 348 349 318 317
4 349 350 319 318
4 350 351 320 319
4 351 352 321 320
4 352 353 322 321
4 353 354 323 322
4 354 355 324 323
4 355 356 325 324
4 356 357 326 325
4 357 358 327 326
4 358 359 328 327
4 359 360 329 328
4 360 361 330 329
4 361 362 331 330
4 362 363 332 331
4 363 364 333 332
4 364 365 334 333
4 365 366 335 334
4 366 367 336 335
4 367 368 337 336
4 368 369 338 337
4 369 370 339 338
4 370 371 340 339
4 372 373 342 341
4 373 374 343 342
4 374 375 344 343
4 375 376 345 344
4 376 377 346 345
4 377 378 347 346
4 378 379 348 347
4 379 380 349 348
4 380 381 350 349
4 381 382 351 350
4 382 383 352 351
4 383 384 353 352
4 384 385 354 353
4 385 386 355 354
4 386 387 356 355
4 387 388 357 356
4 388 389 358 357
4 389 390 359 358
4 390 391 360 359
4 391 392 361 360
4 392 393 362 361
4 393 394 363 362
4 394 395 364 363
4 395 396 365 364
4 396 397 366 365
4 397 398 367 366
4 398 399 368 367
4 399 400 369 368
4 400 401 370 369
4 401 402 371 370
4 403 404 373 372
4 404 405 374 373
4 405 406 375 374
4 406 407 376 375
4 407 408 377 376
4 408 409 378 377
4 409 410 379 378
4 410 411 380 379
4 411 412 381 380
4 412 413 382 381
4 413 414 383 382
4 414 415 384 383
4 415 416 385 384
4 416 417 386 385
4 417 418 387 386
4 418 419 388 387
4 419 420 389 388
4 420 421 390 389
4 421 422 391 390
4 422 423 392 391
4 423 424 393 392
4 424 425 394 393
4 425 426 395 394
4 426 427 396 395
4 427 428 397 396
4 428 429 398 397
4 429 430 399 398
4 430 431 400 399
4 431 432 401 400
4 432 433 402 401
4 434 435 404 403
4 435 436 405 404
4 436 437 406 405
4 437 438 407 406
4 438 439 408 407
4 439 440 409 408
4 440 441 410 409
4 441 442 411 410
4 442 443 412 411
4 443 444 413 412
4 444 445 414 413
4 445 446 415 414
4 446 447 416 415
4 447 448 417 416
4 448 449 418 417
4 449 450 419 418
4 450 451 420 419
4 451 452 421 420
4 452 453 422 421
4 453 454 423 422
4 454 455 424 423
4 455 456 425 424
4 456 457 426 425
4 457 458 427 426
4 458 459 428 427
4 459 460 429 428
4 460 461 430 429
4 461 462 431 430
4 462 463 432 431
4 463 464 433 432
4 465 466 435 434
4 466 467 436 435
4 467 468 437 436
4 468 469 438 437
4 469 470 439 438
4 470 471 440 439
4 471 472 441 440
4 472 473 442 441
4 473 474 443 442
4 474 475 444 443
4 475 476 445 444
4 476 477 446 445
4 477 478 447 446
4 478 479 448 447
4 479 480 449 448
4 480 481 450 449
4 481 482 451 450
4 482 483 452 451
4 483 484 453 452
4 484 485 454 453
4 485 486 455 454
4 486 487 456 455
4 487 488 457 456
4 488 489 458 457
4 489 490 459 458
4 490 491 460 459
4 491 492 461 460
4 492 493 462 461
4 493 494 463 462
4 494 495 464 463
4 496 497 466 465
4 497 498 467 466
4 498 499 468 467
4 499 500 469 468
4 500 501 470 469
4 501 502 471 470
4 502 503 472 471
4 503 504 473 472
4 504 505 474 473
4 505 506 475 474
4 506 507 476 475
4 507 508 477 476
4 508 509 478 477
4 509 510 479 478
4 510 511 480 479
4 511 512 481 480
4 512 513 482 481
4 513 514 483 482
4 514 515 484 483
4 515 516 485 484
4 516 517 486 485
4 517 518 487 486
4 518 519 488 487
4 519 520 489 488
4 520 521 490 489
4 521 522 491 490
4 522 523 492 491
4 523 524 493 492
4 524 525 494 493
4 525 526 495 494
4 527 528 497 496
4 528 529 498 497
4 529 530 499 498
4 530 531 500 499
4 531 532 501 500
4 532 533 502 501
4 533 534 503 502
4 534 535 504 503
4 535 536 505 504
4 536 537 506 505
4 537 538 507 506
4 538 539 508 507
4 539 540 509 508
4 540 541 510 509
4 541 542 511 510
4 542 543 512 511
4 543 544 513 512
4 544 545 514 513
4 545 546 515 514
4 546 547 516 515
4 547 548 517 516
4 548 549 518 517
4 549 550 519 518
4 550 551 520 519
4 551 552 521 520
4 552 553 522 521
4 553 554 523 522
4 554 555 524 523
4 555 556 525 524
4 556 557 526 525
4 558 559 528 527
4 559 560 529 528
4 560 561 530 529
4 561 562 531 530
4 562 563 532 531
4 563 564 533 532
4 564 565 534 533
4 565 566 535 534
4 566 567 536 535
4 567 568 537 536
4 568 569 538 537
4 569 570 539 538
4 570 571 540 539
4 571 572 541 540
4 572 573 542 541
4 573 574 543 542
4 574 575 544 543
4 575 576 545 544
4 576 577 546 545
4 577 578 547 546
4 578 579 548 547
4 579 580 549 548
4 580 581 550 549
4 581 582 551 550
4 582 583 552 551
4 583 584 553 552
4 584 585 554 553
4 585 586 555 554
4 586 587 556 555
4 587 588 557 556
4 589 590 559 558
4 590 591 560 559
4 591 592 561 560
4 592 593 562 561
4 593 594 563 562
4 594 595 564 563
4 595 596 565 564
4 596 597 566 565
4 597 598 567 566
4 598 599 568 567
4 599 600 569 568
4 600 601 570 569
4 601 602 571 570
4 602 603 572 571
4 603 604 573 572
4 604 605 574 573
4 605 606 575 574
4 606 607 576 575
4 607 608 577 576
4 608 609 578 577
4 609 610 579 578
4 610 611 580 579
4 611 612 581 580
4 612 613 582 581
4 613 614 583 582
4 614 615 584 583
4 615 616 585 584
4 616 617 586 585
4 617 618 587 586
4 618 619 588 587
4 620 621 590 589
4 621 622 591 590
4 622 623 592 591
4 623 624 593 592
4 624 625 594 593
4 625 626 595 594
4 626 627 596 595
4 627 628 597 596
4 628 629 598 597
4 629 630 599 598
4 630 631 600 599
4 631 632 601 600
4 632 633 602 601
4 633 634 603 602
4 634 635 604 603
4 635 636 605 604
4 636 637 606 605
4 637 638 607 606
4 638 639 608 607
4 639 640 609 608
4 640 641 610 609
4 641 642 611 610
4 642 643 612 611
4 643 644 613 612
4 644 645 614 613
4 645 646 615 614
4 646 647 616 615
4 647 648 617 616
4 648 649 618 617
4 649 650 619 618
4 651 652 621 620
4 652 653 622 621
4 653 654 623 622
4 654 655 624 623
4 655 656 625 624
4 656 657 626 625
4 657 658 627 626
4 658 659 628 627
4 659 660 629 628
4 660 661 630 629
4 661 662 631 630
4 662 663 632 631
4 663 664 633 632
4 664 665 634 633
4 665 666 635 634
4 666 667 636 635
4 667 668 637 636
4 668 669 638 637
4 669 670 639 638
4 670 671 640 639
4 671 672 641 640
4 672 673 642 641
4 673 674 643 642
4 674 675 644 643
4 675 676 645 644
4 676 677 646 645
4 677 678 647 646
4 678 679 648 647
4 679 680 649 648
4 680 681 650 649
4 682 683 652 651
4 683 684 653 652
4 684 685 654 653
4 685 686 655 654
4 686 687 656 655
4 687 688 657 656
4 688 689 658 657
4 689 690 659 658
4 690 691 660 659
4 691 692 661 660
4 692 693 662 661
4 693 694 663 662
4 694 695 664 663
4 695 696 665 664
4 696 697 666 665
4 697 698 667 666
4 698 699 668 667
4 699 700 669 668
4 700 701 670 669
4 701 702 671 670
4 702 703 672 671
4 703 704 673 672
4 704 705 674 673
4 705 706 675 674
4 706 707 676 675
4 707 708 677 676
4 708 709 678 677
4 709 710 679 678
4 710 711 680 679
4 711 712 681 680
4 713 714 683 682
4 714 715 684 683
4 715 716 685 684
4 716 717 686 685
4 717 718 687 686
4 718 719 688 687
4 719 720 689 688
4 720 721 690 689
4 721 722 691 690
4 722 723 692 691
4 723 724 693 692
4 724 725 694 693
4 725 726 695 694
4 726 727 696 695
4 727 728 697 696
4 728 729 698 697
4 729 730 699 698
4 730 731 700 699
4 731 732 701 700
4 732 733 702 701
4 733 734 703 702
4 734 735 704 703
4 735 736 705 704
4 736 737 706 705
4 737 738 707 706
4 738 739 708 707
4 739 740 709 708
4 740 741 710 709
4 741 742 711 710
4 742 743 712 711
4 744 745 714 713
4 745 746 715 714
4 746 747 716 715
4 747 748 717 716
4 748 749 718 717
4 749 750 719 718
4 750 751 720 719
4 751 752 721 720
4 752 753 722 721
4 753 754 723 722
4 754 755 724 723
4 755 756 725 724
4 756 757 726 725
4 757 758 727 726
4 758 759 728 727
4 759 760 729 728
4 760 761 730 729
4 761 762 731 730
4 762 763 732 731
4 763 764 733 732
4 764 765 734 733
4 765 766 735 734
4 766 767 736 735
4 767 768 737 736
4 768 769 738 737
4 769 770 739 738
4 770 771 740 739
4 771 772 741 740
4 772 773 742 741
4 773 774 743 742
4 775 776 745 744
4 776 777 746 745
4 777 778 747 746
4 778 779 748 747
4 779 780 749 748
4 780 781 750 749
4 781 782 751 750
4 782 783 752 751
4 783 784 753 752
4 784 785 754 753
4 785 786 755 754
4 786 787 756 755
4 787 788 757 756
4 788 789 758 757
4 789 790 759 758
4 790 791 760 759
4 791 792 761 760
4 792 793 762 761
4 793 794 763 762
4 794 795 764 763
4 795 796 765 764
4 796 797 766 765
4 797 798 767 766
4 798 799 768 767
4 799 800 769 768
4 800 801 770 769
4 801 802 771 770
4 802 803 772 771
4 803 804 773 772
4 804 805 774 773
4 806 807 776 775
4 807 808 777 776
4 808 809 778 777
4 809 810 779 778
4 810 811 780 779
4 811 812 781 780
4 812 813 782 781
4 813 814 783 782
4 814 815 784 783
4 815 816 785 784
4 816 817 786 785
4 817 818 787 786
4 818 819 788 787
4 819 820 789 788
4 820 821 790 789
4 821 822 791 790
4 822 823 792 791
4 823 824 793 792
4 824 825 794 793
4 825 826 795 794
4 826 827 796 795
4 827 828 797 796
4 828 829 798 797
4 829 830 799 798
4 830 831 800 799
4 831 832 801 800
4 832 833 802 801
4 833 834 803 802
4 834 835 804 803
4 835 836 805 804
4 837 838 807 806
4 838 839 808 807
4 839 840 809 808
4 840 841 810 809
4 841 842 811 810
4 842 843 812 811
4 843 844 813 812
4 844 845 814 813
4 845 846 815 814
4 846 847 816 815
4 847 848 817 816
4 848 849 818 817
4 849 850 819 818
4 850 851 820 819
4 851 852 821 820
4 852 853 822 821
4 853 854 823 822
4 854 855 824 823
4 855 856 825 824
4 856 857 826 825
4 857 858 827 826
4 858 859 828 827
4 859 860 829 828
4 860 861 830 829
4 861 862 831 830
4 862 863 832 831
4 863 864 833 832
4 864 865 834 833
4 865 866 835 834
4 866 867 836 835
4 868 869 838 837
4 869 870 839 838
4 870 871 840 839
4 871 872 841 840
4 872 873 842 841
4 873 874 843 842
4 874 875 844 843
4 875 876 845 844
4 876 877 846 845
4 877 878 847 846
4 878 879 848 847
4 879 880 849 848
4 880 881 850 849
4 881 882 851 850
4 882 883 852 851
4 883 884 853 852
4 884 885 854 853
4 885 886 855 854
4 886 887 856 855
4 887 888 857 856
4 888 889 858 857
4 889 890 859 858
4 890 891 860 859
4 891 892 861 860
4 892 893 862 861
4 893 894 863 862
4 894 895 864 863
4 895 896 865 864
4 896 897 866 865
4 897 898 867 866
4 899 900 869 868
4 900 901 870 869
4 901 902 871 870
4 902 903 872 871
4 903 904 873 872
4 904 905 874 873
4 905 906 875 874
4 906 907 876 875
4 907 908 877 876
4 908 909 878 877
4 909 910 879 878
4 910 911 880 879
4 911 912 881 880
4 912 913 882 881
4 913 914 883 882
4 914 915 884 883
4 915 916 885 884
4 916 917 886 885
4 917 918 887 886
4 918 919 888 887
4 919 920 889 888
4 920 921 890 889
4 921 922 891 890
4 922 923 892 891
4 923 924 893 892
4 924 925 894 893
4 925 926 895 894
4 926 927 896 895
4 927 928 897 896
4 928 929 898 897
4 930 931 900 899
4 931 932 901 900
4 932 933 902 901
4 933 934 903 902
4 934 935 904 903
4 935 936 905 904
4 936 937 906 905
4 937 938 907 906
4 938 939 908 907
4 939 940 909 908
4 940 941 910 909
4 941 942 911 910
4 942 943 912 911
4 943 944 913 912
4 944 945 914 913
4 945 946 915 914
4 946 947 916 915
4 947 948 917 916
4 948 949 918 917
4 949 950 919 918
4 950 951 920 919
4 951 952 921 920
4 952 953 922 921
4 953 954 923 922
4 954 955 924 923
4 955 956 925 924
4 956 957 926 925
4 957 958 927 926
4 958 959 928 927
4 959 960 929 928
