ply
format ascii 1.0
element vertex 453
property float x
property float y
property float z
property uchar red
property uchar green
property uchar blue
end_header
154.5 6.5 1.353747 0 255 0
155.0 4.5 3.133965 100 129 203
155.0 5.0 4.351546 35 90 240
155.0 5.5 4.79557 174 158 148
155.0 6.0 2.415152 174 158 148
155.0 6.5 4.573329 0 255 0
155.0 7.0 1.849516 0 255 0
155.0 10.0 1.616851 0 255 0
155.5 5.5 4.86832 17 77 248
155.5 6.0 4.622081 0 255 0
155.5 6.5 3.299247 115 136 194
155.5 7.0 4.721663 115 136 194
155.5 7.5 4.149048 23 81 246
155.5 8.0 2.577604 196 216 0
155.5 8.5 1.240531 254 178 0
156.0 5.0 3.417945 0 255 0
156.0 5.5 4.471761 109 133 197
156.0 6.0 3.639478 111 134 196
156.0 6.5 4.439365 250 177 35
156.0 7.0 4.237448 250 177 35
156.0 7.5 4.548574 29 86 243
156.0 8.0 4.281757 11 72 250
156.0 8.5 4.272373 0 255 0
156.0 9.0 1.339584 0 255 0
156.0 9.5 4.429371 0 255 0
156.5 3.0 2.351585 49 100 233
156.5 4.0 3.265698 0 255 0
156.5 4.5 1.753635 0 255 0
156.5 5.0 4.648005 0 255 0
156.5 5.5 4.813191 42 95 237
156.5 6.0 4.63215 42 95 237
156.5 6.5 3.241591 205 167 117
156.5 7.0 4.788911 205 167 117
156.5 7.5 4.292578 167 156 154
156.5 8.0 2.936033 223 201 0
156.5 8.5 4.67678 223 201 0
156.5 9.0 4.265002 0 255 0
156.5 9.5 3.658469 0 255 0
156.5 10.0 3.823655 0 255 0
156.5 10.5 4.51753 0 255 0
156.5 11.0 1.249547 0 255 0
156.5 11.5 5.226007 0 255 0
157.0 2.5 2.138569 106 131 200
157.0 3.0 2.767772 233 174 78
157.0 3.5 1.622242 0 255 0
157.0 4.0 4.817784 0 255 0
157.0 4.5 3.229078 129 240 0
157.0 5.0 4.598315 238 191 0
157.0 5.5 4.163135 247 184 0
157.0 6.0 4.607158 89 123 210
157.0 6.5 4.171978 71 113 221
157.0 7.0 3.970062 252 180 0
157.0 7.5 4.2163 252 180 0
157.0 8.0 3.866771 233 174 79
157.0 8.5 4.473304 0 255 0
157.0 9.0 2.534467 0 255 0
157.0 9.5 3.891011 142 147 174
157.0 10.0 4.517052 70 113 222
157.0 10.5 3.371522 196 164 128
157.0 11.0 4.546795 196 164 128
157.0 11.5 5.153328 27 84 244
157.0 12.0 5.334369 0 255 0
157.5 2.5 2.556948 74 115 219
157.5 3.0 1.75706 182 222 0
157.5 3.5 3.31793 184 161 140
157.5 4.0 2.013379 0 255 0
157.5 4.5 4.926915 0 255 0
157.5 5.0 4.454825 46 98 234
157.5 5.5 4.91977 218 170 101
157.5 6.0 4.313237 218 170 101
157.5 6.5 3.816904 167 156 155
157.5 7.0 4.483308 59 252 0
157.5 7.5 3.826136 176 158 147
157.5 8.0 2.978117 59 252 0
157.5 8.5 4.58519 176 158 147
157.5 9.0 4.035521 0 255 0
157.5 9.5 4.38505 111 134 196
157.5 10.0 3.78404 0 255 0
157.5 10.5 4.730646 0 255 0
157.5 11.0 4.135435 210 168 112
157.5 11.5 4.688428 229 197 0
157.5 12.0 5.577451 0 255 0
157.5 12.5 4.729433 0 255 0
158.0 3.5 1.130956 0 255 0
158.0 4.0 1.890008 0 255 0
158.0 4.5 4.709391 0 255 0
158.0 5.0 4.640598 211 208 0
158.0 5.5 1.707809 199 214 0
158.0 6.0 4.70006 199 214 0
158.0 6.5 3.951242 125 140 187
158.0 7.0 3.627933 0 255 0
158.0 7.5 4.262995 0 255 0
158.0 8.0 3.117466 0 255 0
158.0 8.5 3.965485 0 255 0
158.0 9.0 4.560695 0 255 0
158.0 9.5 4.613223 0 255 0
158.0 10.0 4.06023 96 127 206
158.0 10.5 4.695292 135 144 179
158.0 11.0 4.399404 208 168 114
158.0 11.5 5.043598 208 168 114
158.0 12.0 5.455376 74 115 219
158.0 12.5 5.571613 0 255 0
158.0 13.0 1.835108 0 255 0
158.0 13.5 1.710108 0 255 0
158.0 14.0 1.891149 0 255 0
158.5 2.5 2.95624 0 255 0
158.5 3.0 1.513 94 125 207
158.5 3.5 4.40737 0 255 0
158.5 4.0 5.073774 43 95 236
158.5 4.5 4.524105 17 77 248
158.5 5.0 3.765053 0 255 0
158.5 5.5 4.625717 63 108 226
158.5 6.0 4.750717 0 255 0
158.5 6.5 4.634481 86 122 212
158.5 7.0 4.027948 86 122 212
158.5 7.5 3.421415 207 210 0
158.5 8.0 4.142739 82 119 215
158.5 8.5 4.438627 207 210 0
158.5 9.0 3.820454 0 255 0
158.5 9.5 5.391988 136 144 179
158.5 10.0 4.819373 0 255 0
158.5 10.5 4.888166 201 166 122
158.5 11.0 3.551094 95 126 207
158.5 11.5 5.158336 201 166 122
158.5 12.0 5.563535 228 172 87
158.5 12.5 5.688535 58 105 228
158.5 13.0 3.641211 0 255 0
158.5 13.5 4.28005 220 203 0
158.5 14.0 2.836811 0 255 0
158.5 14.5 1.429919 0 255 0
159.0 3.0 1.447433 0 255 0
159.0 3.5 2.073473 0 255 0
159.0 4.0 2.748046 0 255 0
159.0 4.5 3.923319 46 253 0
159.0 5.0 4.552522 34 89 241
159.0 5.5 4.863648 33 88 241
159.0 6.0 3.718118 13 73 250
159.0 6.5 4.313329 151 150 167
159.0 7.0 2.766008 222 201 0
159.0 7.5 3.392049 222 201 0
159.0 8.0 3.973417 138 145 178
159.0 8.5 4.41744 0 255 0
159.0 9.0 3.98226 0 255 0
159.0 9.5 4.594396 142 147 174
159.0 10.0 3.407138 0 255 0
159.0 10.5 3.979753 0 255 0
159.0 11.0 4.676723 248 183 0
159.0 11.5 5.211491 116 136 193
159.0 12.0 5.773658 17 77 248
159.0 12.5 4.666501 11 72 250
159.0 13.0 4.657117 7 70 252
159.0 13.5 3.908299 7 70 252
159.0 14.0 3.58499 10 72 251
159.0 14.5 4.214193 87 122 212
159.0 15.0 2.628964 0 255 0
159.0 15.5 1.059767 0 255 0
159.5 3.0 4.928699 187 162 137
159.5 3.5 4.456609 0 255 0
159.5 4.0 4.723426 187 162 137
159.5 4.5 5.158606 0 255 0
159.5 5.0 4.686516 0 255 0
159.5 5.5 3.262178 146 148 172
159.5 6.0 4.831374 146 148 172
159.5 6.5 4.585136 0 255 0
159.5 7.0 2.885568 0 255 0
159.5 7.5 4.43309 0 255 0
159.5 8.0 4.252049 0 255 0
159.5 8.5 3.626009 0 255 0
159.5 9.0 4.54349 0 255 0
159.5 9.5 5.037989 56 104 229
159.5 10.0 4.520882 0 255 0
159.5 10.5 3.720994 0 255 0
159.5 11.0 5.14341 0 255 0
159.5 11.5 4.554629 0 255 0
159.5 12.0 3.250078 0 255 0
159.5 12.5 2.624038 0 255 0
159.5 13.0 5.232726 246 185 0
159.5 13.5 4.651358 0 255 0
159.5 14.0 3.803339 0 255 0
159.5 14.5 3.268571 0 255 0
159.5 15.0 4.017389 0 255 0
159.5 15.5 1.918265 0 255 0
160.0 2.0 3.011865 216 170 104
160.0 2.5 2.458872 254 178 0
160.0 3.0 4.450963 254 178 0
160.0 3.5 4.923053 36 91 240
160.0 4.0 4.428553 36 91 240
160.0 4.5 5.001168 12 73 250
160.0 5.0 3.260422 168 156 154
160.0 5.5 2.399757 236 192 0
160.0 6.0 4.557934 236 192 0
160.0 6.5 4.392748 52 102 231
160.0 7.0 3.001366 208 168 114
160.0 7.5 4.254073 208 168 114
160.0 8.0 4.18528 162 154 159
160.0 8.5 4.681613 151 150 167
160.0 9.0 3.574456 0 255 0
160.0 9.5 4.249029 0 255 0
160.0 10.0 2.826613 0 255 0
160.0 10.5 4.75599 0 255 0
160.0 11.0 3.186794 158 231 0
160.0 11.5 2.662946 0 255 0
160.0 12.0 2.052252 0 255 0
160.0 12.5 2.363377 0 255 0
160.0 13.0 3.538651 204 212 0
160.0 13.5 3.654887 204 212 0
160.0 14.0 3.771124 81 119 215
160.0 14.5 3.646124 81 119 215
160.0 15.0 3.57733 32 88 242
160.0 15.5 3.341687 0 255 0
160.5 2.0 4.572477 113 135 195
160.5 2.5 4.64127 108 133 198
160.5 3.0 4.806456 17 77 248
160.5 3.5 4.006569 0 255 0
160.5 4.0 3.594791 0 255 0
160.5 4.5 5.202032 151 150 167
160.5 5.0 4.557838 0 255 0
160.5 5.5 2.807516 197 165 127
160.5 6.0 4.871816 197 165 127
160.5 6.5 4.337048 125 140 187
160.5 7.0 4.572692 57 105 229
160.5 7.5 4.456455 125 140 187
160.5 8.0 3.821393 86 121 212
160.5 8.5 4.487797 86 121 212
160.5 9.0 4.49718 197 165 126
160.5 9.5 3.133834 201 214 0
160.5 10.0 4.70303 197 165 126
160.5 10.5 4.391905 0 255 0
160.5 11.0 3.174323 0 255 0
160.5 11.5 4.721846 0 255 0
160.5 12.0 2.186757 0 255 0
160.5 12.5 2.311757 0 255 0
160.5 13.0 3.703139 233 195 0
160.5 13.5 4.052668 162 230 0
160.5 14.0 3.871627 236 174 73
160.5 14.5 4.138444 121 138 189
160.5 15.0 4.340361 236 174 73
160.5 15.5 3.767746 192 218 0
160.5 16.0 1.199865 0 255 0
161.0 2.5 3.053604 0 255 0
161.0 3.0 1.866346 0 255 0
161.0 3.5 3.256905 0 255 0
161.0 4.0 4.700144 149 149 169
161.0 4.5 5.217252 23 81 246
161.0 5.0 3.656382 52 101 232
161.0 5.5 3.360494 179 159 144
161.0 6.0 4.342199 113 244 0
161.0 6.5 3.703359 113 244 0
161.0 7.0 4.347554 250 177 35
161.0 7.5 3.571124 40 93 238
161.0 8.0 4.200327 97 127 205
161.0 8.5 3.795127 0 255 0
161.0 9.0 3.911364 0 255 0
161.0 9.5 4.512373 130 142 183
161.0 10.0 4.27673 49 100 233
161.0 10.5 3.811784 208 168 114
161.0 11.0 4.406995 208 168 114
161.0 11.5 3.94205 222 202 0
161.0 12.0 2.39473 222 202 0
161.0 12.5 3.038924 0 255 0
161.0 13.0 3.683118 0 255 0
161.0 13.5 3.994244 219 204 0
161.0 14.0 4.240482 47 98 234
161.0 14.5 4.075296 21 80 246
161.0 15.0 3.580796 21 80 246
161.0 15.5 4.052886 5 68 252
161.0 16.0 1.64511 84 121 213
161.5 2.0 4.757959 31 87 242
161.5 2.5 3.31472 30 86 242
161.5 3.0 4.84135 31 87 242
161.5 3.5 4.850733 171 157 151
161.5 4.0 2.371621 171 157 151
161.5 4.5 4.756546 24 82 245
161.5 5.0 4.127343 15 75 249
161.5 5.5 2.845908 12 73 250
161.5 6.0 4.32407 65 110 224
161.5 6.5 4.906011 65 110 224
161.5 7.0 4.72497 13 74 250
161.5 7.5 4.162803 13 74 250
161.5 8.0 4.486111 0 255 0
161.5 8.5 4.074333 231 173 82
161.5 9.0 4.021805 0 255 0
161.5 9.5 4.427005 0 255 0
161.5 10.0 4.180767 104 245 0
161.5 10.5 4.24956 191 218 0
161.5 11.0 4.599089 104 245 0
161.5 11.5 4.010307 244 176 55
161.5 12.0 3.437692 244 176 55
161.5 12.5 3.673336 189 219 0
161.5 13.0 3.066803 189 219 0
161.5 13.5 4.296308 0 255 0
161.5 14.0 3.746638 0 255 0
161.5 14.5 4.495457 34 89 241
161.5 15.0 3.960689 127 141 185
161.5 15.5 2.785415 127 141 185
161.5 16.0 2.156213 109 133 197
162.0 3.5 1.400983 0 255 0
162.0 4.0 1.134166 0 255 0
162.0 4.5 3.953549 0 255 0
162.0 5.0 4.560082 0 255 0
162.0 5.5 4.236773 28 85 244
162.0 6.0 4.733107 23 81 246
162.0 6.5 3.125865 23 81 246
162.0 7.0 2.859048 0 255 0
162.0 7.5 2.453848 0 255 0
162.0 8.0 2.570085 230 196 0
162.0 8.5 3.119754 181 160 142
162.0 9.0 4.101459 230 173 84
162.0 9.5 4.618567 230 173 84
162.0 10.0 4.35175 86 122 212
162.0 10.5 4.82384 86 122 212
162.0 11.0 3.510072 79 118 216
162.0 11.5 3.821198 0 255 0
162.0 12.0 2.988915 0 255 0
162.0 12.5 4.241622 0 255 0
162.0 13.0 3.547747 0 255 0
162.0 13.5 4.15428 104 130 201
162.0 14.0 3.432956 75 115 219
162.0 14.5 4.039489 32 88 241
162.0 15.0 3.000101 23 81 246
162.0 15.5 1.992684 23 81 246
162.0 16.0 1.867684 11 72 250
162.5 2.5 1.026757 0 255 0
162.5 3.0 1.720633 0 255 0
162.5 3.5 3.461379 0 255 0
162.5 4.0 2.832176 0 255 0
162.5 4.5 2.157603 0 255 0
162.5 5.0 1.551071 0 255 0
162.5 5.5 1.304832 0 255 0
162.5 6.0 1.857825 0 255 0
162.5 6.5 1.239652 0 255 0
162.5 7.0 3.93618 27 254 0
162.5 7.5 2.718599 0 255 0
162.5 8.0 4.459345 215 169 106
162.5 8.5 4.047567 0 255 0
162.5 9.0 3.288515 0 255 0
162.5 9.5 4.395672 0 255 0
162.5 10.0 3.751477 97 127 205
162.5 10.5 4.897007 76 250 0
162.5 11.0 4.485229 58 106 228
162.5 11.5 2.913785 200 165 124
162.5 12.0 2.26959 200 165 124
162.5 12.5 3.891829 158 153 162
162.5 13.0 3.419739 172 226 0
162.5 13.5 2.619851 142 236 0
162.5 14.0 3.452134 142 236 0
162.5 14.5 3.654051 196 216 0
162.5 15.0 2.247159 196 216 0
162.5 15.5 1.651949 147 149 171
163.0 2.5 1.381064 48 99 234
163.0 3.0 2.010267 91 124 209
163.0 3.5 3.227848 0 255 0
163.0 4.0 3.724181 0 255 0
163.0 4.5 3.400873 193 164 131
163.0 5.0 3.198956 34 89 240
163.0 5.5 2.875647 26 83 245
163.0 6.0 2.710461 5 68 252
163.0 6.5 1.906233 20 79 247
163.0 7.5 1.695986 0 255 0
163.0 8.0 2.948693 148 235 0
163.0 8.5 3.707745 215 206 0
163.0 9.0 4.257415 173 226 0
163.0 9.5 2.985591 173 226 0
163.0 10.0 3.429614 179 223 0
163.0 10.5 4.104187 207 210 0
163.0 11.0 2.79042 44 96 235
163.0 11.5 2.588503 248 184 0
163.0 12.0 1.922099 0 255 0
163.0 12.5 3.285445 0 255 0
163.0 13.0 2.619041 133 239 0
163.0 13.5 3.245081 220 171 98
163.0 14.0 1.853699 27 84 244
163.0 14.5 2.265477 9 71 251
163.0 15.0 1.830297 5 68 252
163.0 15.5 2.302387 5 68 252
163.5 3.5 1.481538 9 71 251
163.5 4.0 3.070236 49 100 233
163.5 4.5 1.817529 16 76 249
163.5 5.0 3.402758 120 138 190
163.5 5.5 2.853089 51 101 232
163.5 6.0 1.942959 248 183 0
163.5 6.5 2.466806 120 138 190
163.5 7.0 2.733623 0 255 0
163.5 7.5 2.127091 0 255 0
163.5 8.0 3.800622 0 255 0
163.5 8.5 3.228007 0 255 0
163.5 9.0 3.751855 0 255 0
163.5 9.5 2.841725 164 155 157
163.5 10.0 4.233107 0 255 0
163.5 10.5 1.753995 21 79 247
163.5 11.0 2.103524 21 79 247
163.5 11.5 3.17611 200 165 124
163.5 12.0 2.376223 200 165 124
163.5 12.5 3.125041 86 121 212
163.5 13.0 1.802207 4 67 253
163.5 13.5 3.253492 86 121 212
163.5 14.0 2.078219 4 67 253
163.5 14.5 1.561111 15 75 249
163.5 15.0 1.827928 96 127 206
163.5 15.5 1.215792 15 75 249
164.0 4.0 1.293554 196 216 0
164.0 4.5 1.057911 196 216 0
164.0 5.0 2.233184 143 236 0
164.0 5.5 2.705274 143 236 0
164.0 6.0 2.270094 0 255 0
164.0 6.5 2.851462 0 255 0
164.0 7.0 2.130139 183 161 141
164.0 7.5 2.626472 107 132 199
164.0 8.0 1.932597 204 212 0
164.0 8.5 2.449704 204 212 0
164.0 9.0 2.502232 56 104 229
164.0 9.5 1.949238 228 173 86
164.0 10.0 2.001766 228 173 86
164.0 10.5 2.676339 0 255 0
164.0 11.0 3.248954 0 255 0
164.0 11.5 2.754454 178 159 145
164.0 12.0 2.589268 17 77 248
164.0 12.5 2.29338 3 67 253
164.0 13.0 2.894389 17 77 248
164.0 13.5 1.337196 17 77 248
164.0 14.0 1.918564 66 110 224
164.0 14.5 1.086281 66 110 224
164.5 5.0 1.449892 24 81 245
164.5 5.5 2.522479 17 76 248
164.5 6.0 1.893276 17 76 248
164.5 6.5 2.328456 39 93 238
164.5 7.0 2.530373 21 80 246
164.5 7.5 1.957758 54 103 231
164.5 8.0 1.967141 0 255 0
164.5 8.5 2.688465 0 255 0
164.5 9.0 2.192132 235 193 0
164.5 9.5 3.109613 0 255 0
164.5 10.0 2.465419 135 144 180
164.5 10.5 2.412891 235 193 0
164.5 11.0 2.614808 46 98 235
164.5 11.5 2.498571 21 79 247
164.5 12.0 2.252333 113 135 195
164.5 12.5 1.663551 113 135 195
165.0 5.5 1.341842 9 71 251
165.0 6.0 1.522883 9 71 251
165.0 6.5 1.703924 10 72 251
165.0 7.0 1.756452 115 136 194
165.0 7.5 1.591266 0 255 0
165.0 8.0 2.172634 0 255 0
165.0 8.5 1.823105 0 255 0
165.0 9.0 2.267129 121 138 189
165.0 9.5 2.000312 104 131 200
165.0 10.0 2.572926 148 234 0
165.0 10.5 2.167727 148 234 0
165.0 11.0 2.283963 254 178 0
165.0 11.5 2.082047 254 178 0
165.0 12.0 2.493825 13 74 249
165.0 12.5 1.102442 4 67 253
